<svg width="37" height="43" viewBox="0 0 37 43" fill="none" xmlns="http://www.w3.org/2000/svg">
<path d="M33.8531 37.6225C31.9604 40.2883 29.9537 42.8896 26.8981 42.9326C23.8424 42.9971 22.8619 41.2343 19.3957 41.2343C15.9068 41.2343 14.8351 42.8896 11.9389 42.9971C8.9517 43.1046 6.69416 40.1593 4.77867 37.558C0.879278 32.2479 -2.10797 22.466 1.90543 15.8874C3.88933 12.6197 7.44667 10.5558 11.3005 10.4913C14.2194 10.4483 17.0014 12.3617 18.8029 12.3617C20.5815 12.3617 23.9564 10.0613 27.491 10.4053C28.9732 10.4698 33.1234 10.9643 35.7914 14.662C35.5862 14.791 30.8431 17.4138 30.8887 22.853C30.9571 29.3455 36.9316 31.5169 37 31.5384C36.9316 31.6889 36.0423 34.6342 33.8531 37.6225ZM20.8324 3.22479C22.497 1.4404 25.2562 0.0859943 27.5366 0C27.833 2.51533 26.7613 5.05216 25.165 6.85804C23.5916 8.68542 20.992 10.1043 18.438 9.91084C18.0959 7.43851 19.3729 4.85868 20.8324 3.22479Z" fill="black"/>
</svg>
