<svg width="34" height="34" viewBox="0 0 34 34" fill="none" xmlns="http://www.w3.org/2000/svg">
<path d="M34 17.3904C34 16.2344 33.904 15.0735 33.7019 13.9369H17.3423V20.4821H26.7097C26.5164 21.5295 26.1095 22.5274 25.5137 23.4153C24.9178 24.3032 24.1454 25.0627 23.2431 25.6479V29.898H28.8335C32.1152 26.935 34 22.5635 34 17.3904Z" fill="#4285F4"/>
<path d="M17.3448 34C22.021 34 25.9656 32.4943 28.8383 29.8956L23.2505 25.6479C21.6958 26.6849 19.6878 27.2727 17.3497 27.2727C12.8262 27.2727 8.99004 24.2806 7.61278 20.2587H1.8475V24.6376C3.30015 27.4578 5.51753 29.8258 8.25329 31.4786C10.989 33.1314 14.1361 34.0042 17.3448 34Z" fill="#34A853"/>
<path d="M7.6054 20.2587C6.87887 18.1482 6.87887 15.8604 7.6054 13.7499V9.37103H1.84506C0.631999 11.7379 0 14.3525 0 17.0043C0 19.656 0.631999 22.2707 1.84506 24.6375L7.6054 20.2587Z" fill="#FBBC04"/>
<path d="M17.3448 6.72622C19.815 6.68675 22.2028 7.60209 23.997 9.27631L28.9492 4.42143C25.8019 1.53148 21.6457 -0.0516047 17.3448 0.00128374C14.1352 -0.00272458 10.9874 0.870935 8.25146 2.5251C5.51552 4.17926 3.29869 6.54909 1.8475 9.37103L7.60292 13.745C8.97279 9.71832 12.8163 6.72622 17.3398 6.72622H17.3448Z" fill="#EA4335"/>
</svg>
