<svg width="189" height="189" viewBox="0 0 189 189" fill="black" xmlns="http://www.w3.org/2000/svg">
<path fill-rule="evenodd" clip-rule="evenodd" d="M8.74033 68.6345C3.91305 68.6345 0 64.7936 0 60.0552V25.7379C0 12.4113 10.3176 1.45088 23.54 0.132878C24.4215 0.0450112 25.3159 0 26.221 0H61.1823C66.0096 0 69.9226 3.84096 69.9226 8.57931C69.9226 13.3177 65.2143 16.9026 60.387 16.9026H26.6827C21.8555 16.9026 16.8523 20.9996 16.8523 25.7379V60.0552C16.8523 64.7936 13.5676 68.6345 8.74033 68.6345ZM163.113 17.1586C167.875 17.1586 172.646 20.9996 172.646 25.7379V42.2563V60.0552C172.646 64.7936 175.596 68.6345 180.358 68.6345C185.12 68.6345 188.98 64.7936 188.98 60.0552V25.7379C188.98 11.5229 177.399 1.90735e-06 163.113 1.90735e-06H128.625C123.863 1.90735e-06 120.002 3.84096 120.002 8.57932C120.002 9.17161 120.063 9.74988 120.177 10.3084C120.981 14.2179 124.458 17.1586 128.625 17.1586H163.113ZM24.9781 170.077C20.5622 169.722 16.6244 166.744 16.6244 162.302V127.985C16.6244 123.246 13.3841 119.405 8.62222 119.405C8.3246 119.405 8.0305 119.42 7.74065 119.45C3.39288 119.889 2.58306e-06 123.542 2.58306e-06 127.985V162.302C2.58306e-06 176.517 11.5809 188.04 25.8666 188.04H60.3555C65.1174 188.04 68.9777 184.199 68.9777 179.46C68.9777 174.722 65.1174 170.113 60.3555 170.113H25.8666C25.569 170.113 25.2725 170.101 24.9781 170.077ZM103.939 78.2716C103.939 81.7765 107.814 84.6179 112.595 84.6179C117.375 84.6179 122.162 81.7765 122.162 78.2716V71.1559C122.839 71.2225 123.573 71.2572 124.368 71.2572H129.452H136.74V79.5549C136.74 83.9823 140.819 84.6179 145.852 84.6179C150.884 84.6179 154.963 83.9823 154.963 79.5549V66.2645C154.963 66.243 154.963 66.2215 154.963 66.2002C154.96 65.8797 154.936 65.5759 154.891 65.2882C154.897 65.2598 154.902 65.2313 154.908 65.2026C154.945 65.0018 154.964 64.7934 154.964 64.5769C154.964 60.8873 153.904 57.8965 146.524 57.8965H124.368C123.573 57.8965 122.839 57.9312 122.162 57.9978V52.8862C122.162 49.3813 125.126 46.5399 129.907 46.5399H147.674C154.964 46.5399 154.964 44.0325 154.964 40.5276C154.964 37.0226 154.964 33.8472 147.674 33.8472L129.907 33.8472C115.509 33.8472 109.094 33.8472 106.236 37.0356C103.939 39.5976 103.939 44.2184 103.939 52.5522V78.2716ZM41.974 154.193C37.5792 154.193 34.0164 150.404 34.0164 145.731V111.884C34.0164 107.794 36.7441 104.383 40.3702 103.594C40.8883 103.481 41.4246 103.422 41.974 103.422H76.4897L76.5041 103.422H76.5369C76.6236 103.422 76.71 103.423 76.796 103.426C81.0758 103.534 85.041 105.909 85.041 110.473C85.041 110.84 85.041 111.209 85.0356 111.579C85.0392 111.68 85.041 111.782 85.041 111.884V145.731C85.041 150.404 81.2337 154.193 76.5369 154.193C71.8401 154.193 68.0328 150.404 68.0328 145.731V124.576C68.0328 122.24 66.1287 120.345 63.7808 120.345H63.5565V125.987C63.5565 129.102 61.753 131.628 59.5282 131.628H59.528C57.3033 131.628 55.5 129.102 55.5 125.987V120.345H53.9049C51.71 120.349 49.9315 122.242 49.9315 124.576V135.158V145.731C49.9315 150.404 46.3688 154.193 41.974 154.193ZM108.939 154.193C107.171 154.193 106.066 154.193 105.316 153.884C105.065 153.781 104.854 153.643 104.671 153.46C103.939 152.728 103.939 151.55 103.939 149.193V108.422C103.939 106.065 103.939 104.886 104.671 104.154C105.403 103.422 106.582 103.422 108.939 103.422H117.546H149.964C152.725 103.422 154.964 105.66 154.964 108.422V112.525C154.964 115.286 152.725 117.525 149.964 117.525H117.546V123.166H149.964C152.725 123.166 154.964 125.405 154.964 128.166V129.448C154.964 132.21 152.725 134.448 149.964 134.448H117.546V140.09H152.464C153.844 140.09 154.964 141.209 154.964 142.59V151.693C154.964 153.073 153.844 154.193 152.464 154.193H117.546H108.939ZM188.98 127.985C188.98 123.246 185.12 119.405 180.358 119.405C175.596 119.405 172.646 123.246 172.646 127.985V144.759V162.302C172.646 167.04 167.711 170.113 162.949 170.113H128.314C123.552 170.113 120.002 174.722 120.002 179.46C120.002 184.199 123.862 188.04 128.625 188.04H163.113C177.4 188.04 188.98 176.517 188.98 162.302V127.985ZM83.1512 44.1894C83.1512 39.5161 79.3439 35.7276 74.6471 35.7276H40.6307C35.9341 35.7276 32.1266 39.5161 32.1266 44.1894V78.0365C32.1266 82.71 35.9341 86.4983 40.6307 86.4983H74.6471C76.1602 86.4983 77.4041 86.4685 78.4267 86.3772V89.6323C78.4267 90.4978 79.1318 91.1993 80.0015 91.1993H86.3009C87.1706 91.1993 87.8757 90.4978 87.8757 89.6323V83.3643C87.8757 82.4989 87.1706 81.7973 86.3009 81.7973H83.0837C83.1512 80.7758 83.1512 79.5371 83.1512 78.0365V44.1894ZM81.5764 85.7148C81.5764 85.6439 81.5858 85.5751 81.6036 85.5097C81.8388 85.3484 82.0382 85.1619 82.2073 84.9468C82.2579 84.9366 82.3102 84.9313 82.3638 84.9313H83.9386C84.3735 84.9313 84.726 85.2821 84.726 85.7148V87.2818C84.726 87.7145 84.3735 88.0653 83.9386 88.0653H82.3638C81.9289 88.0653 81.5764 87.7145 81.5764 87.2818V85.7148ZM66.143 56.882C66.143 54.5454 64.2393 52.6511 61.8909 52.6511H53.3868C51.0385 52.6511 49.1348 54.5454 49.1348 56.882V65.3438C49.1348 67.6805 51.0385 69.5747 53.3868 69.5747H61.8909C64.2393 69.5747 66.143 67.6805 66.143 65.3438V56.882Z" fill="black"/>
</svg>
