<svg width="274" height="89" viewBox="0 0 274 89" fill="none" xmlns="http://www.w3.org/2000/svg">
<path fill-rule="evenodd" clip-rule="evenodd" d="M205.732 70.2678C206.464 71 207.643 71 210 71H219.4H256.5C257.881 71 259 69.8807 259 68.5V58.5C259 57.1193 257.881 56 256.5 56H219.4V50H254C256.761 50 259 47.7614 259 45V43C259 40.2386 256.761 38 254 38H219.4V32H254C256.761 32 259 29.7614 259 27V22C259 19.2386 256.761 17 254 17H219.4H210C207.643 17 206.464 17 205.732 17.7322C205 18.4645 205 19.643 205 22V66C205 68.357 205 69.5355 205.732 70.2678Z" fill="url(#paint0_linear_87_305)"/>
<path fill-rule="evenodd" clip-rule="evenodd" d="M81.1607 71C76.1014 71 72 67.9779 72 64.25V36.8948C72 28.0146 72 23.0981 74.444 20.3762C77.4755 17 84.2671 17 99.4825 17L118.286 17.0001C126 17 126 20.3774 126 24.1053C126 27.8332 126 30.5 118.286 30.5H99.4821C94.4229 30.5 91.2857 33.5222 91.2857 37.25V42.6867C92.0021 42.6159 92.779 42.579 93.6206 42.579H117.068C124.879 42.579 126 45.76 126 49.6842C126 49.9475 125.974 50.1994 125.923 50.4408C125.973 50.7673 126 51.1131 126 51.4792V65.6149C126 70.324 121.682 71 116.357 71C111.031 71 106.714 70.324 106.714 65.6149V56.7895H99.0003H93.6206C92.779 56.7895 92.0021 56.7526 91.2857 56.6818V64.25C91.2857 67.9779 86.22 71 81.1607 71Z" fill="url(#paint1_linear_87_305)"/>
<path fill-rule="evenodd" clip-rule="evenodd" d="M153.422 71C148.771 71 145 66.9707 145 62V26C145 26 145 26 145 26C145 21.0293 148.771 17 153.422 17H189.95C189.955 17 189.96 17 189.965 17H190C190.092 17 190.183 17.0014 190.274 17.0041C194.804 17.119 199 19.645 199 24.5C199 24.8895 199 25.2824 198.994 25.6758C198.998 25.7834 199 25.8915 199 26V62C199 66.9707 194.971 71 190 71C185.029 71 181 66.9707 181 62V39.5C181 37.0147 178.985 35 176.5 35H176.263V40.9999C176.263 44.3137 174.354 46.9999 171.999 46.9999C169.645 46.9999 167.736 44.3137 167.736 40.9999V35H166.046C163.724 35.0045 161.843 37.0179 161.843 39.5V50.755V62C161.843 66.9707 158.073 71 153.422 71Z" fill="url(#paint2_linear_87_305)"/>
<path d="M267.396 11.25C267.396 10.041 266.791 8.97423 265.928 8.2216C265.067 7.47002 263.916 7 262.75 7L247.75 7C245.955 7 244.5 5.54498 244.5 3.75C244.5 1.95502 245.955 0.5 247.75 0.5L262.75 0.5C268.687 0.5 273.5 5.31277 273.5 11.25V26.25C273.5 28.045 272.045 29.5 270.25 29.5C269.361 29.5 268.661 29.1444 268.177 28.577C267.686 28.0022 267.396 27.1853 267.396 26.25V18.4702V11.25Z" fill="url(#paint3_linear_87_305)" stroke="#5077F4"/>
<path d="M270.25 59.5C272.045 59.5 273.5 60.955 273.5 62.75V77.75C273.5 83.6872 268.687 88.5 262.75 88.5H247.75C245.955 88.5 244.5 87.045 244.5 85.25C244.5 83.3732 245.895 81.6642 247.615 81.6642H262.678C263.815 81.6642 264.976 81.2976 265.863 80.6342C266.756 79.9667 267.396 78.976 267.396 77.75V70.0821V62.75C267.396 61.8147 267.686 60.9978 268.177 60.4231C268.661 59.8556 269.361 59.5 270.25 59.5Z" fill="url(#paint4_linear_87_305)" stroke="#5077F4"/>
<path d="M6.73034 77.75C6.73034 80.1971 9.01455 81.6642 11.25 81.6642H26.25C27.9917 81.6642 29.5 83.3986 29.5 85.25C29.5 87.045 28.0449 88.5 26.25 88.5H11.25C5.31295 88.5 0.5 83.6872 0.5 77.75V62.75C0.5 60.955 1.95509 59.5 3.75 59.5C5.49699 59.5 6.73034 60.9045 6.73034 62.75V77.75Z" fill="url(#paint5_linear_87_305)" stroke="#5077F4"/>
<path d="M3.75 29.5C1.95502 29.5 0.5 28.045 0.5 26.25L0.5 11.25C0.5 5.31277 5.31277 0.5 11.25 0.5L26.25 0.5C28.045 0.5 29.5 1.95502 29.5 3.75C29.5 5.47273 27.7821 6.88807 25.9088 6.88807L11.4481 6.88807C10.2742 6.88807 9.10493 7.39191 8.23056 8.16853C7.35604 8.94527 6.73042 10.0381 6.73042 11.25L6.73042 26.25C6.73042 28.0955 5.49707 29.5 3.75 29.5Z" fill="url(#paint6_linear_87_305)" stroke="#5077F4"/>
<path fill-rule="evenodd" clip-rule="evenodd" d="M72 68.6667C72 67.7462 71.2538 67 70.3333 67H63.6667C62.7462 67 62 67.7462 62 68.6667V75.3333C62 76.2538 62.7462 77 63.6667 77H70.3333C71.2538 77 72 76.2538 72 75.3333V68.6667ZM68.6667 71.1667C68.6667 70.7064 68.2936 70.3333 67.8333 70.3333H66.1667C65.7064 70.3333 65.3333 70.7064 65.3333 71.1667V72.8333C65.3333 73.2936 65.7064 73.6667 66.1667 73.6667H67.8333C68.2936 73.6667 68.6667 73.2936 68.6667 72.8333V71.1667Z" fill="url(#paint7_linear_87_305)"/>
<path fill-rule="evenodd" clip-rule="evenodd" d="M67 27C67 22.0295 62.9707 18 58 18H22C17.0295 18 13 22.0295 13 27V63C13 67.9707 17.0295 72 22 72H58C67 72 67 72 67 63V27ZM49 40.5C49 38.0147 46.9853 36 44.5 36H35.5C33.0147 36 31 38.0147 31 40.5V49.5C31 51.9853 33.0147 54 35.5 54H44.5C46.9853 54 49 51.9853 49 49.5V40.5Z" fill="url(#paint8_linear_87_305)"/>
<defs>
<linearGradient id="paint0_linear_87_305" x1="206" y1="71.5" x2="258.5" y2="18.5" gradientUnits="userSpaceOnUse">
<stop offset="0.226669" stop-color="#AF17F6"/>
<stop offset="0.334215" stop-color="#9531F6"/>
<stop offset="0.451693" stop-color="#784EF5"/>
<stop offset="0.539801" stop-color="#6F58F5"/>
<stop offset="0.643896" stop-color="#6561F5"/>
<stop offset="0.76967" stop-color="#5D69F5"/>
<stop offset="0.875" stop-color="#5077F4"/>
</linearGradient>
<linearGradient id="paint1_linear_87_305" x1="72" y1="71" x2="126" y2="16.9997" gradientUnits="userSpaceOnUse">
<stop offset="0.226669" stop-color="#AF17F6"/>
<stop offset="0.334215" stop-color="#9531F6"/>
<stop offset="0.451693" stop-color="#784EF5"/>
<stop offset="0.539801" stop-color="#6F58F5"/>
<stop offset="0.643896" stop-color="#6561F5"/>
<stop offset="0.76967" stop-color="#5D69F5"/>
<stop offset="0.875" stop-color="#5077F4"/>
</linearGradient>
<linearGradient id="paint2_linear_87_305" x1="145" y1="71" x2="195.369" y2="13.8023" gradientUnits="userSpaceOnUse">
<stop offset="0.22" stop-color="#AF17F6"/>
<stop offset="0.449681" stop-color="#784EF5"/>
<stop offset="0.529502" stop-color="#6F58F5"/>
<stop offset="0.59524" stop-color="#6561F5"/>
<stop offset="0.677137" stop-color="#5D69F5"/>
<stop offset="0.875" stop-color="#5077F4"/>
</linearGradient>
<linearGradient id="paint3_linear_87_305" x1="244" y1="30" x2="274.029" y2="0.0290021" gradientUnits="userSpaceOnUse">
<stop stop-color="#AF17F6"/>
<stop offset="0.449681" stop-color="#784EF5"/>
<stop offset="0.529502" stop-color="#6F58F5"/>
<stop offset="0.59524" stop-color="#6561F5"/>
<stop offset="0.677137" stop-color="#5D69F5"/>
<stop offset="0.875" stop-color="#5077F4"/>
</linearGradient>
<linearGradient id="paint4_linear_87_305" x1="244" y1="89" x2="272.684" y2="57.7908" gradientUnits="userSpaceOnUse">
<stop stop-color="#AF17F6"/>
<stop offset="0.449681" stop-color="#784EF5"/>
<stop offset="0.529502" stop-color="#6F58F5"/>
<stop offset="0.59524" stop-color="#6561F5"/>
<stop offset="0.677137" stop-color="#5D69F5"/>
<stop offset="0.875" stop-color="#5077F4"/>
</linearGradient>
<linearGradient id="paint5_linear_87_305" x1="-6.19668e-07" y1="88.5522" x2="30.155" y2="59.0291" gradientUnits="userSpaceOnUse">
<stop stop-color="#AF17F6"/>
<stop offset="0.449681" stop-color="#784EF5"/>
<stop offset="0.529502" stop-color="#6F58F5"/>
<stop offset="0.59524" stop-color="#6561F5"/>
<stop offset="0.677137" stop-color="#5D69F5"/>
<stop offset="0.875" stop-color="#5077F4"/>
</linearGradient>
<linearGradient id="paint6_linear_87_305" x1="9.13427e-07" y1="30" x2="29.5446" y2="-0.441974" gradientUnits="userSpaceOnUse">
<stop stop-color="#AF17F6"/>
<stop offset="0.449681" stop-color="#784EF5"/>
<stop offset="0.529502" stop-color="#6F58F5"/>
<stop offset="0.59524" stop-color="#6561F5"/>
<stop offset="0.677137" stop-color="#5D69F5"/>
<stop offset="0.875" stop-color="#5077F4"/>
</linearGradient>
<linearGradient id="paint7_linear_87_305" x1="62.0926" y1="76.9074" x2="72" y2="67.1852" gradientUnits="userSpaceOnUse">
<stop offset="0.226669" stop-color="#AF17F6"/>
<stop offset="0.334215" stop-color="#9531F6"/>
<stop offset="0.451693" stop-color="#784EF5"/>
<stop offset="0.539801" stop-color="#6F58F5"/>
<stop offset="0.643896" stop-color="#6561F5"/>
<stop offset="0.76967" stop-color="#5D69F5"/>
<stop offset="0.875" stop-color="#5077F4"/>
</linearGradient>
<linearGradient id="paint8_linear_87_305" x1="55.2712" y1="75.2373" x2="73.4068" y2="57.4407" gradientUnits="userSpaceOnUse">
<stop offset="0.226669" stop-color="#AF17F6"/>
<stop offset="0.334215" stop-color="#9531F6"/>
<stop offset="0.451693" stop-color="#784EF5"/>
<stop offset="0.539801" stop-color="#6F58F5"/>
<stop offset="0.643896" stop-color="#6561F5"/>
<stop offset="0.76967" stop-color="#5D69F5"/>
<stop offset="0.875" stop-color="#5077F4"/>
</linearGradient>
</defs>
</svg>
