<svg width="274" height="89" viewBox="0 0 274 89" fill="none" xmlns="http://www.w3.org/2000/svg">
<mask id="path-1-inside-1_59_970" fill="white">
<path fill-rule="evenodd" clip-rule="evenodd" d="M205.732 70.2678C206.464 71 207.643 71 210 71H219.4H256.5C257.881 71 259 69.8807 259 68.5V58.5C259 57.1193 257.881 56 256.5 56H219.4V50H254C256.761 50 259 47.7614 259 45V43C259 40.2386 256.761 38 254 38H219.4V32H254C256.761 32 259 29.7614 259 27V22C259 19.2386 256.761 17 254 17H219.4H210C207.643 17 206.464 17 205.732 17.7322C205 18.4645 205 19.643 205 22V66C205 68.357 205 69.5355 205.732 70.2678Z"/>
</mask>
<path fill-rule="evenodd" clip-rule="evenodd" d="M205.732 70.2678C206.464 71 207.643 71 210 71H219.4H256.5C257.881 71 259 69.8807 259 68.5V58.5C259 57.1193 257.881 56 256.5 56H219.4V50H254C256.761 50 259 47.7614 259 45V43C259 40.2386 256.761 38 254 38H219.4V32H254C256.761 32 259 29.7614 259 27V22C259 19.2386 256.761 17 254 17H219.4H210C207.643 17 206.464 17 205.732 17.7322C205 18.4645 205 19.643 205 22V66C205 68.357 205 69.5355 205.732 70.2678Z" fill="url(#paint0_linear_59_970)"/>
<path d="M205.732 70.2678L205.025 70.9749L205.025 70.9749L205.732 70.2678ZM219.4 56H218.4V57H219.4V56ZM219.4 50V49H218.4V50H219.4ZM219.4 38H218.4V39H219.4V38ZM219.4 32V31H218.4V32H219.4ZM210 70C208.793 70 207.989 69.9979 207.39 69.9174C206.82 69.8408 206.589 69.71 206.439 69.5607L205.025 70.9749C205.608 71.5578 206.332 71.7931 207.124 71.8996C207.886 72.0021 208.85 72 210 72V70ZM219.4 70H210V72H219.4V70ZM256.5 70H219.4V72H256.5V70ZM258 68.5C258 69.3284 257.328 70 256.5 70V72C258.433 72 260 70.433 260 68.5H258ZM258 58.5V68.5H260V58.5H258ZM256.5 57C257.328 57 258 57.6716 258 58.5H260C260 56.567 258.433 55 256.5 55V57ZM219.4 57H256.5V55H219.4V57ZM218.4 50V56H220.4V50H218.4ZM254 49H219.4V51H254V49ZM258 45C258 47.2091 256.209 49 254 49V51C257.314 51 260 48.3137 260 45H258ZM258 43V45H260V43H258ZM254 39C256.209 39 258 40.7909 258 43H260C260 39.6863 257.314 37 254 37V39ZM219.4 39H254V37H219.4V39ZM218.4 32V38H220.4V32H218.4ZM254 31H219.4V33H254V31ZM258 27C258 29.2091 256.209 31 254 31V33C257.314 33 260 30.3137 260 27H258ZM258 22V27H260V22H258ZM254 18C256.209 18 258 19.7909 258 22H260C260 18.6863 257.314 16 254 16V18ZM219.4 18H254V16H219.4V18ZM210 18H219.4V16H210V18ZM206.439 18.4393C206.589 18.29 206.82 18.1592 207.39 18.0826C207.989 18.0021 208.793 18 210 18V16C208.85 16 207.886 15.9979 207.124 16.1004C206.332 16.2069 205.608 16.4422 205.025 17.0251L206.439 18.4393ZM206 22C206 20.7932 206.002 19.9887 206.083 19.3901C206.159 18.8202 206.29 18.5887 206.439 18.4393L205.025 17.0251C204.442 17.608 204.207 18.3319 204.1 19.1236C203.998 19.8865 204 20.8498 204 22H206ZM206 66V22H204V66H206ZM206.439 69.5607C206.29 69.4113 206.159 69.1798 206.083 68.6099C206.002 68.0113 206 67.2068 206 66H204C204 67.1502 203.998 68.1135 204.1 68.8764C204.207 69.6681 204.442 70.392 205.025 70.9749L206.439 69.5607Z" fill="#5077F4" mask="url(#path-1-inside-1_59_970)"/>
<mask id="path-3-inside-2_59_970" fill="white">
<path fill-rule="evenodd" clip-rule="evenodd" d="M81.1607 71C76.1014 71 72 67.9779 72 64.25V36.8948C72 28.0146 72 23.0981 74.444 20.3762C77.4755 17 84.2671 17 99.4825 17L118.286 17.0001C126 17 126 20.3774 126 24.1053C126 27.8332 126 30.5 118.286 30.5H99.4821C94.4229 30.5 91.2857 33.5222 91.2857 37.25V42.6867C92.0021 42.6159 92.779 42.579 93.6206 42.579H117.068C124.879 42.579 126 45.76 126 49.6842C126 49.9475 125.974 50.1994 125.923 50.4408C125.973 50.7673 126 51.1131 126 51.4792V65.6149C126 70.324 121.682 71 116.357 71C111.031 71 106.714 70.324 106.714 65.6149V56.7895H99.0003H93.6206C92.779 56.7895 92.0021 56.7526 91.2857 56.6818V64.25C91.2857 67.9779 86.22 71 81.1607 71Z"/>
</mask>
<path fill-rule="evenodd" clip-rule="evenodd" d="M81.1607 71C76.1014 71 72 67.9779 72 64.25V36.8948C72 28.0146 72 23.0981 74.444 20.3762C77.4755 17 84.2671 17 99.4825 17L118.286 17.0001C126 17 126 20.3774 126 24.1053C126 27.8332 126 30.5 118.286 30.5H99.4821C94.4229 30.5 91.2857 33.5222 91.2857 37.25V42.6867C92.0021 42.6159 92.779 42.579 93.6206 42.579H117.068C124.879 42.579 126 45.76 126 49.6842C126 49.9475 125.974 50.1994 125.923 50.4408C125.973 50.7673 126 51.1131 126 51.4792V65.6149C126 70.324 121.682 71 116.357 71C111.031 71 106.714 70.324 106.714 65.6149V56.7895H99.0003H93.6206C92.779 56.7895 92.0021 56.7526 91.2857 56.6818V64.25C91.2857 67.9779 86.22 71 81.1607 71Z" fill="url(#paint1_linear_59_970)"/>
<path d="M74.444 20.3762L73.7 19.7081L73.7 19.7081L74.444 20.3762ZM99.4825 17L99.4825 16H99.4825V17ZM118.286 17.0001L118.286 18.0001L118.286 18.0001L118.286 17.0001ZM91.2857 42.6867H90.2857V43.7905L91.3841 43.6819L91.2857 42.6867ZM125.923 50.4408L124.945 50.2322L124.906 50.4122L124.935 50.5941L125.923 50.4408ZM106.714 56.7895H107.714V55.7895H106.714V56.7895ZM91.2857 56.6818L91.3841 55.6866L90.2857 55.578V56.6818H91.2857ZM71 64.25C71 66.507 72.2437 68.4676 74.0899 69.828C75.9365 71.1887 78.4397 72 81.1607 72V70C78.8224 70 76.7453 69.3003 75.2763 68.2179C73.807 67.1353 73 65.7209 73 64.25H71ZM71 36.8948V64.25H73V36.8948H71ZM73.7 19.7081C72.2696 21.301 71.6255 23.4628 71.3119 26.2128C70.9985 28.962 71 32.4779 71 36.8948H73C73 32.4315 73.0015 29.0491 73.2991 26.4394C73.5965 23.8307 74.1744 22.1733 75.1881 21.0443L73.7 19.7081ZM99.4825 16C91.8999 16 86.3333 15.9986 82.2888 16.4276C78.2653 16.8544 75.4788 17.7269 73.7 19.7081L75.1881 21.0443C76.4407 19.6493 78.5657 18.8337 82.4998 18.4164C86.4128 18.0014 91.8497 18 99.4825 18V16ZM118.286 16.0001L99.4825 16L99.4825 18L118.286 18.0001L118.286 16.0001ZM127 24.1053C127 23.1895 127.002 22.205 126.869 21.2805C126.735 20.3441 126.455 19.3958 125.841 18.562C124.585 16.8549 122.232 16 118.286 16.0001L118.286 18.0001C122.054 18 123.558 18.8339 124.23 19.7474C124.581 20.224 124.783 20.819 124.89 21.5643C124.998 22.3215 125 23.1572 125 24.1053H127ZM118.286 31.5C122.169 31.5 124.52 30.849 125.797 29.3489C126.439 28.595 126.73 27.7156 126.868 26.831C127.002 25.9654 127 25.0171 127 24.1053H125C125 25.0575 124.998 25.8405 124.891 26.5234C124.788 27.1873 124.597 27.6736 124.274 28.0524C123.623 28.8176 122.116 29.5 118.286 29.5V31.5ZM99.4821 31.5H118.286V29.5H99.4821V31.5ZM92.2857 37.25C92.2857 34.2084 94.8309 31.5 99.4821 31.5V29.5C94.0148 29.5 90.2857 32.8359 90.2857 37.25H92.2857ZM92.2857 42.6867V37.25H90.2857V42.6867H92.2857ZM91.3841 43.6819C92.0642 43.6147 92.808 43.579 93.6206 43.579V41.579C92.75 41.579 91.94 41.6172 91.1873 41.6916L91.3841 43.6819ZM93.6206 43.579H117.068V41.579H93.6206V43.579ZM117.068 43.579C120.881 43.579 122.775 44.363 123.748 45.359C124.715 46.3487 125 47.7747 125 49.6842H127C127 47.6695 126.725 45.5429 125.178 43.9611C123.639 42.3855 121.067 41.579 117.068 41.579V43.579ZM125 49.6842C125 49.8811 124.981 50.0629 124.945 50.2322L126.901 50.6494C126.968 50.3358 127 50.0139 127 49.6842H125ZM124.935 50.5941C124.977 50.8662 125 51.1606 125 51.4792H127C127 51.0655 126.97 50.6683 126.911 50.2875L124.935 50.5941ZM125 51.4792V65.6149H127V51.4792H125ZM125 65.6149C125 66.6354 124.768 67.356 124.412 67.885C124.055 68.416 123.519 68.834 122.777 69.1561C121.243 69.822 119.025 70 116.357 70V72C119.014 72 121.617 71.84 123.574 70.9906C124.577 70.5551 125.453 69.9212 126.072 69.001C126.692 68.0788 127 66.949 127 65.6149H125ZM116.357 70C113.688 70 111.47 69.822 109.936 69.1561C109.194 68.834 108.659 68.416 108.301 67.885C107.946 67.356 107.714 66.6354 107.714 65.6149H105.714C105.714 66.949 106.022 68.0788 106.642 69.001C107.261 69.9212 108.137 70.5551 109.14 70.9906C111.096 71.84 113.699 72 116.357 72V70ZM107.714 65.6149V56.7895H105.714V65.6149H107.714ZM106.714 55.7895H99.0003V57.7895H106.714V55.7895ZM99.0003 55.7895H93.6206V57.7895H99.0003V55.7895ZM93.6206 55.7895C92.808 55.7895 92.0642 55.7538 91.3841 55.6866L91.1873 57.6769C91.94 57.7513 92.75 57.7895 93.6206 57.7895V55.7895ZM92.2857 64.25V56.6818H90.2857V64.25H92.2857ZM81.1607 72C83.8745 72 86.5949 71.1934 88.6615 69.864C90.7046 68.5496 92.2857 66.5939 92.2857 64.25H90.2857C90.2857 65.634 89.3339 67.0533 87.5794 68.182C85.8483 69.2956 83.5062 70 81.1607 70V72Z" fill="#5077F4" mask="url(#path-3-inside-2_59_970)"/>
<mask id="path-5-inside-3_59_970" fill="white">
<path fill-rule="evenodd" clip-rule="evenodd" d="M153.422 71C148.771 71 145 66.9707 145 62V26C145 26 145 26 145 26C145 21.0293 148.771 17 153.422 17H189.95C189.955 17 189.96 17 189.965 17L190 17C190.092 17 190.183 17.0014 190.274 17.0041C194.804 17.119 199 19.645 199 24.5C199 24.8895 199 25.2824 198.994 25.6758C198.998 25.7834 199 25.8915 199 26V62C199 66.9707 194.971 71 190 71C185.029 71 181 66.9707 181 62V39.5C181 37.0147 178.985 35 176.5 35H176.263V40.9999C176.263 44.3137 174.354 46.9999 171.999 46.9999C169.645 46.9999 167.736 44.3137 167.736 40.9999V35H166.046C163.724 35.0045 161.843 37.0179 161.843 39.5V50.755V62C161.843 66.9707 158.073 71 153.422 71Z"/>
</mask>
<path fill-rule="evenodd" clip-rule="evenodd" d="M153.422 71C148.771 71 145 66.9707 145 62V26C145 26 145 26 145 26C145 21.0293 148.771 17 153.422 17H189.95C189.955 17 189.96 17 189.965 17L190 17C190.092 17 190.183 17.0014 190.274 17.0041C194.804 17.119 199 19.645 199 24.5C199 24.8895 199 25.2824 198.994 25.6758C198.998 25.7834 199 25.8915 199 26V62C199 66.9707 194.971 71 190 71C185.029 71 181 66.9707 181 62V39.5C181 37.0147 178.985 35 176.5 35H176.263V40.9999C176.263 44.3137 174.354 46.9999 171.999 46.9999C169.645 46.9999 167.736 44.3137 167.736 40.9999V35H166.046C163.724 35.0045 161.843 37.0179 161.843 39.5V50.755V62C161.843 66.9707 158.073 71 153.422 71Z" fill="url(#paint2_linear_59_970)"/>
<path d="M189.965 17L189.964 18L189.965 18L189.965 17ZM190 17L190 16L190 17ZM190.274 17.0041L190.244 18.0037L190.249 18.0038L190.274 17.0041ZM198.994 25.6758L197.994 25.6613L197.994 25.6863L197.995 25.7112L198.994 25.6758ZM176.263 35V34H175.263V35H176.263ZM167.736 35H168.736V34H167.736V35ZM166.046 35L166.046 34L166.044 34L166.046 35ZM144 62C144 67.4594 148.157 72 153.422 72V70C149.384 70 146 66.482 146 62H144ZM144 26V62H146V26H144ZM146 26C146 26 146 26 146 26C146 26 146 26 146 26C146 26 146 26 146 26C146 26 146 26 146 26C146 26 146 26 146 26C146 26 146 26 146 26C146 26 146 26 146 26C146 26 146 26 146 26C146 26 146 26 146 26C146 26 146 26 146 26C146 26 146 26 146 26C146 26 146 26 146 26C146 26 146 26 146 26C146 26 146 26 146 26C146 26 146 26 146 26C146 26 146 26 146 26C146 26 146 26 146 26C146 26 146 26 146 26C146 26 146 26 146 26C146 26 146 26 146 26C146 26 146 26 146 26C146 26 146 26 146 26C146 26 146 26 146 26C146 26 146 26 146 26C146 26 146 26 146 26C146 26 146 26 146 26C146 26 146 26 146 26C146 26 146 26 146 26C146 26 146 26 146 26C146 26 146 26 146 26C146 26 146 26 146 26C146 26 146 26 146 26C146 26 146 26 146 26C146 26 146 26 146 26C146 26 146 26 146 26C146 26 146 26 146 26C146 26 146 26 146 26C146 26 146 26 146 26C146 26 146 26 146 26C146 26 146 26 146 26C146 26 146 26 146 26C146 26 146 26 146 26C146 26 146 26 146 26C146 26 146 26 146 26C146 26 146 26 146 26C146 26 146 26 146 26C146 26 146 26 146 26C146 26 146 26 146 26C146 26 146 26 146 26C146 26 146 26 146 26C146 26 146 26 146 26C146 26 146 26 146 26C146 26 146 26 146 26C146 26 146 26 146 26C146 26 146 26 146 26C146 26 146 26 146 26C146 26 146 26 146 26C146 26 146 26 146 26C146 26 146 26 146 26C146 26 146 26 146 26C146 26 146 26 146 26C146 26 146 26 146 26C146 26 146 26 146 26C146 26 146 26 146 26C146 26 146 26 146 26C146 26 146 26 146 26C146 26 146 26 146 26C146 26 146 26 146 26C146 26 146 26 146 26C146 26 146 26 146 26C146 26 146 26 146 26C146 26 146 26 146 26C146 26 146 26 146 26C146 26 146 26 146 26C146 26 146 26 146 26C146 26 146 26 146 26C146 26 146 26 146 26C146 26 146 26 146 26C146 26 146 26 146 26C146 26 146 26 146 26C146 26 146 26 146 26C146 26 146 26 146 26C146 26 146 26 146 26C146 26 146 26 146 26C146 26 146 26 146 26C146 26 146 26 146 26C146 26 146 26 146 26C146 26 146 26 146 26C146 26 146 26 146 26C146 26 146 26 146 26C146 26 146 26 146 26C146 26 146 26 146 26C146 26 146 26 146 26C146 26 146 26 146 26C146 26 146 26 146 26C146 26 146 26 146 26C146 26 146 26 146 26C146 26 146 26 146 26C146 26 146 26 146 26C146 26 146 26 146 26C146 26 146 26 146 26C146 26 146 26 146 26C146 26 146 26 146 26C146 26 146 26 146 26C146 26 146 26 146 26C146 26 146 26 146 26C146 26 146 26 146 26C146 26 146 26 146 26C146 26 146 26 146 26C146 26 146 26 146 26C146 26 146 26 146 26C146 26 146 26 146 26C146 26 146 26 146 26C146 26 146 26 146 26C146 26 146 26 146 26C146 26 146 26 146 26C146 26 146 26 146 26C146 26 146 26 146 26C146 26 146 26 146 26C146 26 146 26 146 26C146 26 146 26 146 26C146 26 146 26 146 26C146 26 146 26 146 26C146 26 146 26 146 26C146 26 146 26 146 26C146 26 146 26 146 26C146 26 146 26 146 26C146 26 146 26 146 26C146 26 146 26 146 26C146 26 146 26 146 26C146 26 146 26 146 26C146 26 146 26 146 26C146 26 146 26 146 26C146 26 146 26 146 26C146 26 146 26 146 26C146 26 146 26 146 26C146 26 146 26 146 26C146 26 146 26 146 26C146 26 146 26 146 26C146 26 146 26 146 26C146 26 146 26 146 26C146 26 146 26 146 26C146 26 146 26 146 26C146 26 146 26 146 26C146 26 146 26 146 26C146 26 146 26 146 26C146 26 146 26 146 26C146 26 146 26 146 26C146 26 146 26 146 26C146 26 146 26 146 26C146 26 146 26 146 26C146 26 146 26 146 26C146 26 146 26 146 26C146 26 146 26 146 26C146 26 146 26 146 26C146 26 146 26 146 26C146 26 146 26 146 26C146 26 146 26 146 26C146 26 146 26 146 26C146 26 146 26 146 26C146 26 146 26 146 26C146 26 146 26 146 26C146 26 146 26 146 26C146 26 146 26 146 26C146 26 146 26 146 26C146 26 146 26 146 26C146 26 146 26 146 26C146 26 146 26 146 26C146 26 146 26 146 26C146 26 146 26 146 26C146 26 146 26 146 26C146 26 146 26 146 26C146 26 146 26 146 26C146 26 146 26 146 26C146 26 146 26 146 26C146 26 146 26 146 26C146 26 146 26 146 26C146 26 146 26 146 26C146 26 146 26 146 26C146 26 146 26 146 26C146 26 146 26 146 26C146 26 146 26 146 26C146 26 146 26 146 26C146 26 146 26 146 26C146 26 146 26 146 26C146 26 146 26 146 26C146 26 146 26 146 26C146 26 146 26 146 26C146 26 146 26 146 26C146 26 146 26 146 26C146 26 146 26 146 26C146 26 146 26 146 26C146 26 146 26 146 26C146 26 146 26 146 26C146 26 146 26 146 26C146 26 146 26 146 26C146 26 146 26 146 26C146 26 146 26 146 26C146 26 146 26 146 26C146 26 146 26 146 26C146 26 146 26 146 26C146 26 146 26 146 26C146 26 146 26 146 26C146 26 146 26 146 26C146 26 146 26 146 26C146 26 146 26 146 26C146 26 146 26 146 26C146 26 146 26 146 26C146 26 146 26 146 26C146 26 146 26 146 26C146 26 146 26 146 26C146 26 146 26 146 26C146 26 146 26 146 26C146 26 146 26 146 26C146 26 146 26 146 26C146 26 146 26 146 26C146 26 146 26 146 26C146 26 146 26 146 26C146 26 146 26 146 26C146 26 146 26 146 26C146 26 146 26 146 26C146 26 146 26 146 26C146 26 146 26 146 26C146 26 146 26 146 26C146 26 146 26 146 26C146 26 146 26 146 26C146 26 146 26 146 26C146 26 146 26 146 26C146 26 146 26 146 26C146 26 146 26 146 26C146 26 146 26 146 26C146 26 146 26 146 26C146 26 146 26 146 26C146 26 146 26 146 26C146 26 146 26 146 26C146 26 146 26 146 26C146 26 146 26 146 26C146 26 146 26 146 26C146 26 146 26 146 26C146 26 146 26 146 26C146 26 146 26 146 26C146 26 146 26 146 26C146 26 146 26 146 26C146 26 146 26 146 26C146 26 146 26 146 26C146 26 146 26 146 26C146 26 146 26 146 26C146 26 146 26 146 26C146 26 146 26 146 26C146 26 146 26 146 26C146 26 146 26 146 26C146 26 146 26 146 26C146 26 146 26 146 26C146 26 146 26 146 26C146 26 146 26 146 26C146 26 146 26 146 26C146 26 146 26 146 26C146 26 146 26 146 26C146 26 146 26 146 26C146 26 146 26 146 26C146 26 146 26 146 26C146 26 146 26 146 26C146 26 146 26 146 26C146 26 146 26 146 26C146 26 146 26 146 26C146 26 146 26 146 26C146 26 146 26 146 26C146 26 146 26 146 26C146 26 146 26 146 26C146 26 146 26 146 26C146 26 146 26 146 26C146 26 146 26 146 26C146 26 146 26 146 26C146 26 146 26 146 26C146 26 146 26 146 26C146 26 146 26 146 26C146 26 146 26 146 26C146 26 146 26 146 26C146 26 146 26 146 26C146 26 146 26 146 26C146 26 146 26 146 26C146 26 146 26 146 26C146 26 146 26 146 26C146 26 146 26 146 26C146 26 146 26 146 26C146 26 146 26 146 26C146 26 146 26 146 26C146 26 146 26 146 26C146 26 146 26 146 26C146 26 146 26 146 26C146 26 146 26 146 26C146 26 146 26 146 26C146 26 146 26 146 26C146 26 146 26 146 26C146 26 146 26 146 26C146 26 146 26 146 26C146 26 146 26 146 26C146 26 146 26 146 26C146 26 146 26 146 26C146 26 146 26 146 26C146 26 146 26 146 26C146 26 146 26 146 26C146 26 146 26 146 26C146 26 146 26 146 26C146 26 146 26 146 26C146 26 146 26 146 26C146 26 146 26 146 26C146 26 146 26 146 26C146 26 146 26 146 26C146 26 146 26 146 26C146 26 146 26 146 26C146 26 146 26 146 26C146 26 146 26 146 26C146 26 146 26 146 26C146 26 146 26 146 26C146 26 146 26 146 26C146 26 146 26 146 26C146 26 146 26 146 26C146 26 146 26 146 26C146 26 146 26 146 26C146 26 146 26 146 26C146 26 146 26 146 26C146 26 146 26 146 26C146 26 146 26 146 26C146 26 146 26 146 26C146 26 146 26 146 26C146 26 146 26 146 26C146 26 146 26 146 26C146 26 146 26 146 26C146 26 146 26 146 26C146 26 146 26 146 26C146 26 146 26 146 26C146 26 146 26 146 26C146 26 146 26 146 26C146 26 146 26 146 26C146 26 146 26 146 26C146 26 146 26 146 26C146 26 146 26 146 26C146 26 146 26 146 26C146 26 146 26 146 26C146 26 146 26 146 26C146 26 146 26 146 26C146 26 146 26 146 26C146 26 146 26 146 26C146 26 146 26 146 26C146 26 146 26 146 26C146 26 146 26 146 26C146 26 146 26 146 26C146 26 146 26 146 26C146 26 146 26 146 26C146 26 146 26 146 26C146 26 146 26 146 26C146 26 146 26 146 26C146 26 146 26 146 26C146 26 146 26 146 26C146 26 146 26 146 26C146 26 146 26 146 26C146 26 146 26 146 26C146 26 146 26 146 26C146 26 146 26 146 26C146 26 146 26 146 26C146 26 146 26 146 26C146 26 146 26 146 26C146 26 146 26 146 26C146 26 146 26 146 26C146 26 146 26 146 26C146 26 146 26 146 26C146 26 146 26 146 26C146 26 146 26 146 26C146 26 146 26 146 26C146 26 146 26 146 26C146 26 146 26 146 26C146 26 146 26 146 26C146 26 146 26 146 26C146 26 146 26 146 26C146 26 146 26 146 26C146 26 146 26 146 26C146 26 146 26 146 26C146 26 146 26 146 26C146 26 146 26 146 26C146 26 146 26 146 26C146 26 146 26 146 26C146 26 146 26 146 26C146 26 146 26 146 26C146 26 146 26 146 26C146 26 146 26 146 26C146 26 146 26 146 26C146 26 146 26 146 26C146 26 146 26 146 26C146 26 146 26 146 26C146 26 146 26 146 26C146 26 146 26 146 26C146 26 146 26 146 26C146 26 146 26 146 26C146 26 146 26 146 26C146 26 146 26 146 26C146 26 146 26 146 26C146 26 146 26 146 26C146 26 146 26 146 26C146 26 146 26 146 26C146 26 146 26 146 26C146 26 146 26 146 26C146 26 146 26 146 26C146 26 146 26 146 26C146 26 146 26 146 26C146 26 146 26 146 26C146 26 146 26 146 26C146 26 146 26 146 26C146 26 146 26 146 26C146 26 146 26 146 26C146 26 146 26 146 26C146 26 146 26 146 26C146 26 146 26 146 26C146 26 146 26 146 26C146 26 146 26 146 26C146 26 146 26 146 26C146 26 146 26 146 26C146 26 146 26 146 26C146 26 146 26 146 26C146 26 146 26 146 26C146 26 146 26 146 26C146 26 146 26 146 26C146 26 146 26 146 26C146 26 146 26 146 26C146 26 146 26 146 26C146 26 146 26 146 26C146 26 146 26 146 26C146 26 146 26 146 26C146 26 146 26 146 26C146 26 146 26 146 26C146 26 146 26 146 26C146 26 146 26 146 26C146 26 146 26 146 26C146 26 146 26 146 26C146 26 146 26 146 26C146 26 146 26 146 26C146 26 146 26 146 26C146 26 146 26 146 26C146 26 146 26 146 26C146 26 146 26 146 26C146 26 146 26 146 26C146 26 146 26 146 26C146 26 146 26 146 26C146 26 146 26 146 26C146 26 146 26 146 26C146 26 146 26 146 26C146 26 146 26 146 26C146 26 146 26 146 26C146 26 146 26 146 26C146 26 146 26 146 26C146 26 146 26 146 26C146 26 146 26 146 26C146 26 146 26 146 26C146 26 146 26 146 26C146 26 146 26 146 26C146 26 146 26 146 26C146 26 146 26 146 26C146 26 146 26 146 26C146 26 146 26 146 26C146 26 146 26 146 26C146 26 146 26 146 26C146 26 146 26 146 26C146 26 146 26 146 26C146 26 146 26 146 26C146 26 146 26 146 26C146 26 146 26 146 26C146 26 146 26 146 26C146 26 146 26 146 26C146 26 146 26 146 26C146 26 146 26 146 26C146 26 146 26 146 26C146 26 146 26 146 26C146 26 146 26 146 26C146 26 146 26 146 26C146 26 146 26 146 26C146 26 146 26 146 26C146 26 146 26 146 26C146 26 146 26 146 26C146 26 146 26 146 26C146 26 146 26 146 26C146 26 146 26 146 26C146 26 146 26 146 26C146 26 146 26 146 26C146 26 146 26 146 26C146 26 146 26 146 26C146 26 146 26 146 26C146 26 146 26 146 26C146 26 146 26 146 26C146 26 146 26 146 26C146 26 146 26 146 26C146 26 146 26 146 26C146 26 146 26 146 26C146 26 146 26 146 26C146 26 146 26 146 26C146 26 146 26 146 26C146 26 146 26 146 26C146 26 146 26 146 26C146 26 146 26 146 26C146 26 146 26 146 26C146 26 146 26 146 26C146 26 146 26 146 26C146 26 146 26 146 26C146 26 146 26 146 26C146 26 146 26 146 26C146 26 146 26 146 26C146 26 146 26 146 26C146 26 146 26 146 26C146 26 146 26 146 26C146 26 146 26 146 26C146 26 146 26 146 26C146 26 146 26 146 26C146 26 146 26 146 26H144C144 26 144 26 144 26C144 26 144 26 144 26C144 26 144 26 144 26C144 26 144 26 144 26C144 26 144 26 144 26C144 26 144 26 144 26C144 26 144 26 144 26C144 26 144 26 144 26C144 26 144 26 144 26C144 26 144 26 144 26C144 26 144 26 144 26C144 26 144 26 144 26C144 26 144 26 144 26C144 26 144 26 144 26C144 26 144 26 144 26C144 26 144 26 144 26C144 26 144 26 144 26C144 26 144 26 144 26C144 26 144 26 144 26C144 26 144 26 144 26C144 26 144 26 144 26C144 26 144 26 144 26C144 26 144 26 144 26C144 26 144 26 144 26C144 26 144 26 144 26C144 26 144 26 144 26C144 26 144 26 144 26C144 26 144 26 144 26C144 26 144 26 144 26C144 26 144 26 144 26C144 26 144 26 144 26C144 26 144 26 144 26C144 26 144 26 144 26C144 26 144 26 144 26C144 26 144 26 144 26C144 26 144 26 144 26C144 26 144 26 144 26C144 26 144 26 144 26C144 26 144 26 144 26C144 26 144 26 144 26C144 26 144 26 144 26C144 26 144 26 144 26C144 26 144 26 144 26C144 26 144 26 144 26C144 26 144 26 144 26C144 26 144 26 144 26C144 26 144 26 144 26C144 26 144 26 144 26C144 26 144 26 144 26C144 26 144 26 144 26C144 26 144 26 144 26C144 26 144 26 144 26C144 26 144 26 144 26C144 26 144 26 144 26C144 26 144 26 144 26C144 26 144 26 144 26C144 26 144 26 144 26C144 26 144 26 144 26C144 26 144 26 144 26C144 26 144 26 144 26C144 26 144 26 144 26C144 26 144 26 144 26C144 26 144 26 144 26C144 26 144 26 144 26C144 26 144 26 144 26C144 26 144 26 144 26C144 26 144 26 144 26C144 26 144 26 144 26C144 26 144 26 144 26C144 26 144 26 144 26C144 26 144 26 144 26C144 26 144 26 144 26C144 26 144 26 144 26C144 26 144 26 144 26C144 26 144 26 144 26C144 26 144 26 144 26C144 26 144 26 144 26C144 26 144 26 144 26C144 26 144 26 144 26C144 26 144 26 144 26C144 26 144 26 144 26C144 26 144 26 144 26C144 26 144 26 144 26C144 26 144 26 144 26C144 26 144 26 144 26C144 26 144 26 144 26C144 26 144 26 144 26C144 26 144 26 144 26C144 26 144 26 144 26C144 26 144 26 144 26C144 26 144 26 144 26C144 26 144 26 144 26C144 26 144 26 144 26C144 26 144 26 144 26C144 26 144 26 144 26C144 26 144 26 144 26C144 26 144 26 144 26C144 26 144 26 144 26C144 26 144 26 144 26C144 26 144 26 144 26C144 26 144 26 144 26C144 26 144 26 144 26C144 26 144 26 144 26C144 26 144 26 144 26C144 26 144 26 144 26C144 26 144 26 144 26C144 26 144 26 144 26C144 26 144 26 144 26C144 26 144 26 144 26C144 26 144 26 144 26C144 26 144 26 144 26C144 26 144 26 144 26C144 26 144 26 144 26C144 26 144 26 144 26C144 26 144 26 144 26C144 26 144 26 144 26C144 26 144 26 144 26C144 26 144 26 144 26C144 26 144 26 144 26C144 26 144 26 144 26C144 26 144 26 144 26C144 26 144 26 144 26C144 26 144 26 144 26C144 26 144 26 144 26C144 26 144 26 144 26C144 26 144 26 144 26C144 26 144 26 144 26C144 26 144 26 144 26C144 26 144 26 144 26C144 26 144 26 144 26C144 26 144 26 144 26C144 26 144 26 144 26C144 26 144 26 144 26C144 26 144 26 144 26C144 26 144 26 144 26C144 26 144 26 144 26C144 26 144 26 144 26C144 26 144 26 144 26C144 26 144 26 144 26C144 26 144 26 144 26C144 26 144 26 144 26C144 26 144 26 144 26C144 26 144 26 144 26C144 26 144 26 144 26C144 26 144 26 144 26C144 26 144 26 144 26C144 26 144 26 144 26C144 26 144 26 144 26C144 26 144 26 144 26C144 26 144 26 144 26C144 26 144 26 144 26C144 26 144 26 144 26C144 26 144 26 144 26C144 26 144 26 144 26C144 26 144 26 144 26C144 26 144 26 144 26C144 26 144 26 144 26C144 26 144 26 144 26C144 26 144 26 144 26C144 26 144 26 144 26C144 26 144 26 144 26C144 26 144 26 144 26C144 26 144 26 144 26C144 26 144 26 144 26C144 26 144 26 144 26C144 26 144 26 144 26C144 26 144 26 144 26C144 26 144 26 144 26C144 26 144 26 144 26C144 26 144 26 144 26C144 26 144 26 144 26C144 26 144 26 144 26C144 26 144 26 144 26C144 26 144 26 144 26C144 26 144 26 144 26C144 26 144 26 144 26C144 26 144 26 144 26C144 26 144 26 144 26C144 26 144 26 144 26C144 26 144 26 144 26C144 26 144 26 144 26C144 26 144 26 144 26C144 26 144 26 144 26C144 26 144 26 144 26C144 26 144 26 144 26C144 26 144 26 144 26C144 26 144 26 144 26C144 26 144 26 144 26C144 26 144 26 144 26C144 26 144 26 144 26C144 26 144 26 144 26C144 26 144 26 144 26C144 26 144 26 144 26C144 26 144 26 144 26C144 26 144 26 144 26C144 26 144 26 144 26C144 26 144 26 144 26C144 26 144 26 144 26C144 26 144 26 144 26C144 26 144 26 144 26C144 26 144 26 144 26C144 26 144 26 144 26C144 26 144 26 144 26C144 26 144 26 144 26C144 26 144 26 144 26C144 26 144 26 144 26C144 26 144 26 144 26C144 26 144 26 144 26C144 26 144 26 144 26C144 26 144 26 144 26C144 26 144 26 144 26C144 26 144 26 144 26C144 26 144 26 144 26C144 26 144 26 144 26C144 26 144 26 144 26C144 26 144 26 144 26C144 26 144 26 144 26C144 26 144 26 144 26C144 26 144 26 144 26C144 26 144 26 144 26C144 26 144 26 144 26C144 26 144 26 144 26C144 26 144 26 144 26C144 26 144 26 144 26C144 26 144 26 144 26C144 26 144 26 144 26C144 26 144 26 144 26C144 26 144 26 144 26C144 26 144 26 144 26C144 26 144 26 144 26C144 26 144 26 144 26C144 26 144 26 144 26C144 26 144 26 144 26C144 26 144 26 144 26C144 26 144 26 144 26C144 26 144 26 144 26C144 26 144 26 144 26C144 26 144 26 144 26C144 26 144 26 144 26C144 26 144 26 144 26C144 26 144 26 144 26C144 26 144 26 144 26C144 26 144 26 144 26C144 26 144 26 144 26C144 26 144 26 144 26C144 26 144 26 144 26C144 26 144 26 144 26C144 26 144 26 144 26C144 26 144 26 144 26C144 26 144 26 144 26C144 26 144 26 144 26C144 26 144 26 144 26C144 26 144 26 144 26C144 26 144 26 144 26C144 26 144 26 144 26C144 26 144 26 144 26C144 26 144 26 144 26C144 26 144 26 144 26C144 26 144 26 144 26C144 26 144 26 144 26C144 26 144 26 144 26C144 26 144 26 144 26C144 26 144 26 144 26C144 26 144 26 144 26C144 26 144 26 144 26C144 26 144 26 144 26C144 26 144 26 144 26C144 26 144 26 144 26C144 26 144 26 144 26C144 26 144 26 144 26C144 26 144 26 144 26C144 26 144 26 144 26C144 26 144 26 144 26C144 26 144 26 144 26C144 26 144 26 144 26C144 26 144 26 144 26C144 26 144 26 144 26C144 26 144 26 144 26C144 26 144 26 144 26C144 26 144 26 144 26C144 26 144 26 144 26C144 26 144 26 144 26C144 26 144 26 144 26C144 26 144 26 144 26C144 26 144 26 144 26C144 26 144 26 144 26C144 26 144 26 144 26C144 26 144 26 144 26C144 26 144 26 144 26C144 26 144 26 144 26C144 26 144 26 144 26C144 26 144 26 144 26C144 26 144 26 144 26C144 26 144 26 144 26C144 26 144 26 144 26C144 26 144 26 144 26C144 26 144 26 144 26C144 26 144 26 144 26C144 26 144 26 144 26C144 26 144 26 144 26C144 26 144 26 144 26C144 26 144 26 144 26C144 26 144 26 144 26C144 26 144 26 144 26C144 26 144 26 144 26C144 26 144 26 144 26C144 26 144 26 144 26C144 26 144 26 144 26C144 26 144 26 144 26C144 26 144 26 144 26C144 26 144 26 144 26C144 26 144 26 144 26C144 26 144 26 144 26C144 26 144 26 144 26C144 26 144 26 144 26C144 26 144 26 144 26C144 26 144 26 144 26C144 26 144 26 144 26C144 26 144 26 144 26C144 26 144 26 144 26C144 26 144 26 144 26C144 26 144 26 144 26C144 26 144 26 144 26C144 26 144 26 144 26C144 26 144 26 144 26C144 26 144 26 144 26C144 26 144 26 144 26C144 26 144 26 144 26C144 26 144 26 144 26C144 26 144 26 144 26C144 26 144 26 144 26C144 26 144 26 144 26C144 26 144 26 144 26C144 26 144 26 144 26C144 26 144 26 144 26C144 26 144 26 144 26C144 26 144 26 144 26C144 26 144 26 144 26C144 26 144 26 144 26C144 26 144 26 144 26C144 26 144 26 144 26C144 26 144 26 144 26C144 26 144 26 144 26C144 26 144 26 144 26C144 26 144 26 144 26C144 26 144 26 144 26C144 26 144 26 144 26C144 26 144 26 144 26C144 26 144 26 144 26C144 26 144 26 144 26C144 26 144 26 144 26C144 26 144 26 144 26C144 26 144 26 144 26C144 26 144 26 144 26C144 26 144 26 144 26C144 26 144 26 144 26C144 26 144 26 144 26C144 26 144 26 144 26C144 26 144 26 144 26C144 26 144 26 144 26C144 26 144 26 144 26C144 26 144 26 144 26C144 26 144 26 144 26C144 26 144 26 144 26C144 26 144 26 144 26C144 26 144 26 144 26C144 26 144 26 144 26C144 26 144 26 144 26C144 26 144 26 144 26C144 26 144 26 144 26C144 26 144 26 144 26C144 26 144 26 144 26C144 26 144 26 144 26C144 26 144 26 144 26C144 26 144 26 144 26C144 26 144 26 144 26C144 26 144 26 144 26C144 26 144 26 144 26C144 26 144 26 144 26C144 26 144 26 144 26C144 26 144 26 144 26C144 26 144 26 144 26C144 26 144 26 144 26C144 26 144 26 144 26C144 26 144 26 144 26C144 26 144 26 144 26C144 26 144 26 144 26C144 26 144 26 144 26C144 26 144 26 144 26C144 26 144 26 144 26C144 26 144 26 144 26C144 26 144 26 144 26C144 26 144 26 144 26C144 26 144 26 144 26C144 26 144 26 144 26C144 26 144 26 144 26C144 26 144 26 144 26C144 26 144 26 144 26C144 26 144 26 144 26C144 26 144 26 144 26C144 26 144 26 144 26C144 26 144 26 144 26C144 26 144 26 144 26C144 26 144 26 144 26C144 26 144 26 144 26C144 26 144 26 144 26C144 26 144 26 144 26C144 26 144 26 144 26C144 26 144 26 144 26C144 26 144 26 144 26C144 26 144 26 144 26C144 26 144 26 144 26C144 26 144 26 144 26C144 26 144 26 144 26C144 26 144 26 144 26C144 26 144 26 144 26C144 26 144 26 144 26C144 26 144 26 144 26C144 26 144 26 144 26C144 26 144 26 144 26C144 26 144 26 144 26C144 26 144 26 144 26C144 26 144 26 144 26C144 26 144 26 144 26C144 26 144 26 144 26C144 26 144 26 144 26C144 26 144 26 144 26C144 26 144 26 144 26C144 26 144 26 144 26C144 26 144 26 144 26C144 26 144 26 144 26C144 26 144 26 144 26C144 26 144 26 144 26C144 26 144 26 144 26C144 26 144 26 144 26C144 26 144 26 144 26C144 26 144 26 144 26C144 26 144 26 144 26C144 26 144 26 144 26C144 26 144 26 144 26C144 26 144 26 144 26C144 26 144 26 144 26C144 26 144 26 144 26C144 26 144 26 144 26C144 26 144 26 144 26C144 26 144 26 144 26C144 26 144 26 144 26C144 26 144 26 144 26C144 26 144 26 144 26C144 26 144 26 144 26C144 26 144 26 144 26C144 26 144 26 144 26C144 26 144 26 144 26C144 26 144 26 144 26C144 26 144 26 144 26C144 26 144 26 144 26C144 26 144 26 144 26C144 26 144 26 144 26C144 26 144 26 144 26C144 26 144 26 144 26C144 26 144 26 144 26C144 26 144 26 144 26C144 26 144 26 144 26C144 26 144 26 144 26C144 26 144 26 144 26C144 26 144 26 144 26C144 26 144 26 144 26C144 26 144 26 144 26C144 26 144 26 144 26C144 26 144 26 144 26C144 26 144 26 144 26C144 26 144 26 144 26C144 26 144 26 144 26C144 26 144 26 144 26C144 26 144 26 144 26C144 26 144 26 144 26C144 26 144 26 144 26C144 26 144 26 144 26C144 26 144 26 144 26C144 26 144 26 144 26C144 26 144 26 144 26C144 26 144 26 144 26C144 26 144 26 144 26C144 26 144 26 144 26C144 26 144 26 144 26C144 26 144 26 144 26C144 26 144 26 144 26C144 26 144 26 144 26C144 26 144 26 144 26C144 26 144 26 144 26C144 26 144 26 144 26C144 26 144 26 144 26C144 26 144 26 144 26C144 26 144 26 144 26C144 26 144 26 144 26C144 26 144 26 144 26C144 26 144 26 144 26C144 26 144 26 144 26C144 26 144 26 144 26C144 26 144 26 144 26C144 26 144 26 144 26C144 26 144 26 144 26C144 26 144 26 144 26C144 26 144 26 144 26C144 26 144 26 144 26C144 26 144 26 144 26C144 26 144 26 144 26C144 26 144 26 144 26C144 26 144 26 144 26C144 26 144 26 144 26C144 26 144 26 144 26C144 26 144 26 144 26H146ZM153.422 16C148.157 16 144 20.5406 144 26H146C146 21.518 149.384 18 153.422 18V16ZM189.95 16H153.422V18H189.95V16ZM189.967 16C189.961 16 189.956 16 189.95 16V18C189.955 18 189.96 18 189.964 18L189.967 16ZM189.965 18L190 18L190 16L189.965 16L189.965 18ZM190 18C190.082 18 190.163 18.0012 190.244 18.0037L190.304 16.0046C190.203 16.0015 190.102 16 190 16V18ZM200 24.5C200 21.7471 198.795 19.6162 196.948 18.1843C195.129 16.7735 192.728 16.066 190.3 16.0044L190.249 18.0038C192.35 18.0571 194.311 18.6701 195.723 19.7647C197.107 20.8383 198 22.3979 198 24.5H200ZM199.994 25.6904C200 25.2885 200 24.8883 200 24.5H198C198 24.8907 198 25.2764 197.994 25.6613L199.994 25.6904ZM197.995 25.7112C197.998 25.807 198 25.9033 198 26H200C200 25.8797 199.998 25.7598 199.994 25.6405L197.995 25.7112ZM198 26V62H200V26H198ZM198 62C198 66.4184 194.418 70 190 70V72C195.523 72 200 67.523 200 62H198ZM190 70C185.582 70 182 66.4184 182 62H180C180 67.523 184.477 72 190 72V70ZM182 62V39.5H180V62H182ZM182 39.5C182 36.4624 179.537 34 176.5 34V36C178.433 36 180 37.5671 180 39.5H182ZM176.5 34H176.263V36H176.5V34ZM175.263 35V40.9999H177.263V35H175.263ZM175.263 40.9999C175.263 42.4736 174.837 43.7656 174.199 44.6633C173.559 45.5633 172.768 45.9999 171.999 45.9999V47.9999C173.586 47.9999 174.926 47.0933 175.829 45.8218C176.734 44.548 177.263 42.84 177.263 40.9999H175.263ZM171.999 45.9999C171.231 45.9999 170.44 45.5633 169.8 44.6633C169.162 43.7656 168.736 42.4736 168.736 40.9999H166.736C166.736 42.84 167.265 44.548 168.17 45.8218C169.073 47.0933 170.413 47.9999 171.999 47.9999V45.9999ZM168.736 40.9999V35H166.736V40.9999H168.736ZM167.736 34H166.046V36H167.736V34ZM162.843 39.5C162.843 37.506 164.339 36.0033 166.048 36L166.044 34C163.109 34.0057 160.843 36.5297 160.843 39.5H162.843ZM162.843 50.755V39.5H160.843V50.755H162.843ZM162.843 62V50.755H160.843V62H162.843ZM153.422 72C158.687 72 162.843 67.4594 162.843 62H160.843C160.843 66.482 157.459 70 153.422 70V72Z" fill="#5077F4" mask="url(#path-5-inside-3_59_970)"/>
<path d="M57 17.5C61.6945 17.5 65.5 21.3056 65.5 26V62C65.5 66.6946 61.6946 70.5 57 70.5H21C16.3056 70.5 12.5 66.6945 12.5 62V26C12.5 21.3056 16.3056 17.5 21 17.5H57ZM48.5 39.5C48.5 36.7386 46.2614 34.5 43.5 34.5H34.5C31.7386 34.5 29.5 36.7386 29.5 39.5V48.5C29.5 51.2614 31.7386 53.5 34.5 53.5H43.5C46.2614 53.5 48.5 51.2614 48.5 48.5V39.5Z" fill="url(#paint3_linear_59_970)" stroke="#5077F4"/>
<path d="M267.396 11.25C267.396 10.041 266.791 8.97423 265.928 8.2216C265.067 7.47002 263.916 7 262.75 7L247.75 7C245.955 7 244.5 5.54498 244.5 3.75C244.5 1.95502 245.955 0.5 247.75 0.5L262.75 0.5C268.687 0.5 273.5 5.31277 273.5 11.25V26.25C273.5 28.045 272.045 29.5 270.25 29.5C269.361 29.5 268.661 29.1444 268.177 28.577C267.686 28.0022 267.396 27.1853 267.396 26.25V18.4702V11.25Z" fill="url(#paint4_linear_59_970)" stroke="#5077F4"/>
<path d="M270.25 59.5C272.045 59.5 273.5 60.955 273.5 62.75V77.75C273.5 83.6872 268.687 88.5 262.75 88.5H247.75C245.955 88.5 244.5 87.045 244.5 85.25C244.5 83.3732 245.895 81.6642 247.615 81.6642H262.678C263.815 81.6642 264.976 81.2976 265.863 80.6342C266.756 79.9667 267.396 78.976 267.396 77.75V70.0821V62.75C267.396 61.8147 267.686 60.9978 268.177 60.4231C268.661 59.8556 269.361 59.5 270.25 59.5Z" fill="url(#paint5_linear_59_970)" stroke="#5077F4"/>
<path d="M6.73034 77.75C6.73034 80.1971 9.01455 81.6642 11.25 81.6642H26.25C27.9917 81.6642 29.5 83.3986 29.5 85.25C29.5 87.045 28.0449 88.5 26.25 88.5H11.25C5.31295 88.5 0.5 83.6872 0.5 77.75V62.75C0.5 60.955 1.95509 59.5 3.75 59.5C5.49699 59.5 6.73034 60.9045 6.73034 62.75V77.75Z" fill="url(#paint6_linear_59_970)" stroke="#5077F4"/>
<path d="M3.75 29.5C1.95502 29.5 0.5 28.045 0.5 26.25L0.5 11.25C0.5 5.31277 5.31277 0.5 11.25 0.5L26.25 0.5C28.045 0.5 29.5 1.95502 29.5 3.75C29.5 5.47273 27.7821 6.88807 25.9088 6.88807L11.4481 6.88807C10.2742 6.88807 9.10493 7.39191 8.23056 8.16853C7.35604 8.94527 6.73042 10.0381 6.73042 11.25L6.73042 26.25C6.73042 28.0955 5.49707 29.5 3.75 29.5Z" fill="url(#paint7_linear_59_970)" stroke="#5077F4"/>
<defs>
<linearGradient id="paint0_linear_59_970" x1="206" y1="71.5" x2="258.5" y2="18.5" gradientUnits="userSpaceOnUse">
<stop offset="0.226669" stop-color="#AF17F6"/>
<stop offset="0.334215" stop-color="#9531F6"/>
<stop offset="0.451693" stop-color="#784EF5"/>
<stop offset="0.539801" stop-color="#6F58F5"/>
<stop offset="0.643896" stop-color="#6561F5"/>
<stop offset="0.76967" stop-color="#5D69F5"/>
<stop offset="0.875" stop-color="#5077F4"/>
</linearGradient>
<linearGradient id="paint1_linear_59_970" x1="72" y1="71" x2="126" y2="16.9997" gradientUnits="userSpaceOnUse">
<stop offset="0.226669" stop-color="#AF17F6"/>
<stop offset="0.334215" stop-color="#9531F6"/>
<stop offset="0.451693" stop-color="#784EF5"/>
<stop offset="0.539801" stop-color="#6F58F5"/>
<stop offset="0.643896" stop-color="#6561F5"/>
<stop offset="0.76967" stop-color="#5D69F5"/>
<stop offset="0.875" stop-color="#5077F4"/>
</linearGradient>
<linearGradient id="paint2_linear_59_970" x1="145" y1="71" x2="195.369" y2="13.8023" gradientUnits="userSpaceOnUse">
<stop offset="0.22" stop-color="#AF17F6"/>
<stop offset="0.449681" stop-color="#784EF5"/>
<stop offset="0.529502" stop-color="#6F58F5"/>
<stop offset="0.59524" stop-color="#6561F5"/>
<stop offset="0.677137" stop-color="#5D69F5"/>
<stop offset="0.875" stop-color="#5077F4"/>
</linearGradient>
<linearGradient id="paint3_linear_59_970" x1="12.5" y1="70.5" x2="66" y2="18" gradientUnits="userSpaceOnUse">
<stop offset="0.226669" stop-color="#AF17F6"/>
<stop offset="0.334215" stop-color="#9531F6"/>
<stop offset="0.451693" stop-color="#784EF5"/>
<stop offset="0.539801" stop-color="#6F58F5"/>
<stop offset="0.643896" stop-color="#6561F5"/>
<stop offset="0.76967" stop-color="#5D69F5"/>
<stop offset="0.875" stop-color="#5077F4"/>
</linearGradient>
<linearGradient id="paint4_linear_59_970" x1="244" y1="30" x2="274.029" y2="0.0290021" gradientUnits="userSpaceOnUse">
<stop stop-color="#AF17F6"/>
<stop offset="0.449681" stop-color="#784EF5"/>
<stop offset="0.529502" stop-color="#6F58F5"/>
<stop offset="0.59524" stop-color="#6561F5"/>
<stop offset="0.677137" stop-color="#5D69F5"/>
<stop offset="0.875" stop-color="#5077F4"/>
</linearGradient>
<linearGradient id="paint5_linear_59_970" x1="244" y1="89" x2="272.684" y2="57.7908" gradientUnits="userSpaceOnUse">
<stop stop-color="#AF17F6"/>
<stop offset="0.449681" stop-color="#784EF5"/>
<stop offset="0.529502" stop-color="#6F58F5"/>
<stop offset="0.59524" stop-color="#6561F5"/>
<stop offset="0.677137" stop-color="#5D69F5"/>
<stop offset="0.875" stop-color="#5077F4"/>
</linearGradient>
<linearGradient id="paint6_linear_59_970" x1="-6.19668e-07" y1="88.5522" x2="30.155" y2="59.0291" gradientUnits="userSpaceOnUse">
<stop stop-color="#AF17F6"/>
<stop offset="0.449681" stop-color="#784EF5"/>
<stop offset="0.529502" stop-color="#6F58F5"/>
<stop offset="0.59524" stop-color="#6561F5"/>
<stop offset="0.677137" stop-color="#5D69F5"/>
<stop offset="0.875" stop-color="#5077F4"/>
</linearGradient>
<linearGradient id="paint7_linear_59_970" x1="9.13427e-07" y1="30" x2="29.5446" y2="-0.441974" gradientUnits="userSpaceOnUse">
<stop stop-color="#AF17F6"/>
<stop offset="0.449681" stop-color="#784EF5"/>
<stop offset="0.529502" stop-color="#6F58F5"/>
<stop offset="0.59524" stop-color="#6561F5"/>
<stop offset="0.677137" stop-color="#5D69F5"/>
<stop offset="0.875" stop-color="#5077F4"/>
</linearGradient>
</defs>
</svg>
