<svg width="200" height="200" viewBox="0 0 200 200" fill="none" xmlns="http://www.w3.org/2000/svg">
<mask id="path-1-inside-1_59_968" fill="white">
<path fill-rule="evenodd" clip-rule="evenodd" d="M172.625 18.25C177.665 18.25 182.714 22.3353 182.714 27.375V44.944V63.875C182.714 68.9147 185.835 73 190.875 73C195.915 73 200 68.9147 200 63.875V27.375C200 12.2558 187.744 0 172.625 0H136.125C131.085 0 127 4.08526 127 9.125C127 14.1647 131.085 18.25 136.125 18.25H172.625ZM81 36C85.9707 36 90 40.0295 90 45V81C90 85.9707 85.9707 90 81 90H45C40.0295 90 36 85.9707 36 81V45C36 40.0295 40.0295 36 45 36H81ZM67.5 54C69.9853 54 72 56.0147 72 58.5V67.5C72 69.9853 69.9853 72 67.5 72H58.5C56.0147 72 54 69.9853 54 67.5V58.5C54 56.0147 56.0147 54 58.5 54H67.5ZM17.5938 172.625C17.5938 177.665 22.3354 180.933 27.375 180.933H63.875C68.9146 180.933 73 185.835 73 190.875C73 195.915 68.9146 200 63.875 200H27.375C12.2562 200 0 187.744 0 172.625V136.125C0 131.085 4.08544 127 9.125 127C14.1646 127 17.5938 131.085 17.5938 136.125V172.625ZM110 83.25C110 86.9779 114.101 90 119.161 90C124.22 90 129.286 86.9779 129.286 83.25V75.6818C130.002 75.7526 130.779 75.7895 131.621 75.7895H137H144.714V84.6149C144.714 89.324 149.031 90 154.357 90C159.682 90 164 89.324 164 84.6149V70.4792C164 70.1131 163.973 69.7673 163.923 69.4408C163.974 69.1994 164 68.9475 164 68.6842C164 64.76 162.879 61.579 155.068 61.579H131.621C130.779 61.579 130.002 61.6159 129.286 61.6867V56.25C129.286 52.5222 132.423 49.5 137.482 49.5H156.286C164 49.5 164 46.8332 164 43.1053C164 39.3774 164 36 156.286 36.0001L137.483 36C122.267 36 115.476 36 112.444 39.3762C110 42.0981 110 47.0146 110 55.8948V83.25ZM44.4216 164C39.7705 164 36 159.971 36 155V119C36 114.029 39.7705 110 44.4216 110H80.95L80.9655 110H81C81.0917 110 81.1831 110.001 81.2742 110.004C85.8036 110.119 90 112.645 90 117.5C90 117.889 90 118.282 89.9943 118.676C89.9981 118.783 90 118.891 90 119V155C90 159.971 85.9707 164 81 164C76.0293 164 72 159.971 72 155V132.5C72 130.015 69.9849 128 67.5 128H67.2626V134C67.2626 137.314 65.354 140 62.9995 140C60.6449 140 58.7363 137.314 58.7363 134V128H57.0461C54.7242 128.005 52.8432 130.018 52.8432 132.5V143.755V155C52.8432 159.971 49.0727 164 44.4216 164ZM115 164C112.643 164 111.464 164 110.732 163.268C110 162.536 110 161.357 110 159V115C110 112.643 110 111.464 110.732 110.732C111.464 110 112.643 110 115 110H124.4H159C161.761 110 164 112.239 164 115V120C164 122.761 161.761 125 159 125H124.4V131H159C161.761 131 164 133.239 164 136V138C164 140.761 161.761 143 159 143H124.4V149H161.5C162.881 149 164 150.119 164 151.5V161.5C164 162.881 162.881 164 161.5 164H124.4H115ZM200 136.125C200 131.085 195.915 127 190.875 127C185.835 127 182.714 131.085 182.714 136.125V153.966V172.625C182.714 177.665 177.49 180.933 172.451 180.933H135.797C130.757 180.933 127 185.835 127 190.875C127 195.915 131.085 200 136.125 200H172.625C187.744 200 200 187.744 200 172.625V136.125ZM9.25 73C4.14123 73 0 68.9147 0 63.875V27.375C0 12.2558 12.4237 0 27.75 0H64.75C69.8588 0 74 4.08526 74 9.125C74 14.1647 69.0172 17.9777 63.9084 17.9777H28.2387C23.1299 17.9777 17.835 22.3353 17.835 27.375V63.875C17.835 68.9147 14.3588 73 9.25 73Z"/>
</mask>
<path fill-rule="evenodd" clip-rule="evenodd" d="M172.625 18.25C177.665 18.25 182.714 22.3353 182.714 27.375V44.944V63.875C182.714 68.9147 185.835 73 190.875 73C195.915 73 200 68.9147 200 63.875V27.375C200 12.2558 187.744 0 172.625 0H136.125C131.085 0 127 4.08526 127 9.125C127 14.1647 131.085 18.25 136.125 18.25H172.625ZM81 36C85.9707 36 90 40.0295 90 45V81C90 85.9707 85.9707 90 81 90H45C40.0295 90 36 85.9707 36 81V45C36 40.0295 40.0295 36 45 36H81ZM67.5 54C69.9853 54 72 56.0147 72 58.5V67.5C72 69.9853 69.9853 72 67.5 72H58.5C56.0147 72 54 69.9853 54 67.5V58.5C54 56.0147 56.0147 54 58.5 54H67.5ZM17.5938 172.625C17.5938 177.665 22.3354 180.933 27.375 180.933H63.875C68.9146 180.933 73 185.835 73 190.875C73 195.915 68.9146 200 63.875 200H27.375C12.2562 200 0 187.744 0 172.625V136.125C0 131.085 4.08544 127 9.125 127C14.1646 127 17.5938 131.085 17.5938 136.125V172.625ZM110 83.25C110 86.9779 114.101 90 119.161 90C124.22 90 129.286 86.9779 129.286 83.25V75.6818C130.002 75.7526 130.779 75.7895 131.621 75.7895H137H144.714V84.6149C144.714 89.324 149.031 90 154.357 90C159.682 90 164 89.324 164 84.6149V70.4792C164 70.1131 163.973 69.7673 163.923 69.4408C163.974 69.1994 164 68.9475 164 68.6842C164 64.76 162.879 61.579 155.068 61.579H131.621C130.779 61.579 130.002 61.6159 129.286 61.6867V56.25C129.286 52.5222 132.423 49.5 137.482 49.5H156.286C164 49.5 164 46.8332 164 43.1053C164 39.3774 164 36 156.286 36.0001L137.483 36C122.267 36 115.476 36 112.444 39.3762C110 42.0981 110 47.0146 110 55.8948V83.25ZM44.4216 164C39.7705 164 36 159.971 36 155V119C36 114.029 39.7705 110 44.4216 110H80.95L80.9655 110H81C81.0917 110 81.1831 110.001 81.2742 110.004C85.8036 110.119 90 112.645 90 117.5C90 117.889 90 118.282 89.9943 118.676C89.9981 118.783 90 118.891 90 119V155C90 159.971 85.9707 164 81 164C76.0293 164 72 159.971 72 155V132.5C72 130.015 69.9849 128 67.5 128H67.2626V134C67.2626 137.314 65.354 140 62.9995 140C60.6449 140 58.7363 137.314 58.7363 134V128H57.0461C54.7242 128.005 52.8432 130.018 52.8432 132.5V143.755V155C52.8432 159.971 49.0727 164 44.4216 164ZM115 164C112.643 164 111.464 164 110.732 163.268C110 162.536 110 161.357 110 159V115C110 112.643 110 111.464 110.732 110.732C111.464 110 112.643 110 115 110H124.4H159C161.761 110 164 112.239 164 115V120C164 122.761 161.761 125 159 125H124.4V131H159C161.761 131 164 133.239 164 136V138C164 140.761 161.761 143 159 143H124.4V149H161.5C162.881 149 164 150.119 164 151.5V161.5C164 162.881 162.881 164 161.5 164H124.4H115ZM200 136.125C200 131.085 195.915 127 190.875 127C185.835 127 182.714 131.085 182.714 136.125V153.966V172.625C182.714 177.665 177.49 180.933 172.451 180.933H135.797C130.757 180.933 127 185.835 127 190.875C127 195.915 131.085 200 136.125 200H172.625C187.744 200 200 187.744 200 172.625V136.125ZM9.25 73C4.14123 73 0 68.9147 0 63.875V27.375C0 12.2558 12.4237 0 27.75 0H64.75C69.8588 0 74 4.08526 74 9.125C74 14.1647 69.0172 17.9777 63.9084 17.9777H28.2387C23.1299 17.9777 17.835 22.3353 17.835 27.375V63.875C17.835 68.9147 14.3588 73 9.25 73Z" fill="url(#paint0_linear_59_968)"/>
<path fill-rule="evenodd" clip-rule="evenodd" d="M172.625 18.25C177.665 18.25 182.714 22.3353 182.714 27.375V44.944V63.875C182.714 68.9147 185.835 73 190.875 73C195.915 73 200 68.9147 200 63.875V27.375C200 12.2558 187.744 0 172.625 0H136.125C131.085 0 127 4.08526 127 9.125C127 14.1647 131.085 18.25 136.125 18.25H172.625ZM81 36C85.9707 36 90 40.0295 90 45V81C90 85.9707 85.9707 90 81 90H45C40.0295 90 36 85.9707 36 81V45C36 40.0295 40.0295 36 45 36H81ZM67.5 54C69.9853 54 72 56.0147 72 58.5V67.5C72 69.9853 69.9853 72 67.5 72H58.5C56.0147 72 54 69.9853 54 67.5V58.5C54 56.0147 56.0147 54 58.5 54H67.5ZM17.5938 172.625C17.5938 177.665 22.3354 180.933 27.375 180.933H63.875C68.9146 180.933 73 185.835 73 190.875C73 195.915 68.9146 200 63.875 200H27.375C12.2562 200 0 187.744 0 172.625V136.125C0 131.085 4.08544 127 9.125 127C14.1646 127 17.5938 131.085 17.5938 136.125V172.625ZM110 83.25C110 86.9779 114.101 90 119.161 90C124.22 90 129.286 86.9779 129.286 83.25V75.6818C130.002 75.7526 130.779 75.7895 131.621 75.7895H137H144.714V84.6149C144.714 89.324 149.031 90 154.357 90C159.682 90 164 89.324 164 84.6149V70.4792C164 70.1131 163.973 69.7673 163.923 69.4408C163.974 69.1994 164 68.9475 164 68.6842C164 64.76 162.879 61.579 155.068 61.579H131.621C130.779 61.579 130.002 61.6159 129.286 61.6867V56.25C129.286 52.5222 132.423 49.5 137.482 49.5H156.286C164 49.5 164 46.8332 164 43.1053C164 39.3774 164 36 156.286 36.0001L137.483 36C122.267 36 115.476 36 112.444 39.3762C110 42.0981 110 47.0146 110 55.8948V83.25ZM44.4216 164C39.7705 164 36 159.971 36 155V119C36 114.029 39.7705 110 44.4216 110H80.95L80.9655 110H81C81.0917 110 81.1831 110.001 81.2742 110.004C85.8036 110.119 90 112.645 90 117.5C90 117.889 90 118.282 89.9943 118.676C89.9981 118.783 90 118.891 90 119V155C90 159.971 85.9707 164 81 164C76.0293 164 72 159.971 72 155V132.5C72 130.015 69.9849 128 67.5 128H67.2626V134C67.2626 137.314 65.354 140 62.9995 140C60.6449 140 58.7363 137.314 58.7363 134V128H57.0461C54.7242 128.005 52.8432 130.018 52.8432 132.5V143.755V155C52.8432 159.971 49.0727 164 44.4216 164ZM115 164C112.643 164 111.464 164 110.732 163.268C110 162.536 110 161.357 110 159V115C110 112.643 110 111.464 110.732 110.732C111.464 110 112.643 110 115 110H124.4H159C161.761 110 164 112.239 164 115V120C164 122.761 161.761 125 159 125H124.4V131H159C161.761 131 164 133.239 164 136V138C164 140.761 161.761 143 159 143H124.4V149H161.5C162.881 149 164 150.119 164 151.5V161.5C164 162.881 162.881 164 161.5 164H124.4H115ZM200 136.125C200 131.085 195.915 127 190.875 127C185.835 127 182.714 131.085 182.714 136.125V153.966V172.625C182.714 177.665 177.49 180.933 172.451 180.933H135.797C130.757 180.933 127 185.835 127 190.875C127 195.915 131.085 200 136.125 200H172.625C187.744 200 200 187.744 200 172.625V136.125ZM9.25 73C4.14123 73 0 68.9147 0 63.875V27.375C0 12.2558 12.4237 0 27.75 0H64.75C69.8588 0 74 4.08526 74 9.125C74 14.1647 69.0172 17.9777 63.9084 17.9777H28.2387C23.1299 17.9777 17.835 22.3353 17.835 27.375V63.875C17.835 68.9147 14.3588 73 9.25 73Z" fill="url(#paint1_linear_59_968)"/>
<path d="M129.286 75.6818L129.482 73.6915L127.286 73.4743V75.6818H129.286ZM144.714 75.7895H146.714V73.7895H144.714V75.7895ZM163.923 69.4408L161.967 69.0237L161.89 69.3837L161.946 69.7474L163.923 69.4408ZM129.286 61.6867H127.286V63.8942L129.482 63.677L129.286 61.6867ZM156.286 36.0001L156.286 38.0001L156.286 38.0001L156.286 36.0001ZM137.483 36L137.483 34H137.483V36ZM112.444 39.3762L113.932 40.7124L113.932 40.7124L112.444 39.3762ZM80.95 110L80.951 108H80.95V110ZM80.9655 110L80.9645 112H80.9655V110ZM81.2742 110.004L81.2144 112.003L81.2235 112.003L81.2742 110.004ZM89.9943 118.676L87.9945 118.647L87.9938 118.697L87.9955 118.746L89.9943 118.676ZM67.2626 128V126H65.2626V128H67.2626ZM58.7363 128H60.7363V126H58.7363V128ZM57.0461 128L57.0461 126L57.0422 126L57.0461 128ZM110.732 163.268L112.146 161.854L112.146 161.854L110.732 163.268ZM124.4 125V123H122.4V125H124.4ZM124.4 131H122.4V133H124.4V131ZM124.4 143V141H122.4V143H124.4ZM124.4 149H122.4V151H124.4V149ZM184.714 27.375C184.714 24.1613 183.106 21.363 180.874 19.4157C178.648 17.4725 175.666 16.25 172.625 16.25V20.25C174.623 20.25 176.687 21.0701 178.244 22.4295C179.797 23.7847 180.714 25.549 180.714 27.375H184.714ZM184.714 44.944V27.375H180.714V44.944H184.714ZM184.714 63.875V44.944H180.714V63.875H184.714ZM190.875 71C188.941 71 187.456 70.2351 186.425 69.0285C185.37 67.7926 184.714 65.9937 184.714 63.875H180.714C180.714 66.796 181.619 69.5596 183.384 71.6263C185.174 73.7223 187.77 75 190.875 75V71ZM198 63.875C198 67.8101 194.81 71 190.875 71V75C197.019 75 202 70.0193 202 63.875H198ZM198 27.375V63.875H202V27.375H198ZM172.625 2C186.639 2 198 13.3604 198 27.375H202C202 11.1512 188.848 -2 172.625 -2V2ZM136.125 2H172.625V-2H136.125V2ZM129 9.125C129 5.18986 132.19 2 136.125 2V-2C129.981 -2 125 2.98067 125 9.125H129ZM136.125 16.25C132.19 16.25 129 13.0601 129 9.125H125C125 15.2693 129.981 20.25 136.125 20.25V16.25ZM172.625 16.25H136.125V20.25H172.625V16.25ZM92 45C92 38.9249 87.0753 34 81 34V38C84.8661 38 88 41.134 88 45H92ZM92 81V45H88V81H92ZM81 92C87.0753 92 92 87.0753 92 81H88C88 84.8661 84.8661 88 81 88V92ZM45 92H81V88H45V92ZM34 81C34 87.0753 38.9249 92 45 92V88C41.134 88 38 84.8661 38 81H34ZM34 45V81H38V45H34ZM45 34C38.9249 34 34 38.9249 34 45H38C38 41.134 41.134 38 45 38V34ZM81 34H45V38H81V34ZM74 58.5C74 54.9102 71.0898 52 67.5 52V56C68.8807 56 70 57.1193 70 58.5H74ZM74 67.5V58.5H70V67.5H74ZM67.5 74C71.0898 74 74 71.0898 74 67.5H70C70 68.8807 68.8807 70 67.5 70V74ZM58.5 74H67.5V70H58.5V74ZM52 67.5C52 71.0898 54.9102 74 58.5 74V70C57.1193 70 56 68.8807 56 67.5H52ZM52 58.5V67.5H56V58.5H52ZM58.5 52C54.9102 52 52 54.9102 52 58.5H56C56 57.1193 57.1193 56 58.5 56V52ZM67.5 52H58.5V56H67.5V52ZM27.375 178.933C22.9931 178.933 19.5938 176.161 19.5938 172.625H15.5938C15.5938 179.169 21.6778 182.933 27.375 182.933V178.933ZM63.875 178.933H27.375V182.933H63.875V178.933ZM75 190.875C75 184.956 70.2321 178.933 63.875 178.933V182.933C67.5971 182.933 71 186.714 71 190.875H75ZM63.875 202C70.0191 202 75 197.019 75 190.875H71C71 194.81 67.81 198 63.875 198V202ZM27.375 202H63.875V198H27.375V202ZM-2 172.625C-2 188.849 11.1517 202 27.375 202V198C13.3608 198 2 186.64 2 172.625H-2ZM-2 136.125V172.625H2V136.125H-2ZM9.125 125C2.9809 125 -2 129.981 -2 136.125H2C2 132.19 5.18999 129 9.125 129V125ZM19.5938 136.125C19.5938 130.183 15.4608 125 9.125 125V129C12.8683 129 15.5938 131.988 15.5938 136.125H19.5938ZM19.5938 172.625V136.125H15.5938V172.625H19.5938ZM119.161 88C117.014 88 115.15 87.3561 113.87 86.4129C112.589 85.4691 112 84.3279 112 83.25H108C108 85.9 109.462 88.1338 111.497 89.6331C113.532 91.1329 116.248 92 119.161 92V88ZM127.286 83.25C127.286 84.154 126.649 85.3051 125.038 86.3409C123.475 87.3467 121.322 88 119.161 88V92C122.059 92 124.968 91.1423 127.202 89.705C129.39 88.2978 131.286 86.0739 131.286 83.25H127.286ZM127.286 75.6818V83.25H131.286V75.6818H127.286ZM131.621 73.7895C130.837 73.7895 130.126 73.7551 129.482 73.6915L129.089 77.6721C129.878 77.7501 130.721 77.7895 131.621 77.7895V73.7895ZM137 73.7895H131.621V77.7895H137V73.7895ZM144.714 73.7895H137V77.7895H144.714V73.7895ZM146.714 84.6149V75.7895H142.714V84.6149H146.714ZM154.357 88C151.683 88 149.657 87.813 148.335 87.2388C147.723 86.9734 147.358 86.6634 147.131 86.3269C146.908 85.9947 146.714 85.4786 146.714 84.6149H142.714C142.714 86.1058 143.06 87.4401 143.812 88.5591C144.562 89.6738 145.608 90.4157 146.742 90.9079C148.909 91.849 151.705 92 154.357 92V88ZM162 84.6149C162 85.4786 161.806 85.9947 161.582 86.3269C161.356 86.6634 160.99 86.9734 160.379 87.2388C159.056 87.813 157.03 88 154.357 88V92C157.009 92 159.804 91.849 161.972 90.9079C163.105 90.4157 164.152 89.6738 164.901 88.5591C165.654 87.4401 166 86.1058 166 84.6149H162ZM162 70.4792V84.6149H166V70.4792H162ZM161.946 69.7474C161.98 69.9651 162 70.2081 162 70.4792H166C166 70.0181 165.967 69.5694 165.899 69.1342L161.946 69.7474ZM162 68.6842C162 68.8147 161.988 68.9264 161.967 69.0237L165.879 69.8579C165.961 69.4723 166 69.0803 166 68.6842H162ZM155.068 63.579C158.788 63.579 160.343 64.3518 161.033 65.058C161.711 65.7516 162 66.8273 162 68.6842H166C166 66.6169 165.729 64.1401 163.894 62.2621C162.07 60.3967 159.16 59.579 155.068 59.579V63.579ZM131.621 63.579H155.068V59.579H131.621V63.579ZM129.482 63.677C130.126 63.6134 130.837 63.579 131.621 63.579V59.579C130.721 59.579 129.878 59.6185 129.089 59.6964L129.482 63.677ZM127.286 56.25V61.6867H131.286V56.25H127.286ZM137.482 47.5C131.607 47.5 127.286 51.1496 127.286 56.25H131.286C131.286 53.8947 133.239 51.5 137.482 51.5V47.5ZM156.286 47.5H137.482V51.5H156.286V47.5ZM162 43.1053C162 44.0778 161.995 44.7781 161.903 45.3695C161.817 45.9231 161.676 46.2129 161.513 46.4042C161.174 46.8019 160.09 47.5 156.286 47.5V51.5C160.196 51.5 162.969 50.8647 164.559 48.9971C165.36 48.0557 165.701 46.9798 165.856 45.9848C166.005 45.0278 166 43.9968 166 43.1053H162ZM156.286 38.0001C159.965 38 161.045 38.8234 161.425 39.3401C161.644 39.638 161.807 40.0565 161.9 40.7062C161.996 41.3798 162 42.1411 162 43.1053H166C166 42.2056 166.004 41.1468 165.859 40.1386C165.711 39.1066 165.392 37.9817 164.647 36.9693C163.098 34.8653 160.321 34 156.286 34.0001L156.286 38.0001ZM137.483 38L156.286 38.0001L156.286 34.0001L137.483 34L137.483 38ZM113.932 40.7124C114.922 39.6104 116.716 38.8234 120.605 38.4109C124.453 38.0028 129.825 38 137.483 38V34C129.925 34 124.294 33.9972 120.183 34.4332C116.115 34.8647 112.998 35.7658 110.956 38.04L113.932 40.7124ZM112 55.8948C112 51.4082 112.003 48.0926 112.293 45.5527C112.582 43.0147 113.127 41.6094 113.932 40.7124L110.956 38.04C109.317 39.8649 108.64 42.2788 108.318 45.0996C107.997 47.9184 108 51.5011 108 55.8948H112ZM112 83.25V55.8948H108V83.25H112ZM34 155C34 160.948 38.5429 166 44.4216 166V162C40.9981 162 38 158.993 38 155H34ZM34 119V155H38V119H34ZM44.4216 108C38.5429 108 34 113.052 34 119H38C38 115.007 40.9981 112 44.4216 112V108ZM80.95 108H44.4216V112H80.95V108ZM80.9664 108L80.951 108L80.949 112L80.9645 112L80.9664 108ZM81 108H80.9655V112H81V108ZM81.334 108.005C81.223 108.002 81.1117 108 81 108V112C81.0718 112 81.1432 112.001 81.2144 112.003L81.334 108.005ZM92 117.5C92 114.422 90.6386 112.005 88.5613 110.394C86.5384 108.825 83.9169 108.071 81.3249 108.005L81.2235 112.003C83.1609 112.053 84.9023 112.618 86.1099 113.555C87.2631 114.449 88 115.723 88 117.5H92ZM91.9941 118.705C92 118.295 92 117.887 92 117.5H88C88 117.892 88 118.27 87.9945 118.647L91.9941 118.705ZM92 119C92 118.868 91.9977 118.736 91.993 118.605L87.9955 118.746C87.9985 118.831 88 118.915 88 119H92ZM92 155V119H88V155H92ZM81 166C87.0753 166 92 161.075 92 155H88C88 158.866 84.8661 162 81 162V166ZM70 155C70 161.075 74.9247 166 81 166V162C77.1339 162 74 158.866 74 155H70ZM70 132.5V155H74V132.5H70ZM67.5 130C68.8804 130 70 131.119 70 132.5H74C74 128.91 71.0894 126 67.5 126V130ZM67.2626 130H67.5V126H67.2626V130ZM69.2626 134V128H65.2626V134H69.2626ZM62.9995 142C64.995 142 66.6089 140.858 67.6444 139.401C68.683 137.939 69.2626 136.023 69.2626 134H65.2626C65.2626 135.29 64.8879 136.374 64.3837 137.084C63.8762 137.798 63.3585 138 62.9995 138V142ZM56.7363 134C56.7363 136.023 57.3159 137.939 58.3546 139.401C59.3901 140.858 61.004 142 62.9995 142V138C62.6405 138 62.1227 137.798 61.6153 137.084C61.111 136.374 60.7363 135.29 60.7363 134H56.7363ZM56.7363 128V134H60.7363V128H56.7363ZM57.0461 130H58.7363V126H57.0461V130ZM54.8432 132.5C54.8432 130.994 55.9537 130.002 57.05 130L57.0422 126C53.4946 126.007 50.8432 129.042 50.8432 132.5H54.8432ZM54.8432 143.755V132.5H50.8432V143.755H54.8432ZM54.8432 155V143.755H50.8432V155H54.8432ZM44.4216 166C50.3004 166 54.8432 160.948 54.8432 155H50.8432C50.8432 158.993 47.8451 162 44.4216 162V166ZM109.318 164.682C110.118 165.482 111.088 165.769 111.99 165.891C112.835 166.004 113.878 166 115 166V162C113.765 162 113.04 161.996 112.523 161.926C112.064 161.865 112.079 161.786 112.146 161.854L109.318 164.682ZM108 159C108 160.122 107.996 161.165 108.109 162.01C108.231 162.912 108.518 163.882 109.318 164.682L112.146 161.854C112.214 161.921 112.135 161.936 112.074 161.477C112.004 160.96 112 160.235 112 159H108ZM108 115V159H112V115H108ZM109.318 109.318C108.518 110.118 108.231 111.088 108.109 111.99C107.996 112.835 108 113.878 108 115H112C112 113.765 112.004 113.04 112.074 112.523C112.135 112.064 112.214 112.079 112.146 112.146L109.318 109.318ZM115 108C113.878 108 112.835 107.996 111.99 108.109C111.088 108.231 110.118 108.518 109.318 109.318L112.146 112.146C112.079 112.214 112.064 112.135 112.523 112.074C113.04 112.004 113.765 112 115 112V108ZM124.4 108H115V112H124.4V108ZM159 108H124.4V112H159V108ZM166 115C166 111.134 162.866 108 159 108V112C160.657 112 162 113.343 162 115H166ZM166 120V115H162V120H166ZM159 127C162.866 127 166 123.866 166 120H162C162 121.657 160.657 123 159 123V127ZM124.4 127H159V123H124.4V127ZM126.4 131V125H122.4V131H126.4ZM159 129H124.4V133H159V129ZM166 136C166 132.134 162.866 129 159 129V133C160.657 133 162 134.343 162 136H166ZM166 138V136H162V138H166ZM159 145C162.866 145 166 141.866 166 138H162C162 139.657 160.657 141 159 141V145ZM124.4 145H159V141H124.4V145ZM126.4 149V143H122.4V149H126.4ZM161.5 147H124.4V151H161.5V147ZM166 151.5C166 149.015 163.985 147 161.5 147V151C161.776 151 162 151.224 162 151.5H166ZM166 161.5V151.5H162V161.5H166ZM161.5 166C163.985 166 166 163.985 166 161.5H162C162 161.776 161.776 162 161.5 162V166ZM124.4 166H161.5V162H124.4V166ZM115 166H124.4V162H115V166ZM190.875 129C194.81 129 198 132.19 198 136.125H202C202 129.981 197.019 125 190.875 125V129ZM184.714 136.125C184.714 134.006 185.37 132.207 186.425 130.971C187.456 129.765 188.94 129 190.875 129V125C187.77 125 185.174 126.278 183.384 128.374C181.619 130.44 180.714 133.204 180.714 136.125H184.714ZM184.714 153.966V136.125H180.714V153.966H184.714ZM184.714 172.625V153.966H180.714V172.625H184.714ZM172.451 182.933C175.374 182.933 178.366 181.993 180.67 180.271C182.996 178.532 184.714 175.906 184.714 172.625H180.714C180.714 174.383 179.82 175.912 178.275 177.067C176.707 178.239 174.568 178.933 172.451 178.933V182.933ZM135.797 182.933H172.451V178.933H135.797V182.933ZM129 190.875C129 186.613 132.163 182.933 135.797 182.933V178.933C129.352 178.933 125 185.058 125 190.875H129ZM136.125 198C132.19 198 129 194.81 129 190.875H125C125 197.019 129.981 202 136.125 202V198ZM172.625 198H136.125V202H172.625V198ZM198 172.625C198 186.64 186.64 198 172.625 198V202C188.849 202 202 188.849 202 172.625H198ZM198 136.125V172.625H202V136.125H198ZM-2 63.875C-2 70.0449 3.0624 75 9.25 75V71C5.22005 71 2 67.7846 2 63.875H-2ZM-2 27.375V63.875H2V27.375H-2ZM27.75 -2C11.3448 -2 -2 11.1257 -2 27.375H2C2 13.3859 13.5025 2 27.75 2V-2ZM64.75 -2H27.75V2H64.75V-2ZM76 9.125C76 2.95512 70.9376 -2 64.75 -2V2C68.7799 2 72 5.2154 72 9.125H76ZM63.9084 19.9777C69.7813 19.9777 76 15.5814 76 9.125H72C72 12.748 68.253 15.9777 63.9084 15.9777V19.9777ZM28.2387 19.9777H63.9084V15.9777H28.2387V19.9777ZM19.835 27.375C19.835 25.571 20.7928 23.7332 22.4391 22.2907C24.0845 20.849 26.2293 19.9777 28.2387 19.9777V15.9777C25.1393 15.9777 22.0822 17.2852 19.803 19.2822C17.5247 21.2784 15.835 24.1392 15.835 27.375H19.835ZM19.835 63.875V27.375H15.835V63.875H19.835ZM9.25 75C15.6307 75 19.835 69.8441 19.835 63.875H15.835C15.835 67.9853 13.0868 71 9.25 71V75Z" fill="#5D69F5" mask="url(#path-1-inside-1_59_968)"/>
<mask id="path-3-inside-2_59_968" fill="white">
<path fill-rule="evenodd" clip-rule="evenodd" d="M110.732 163.268C111.464 164 112.643 164 115 164H124.4H161.5C162.881 164 164 162.881 164 161.5V151.5C164 150.119 162.881 149 161.5 149H124.4V143H159C161.761 143 164 140.761 164 138V136C164 133.239 161.761 131 159 131H124.4V125H159C161.761 125 164 122.761 164 120V115C164 112.239 161.761 110 159 110H124.4H115C112.643 110 111.464 110 110.732 110.732C110 111.464 110 112.643 110 115V159C110 161.357 110 162.536 110.732 163.268Z"/>
</mask>
<path fill-rule="evenodd" clip-rule="evenodd" d="M110.732 163.268C111.464 164 112.643 164 115 164H124.4H161.5C162.881 164 164 162.881 164 161.5V151.5C164 150.119 162.881 149 161.5 149H124.4V143H159C161.761 143 164 140.761 164 138V136C164 133.239 161.761 131 159 131H124.4V125H159C161.761 125 164 122.761 164 120V115C164 112.239 161.761 110 159 110H124.4H115C112.643 110 111.464 110 110.732 110.732C110 111.464 110 112.643 110 115V159C110 161.357 110 162.536 110.732 163.268Z" fill="url(#paint2_linear_59_968)"/>
<path d="M110.732 163.268L109.318 164.682L109.318 164.682L110.732 163.268ZM124.4 149H122.4V151H124.4V149ZM124.4 143V141H122.4V143H124.4ZM124.4 131H122.4V133H124.4V131ZM124.4 125V123H122.4V125H124.4ZM115 162C113.765 162 113.04 161.996 112.523 161.926C112.064 161.865 112.079 161.786 112.146 161.854L109.318 164.682C110.118 165.482 111.088 165.769 111.99 165.891C112.835 166.004 113.878 166 115 166V162ZM124.4 162H115V166H124.4V162ZM161.5 162H124.4V166H161.5V162ZM162 161.5C162 161.776 161.776 162 161.5 162V166C163.985 166 166 163.985 166 161.5H162ZM162 151.5V161.5H166V151.5H162ZM161.5 151C161.776 151 162 151.224 162 151.5H166C166 149.015 163.985 147 161.5 147V151ZM124.4 151H161.5V147H124.4V151ZM122.4 143V149H126.4V143H122.4ZM159 141H124.4V145H159V141ZM162 138C162 139.657 160.657 141 159 141V145C162.866 145 166 141.866 166 138H162ZM162 136V138H166V136H162ZM159 133C160.657 133 162 134.343 162 136H166C166 132.134 162.866 129 159 129V133ZM124.4 133H159V129H124.4V133ZM122.4 125V131H126.4V125H122.4ZM159 123H124.4V127H159V123ZM162 120C162 121.657 160.657 123 159 123V127C162.866 127 166 123.866 166 120H162ZM162 115V120H166V115H162ZM159 112C160.657 112 162 113.343 162 115H166C166 111.134 162.866 108 159 108V112ZM124.4 112H159V108H124.4V112ZM115 112H124.4V108H115V112ZM112.146 112.146C112.079 112.214 112.064 112.135 112.523 112.074C113.04 112.004 113.765 112 115 112V108C113.878 108 112.835 107.996 111.99 108.109C111.088 108.231 110.118 108.518 109.318 109.318L112.146 112.146ZM112 115C112 113.765 112.004 113.04 112.074 112.523C112.135 112.064 112.214 112.079 112.146 112.146L109.318 109.318C108.518 110.118 108.231 111.088 108.109 111.99C107.996 112.835 108 113.878 108 115H112ZM112 159V115H108V159H112ZM112.146 161.854C112.214 161.921 112.135 161.936 112.074 161.477C112.004 160.96 112 160.235 112 159H108C108 160.122 107.996 161.165 108.109 162.01C108.231 162.912 108.518 163.882 109.318 164.682L112.146 161.854Z" fill="#5D69F5" mask="url(#path-3-inside-2_59_968)"/>
<mask id="path-5-inside-3_59_968" fill="white">
<path fill-rule="evenodd" clip-rule="evenodd" d="M119.161 90C114.101 90 110 86.9779 110 83.25V55.8948C110 47.0146 110 42.0981 112.444 39.3762C115.476 36 122.267 36 137.483 36L156.286 36.0001C164 36 164 39.3774 164 43.1053C164 46.8332 164 49.5 156.286 49.5H137.482C132.423 49.5 129.286 52.5222 129.286 56.25V61.6867C130.002 61.6159 130.779 61.579 131.621 61.579H155.068C162.879 61.579 164 64.76 164 68.6842C164 68.9475 163.974 69.1994 163.923 69.4408C163.973 69.7673 164 70.1131 164 70.4792V84.6149C164 89.324 159.682 90 154.357 90C149.031 90 144.714 89.324 144.714 84.6149V75.7895H137H131.621C130.779 75.7895 130.002 75.7526 129.286 75.6818V83.25C129.286 86.9779 124.22 90 119.161 90Z"/>
</mask>
<path fill-rule="evenodd" clip-rule="evenodd" d="M119.161 90C114.101 90 110 86.9779 110 83.25V55.8948C110 47.0146 110 42.0981 112.444 39.3762C115.476 36 122.267 36 137.483 36L156.286 36.0001C164 36 164 39.3774 164 43.1053C164 46.8332 164 49.5 156.286 49.5H137.482C132.423 49.5 129.286 52.5222 129.286 56.25V61.6867C130.002 61.6159 130.779 61.579 131.621 61.579H155.068C162.879 61.579 164 64.76 164 68.6842C164 68.9475 163.974 69.1994 163.923 69.4408C163.973 69.7673 164 70.1131 164 70.4792V84.6149C164 89.324 159.682 90 154.357 90C149.031 90 144.714 89.324 144.714 84.6149V75.7895H137H131.621C130.779 75.7895 130.002 75.7526 129.286 75.6818V83.25C129.286 86.9779 124.22 90 119.161 90Z" fill="url(#paint3_linear_59_968)"/>
<path d="M112.444 39.3762L110.956 38.04L110.956 38.04L112.444 39.3762ZM137.483 36L137.483 34H137.483V36ZM156.286 36.0001L156.286 38.0001L156.286 38.0001L156.286 36.0001ZM129.286 61.6867H127.286V63.8942L129.482 63.677L129.286 61.6867ZM163.923 69.4408L161.967 69.0237L161.89 69.3837L161.946 69.7474L163.923 69.4408ZM144.714 75.7895H146.714V73.7895H144.714V75.7895ZM129.286 75.6818L129.482 73.6915L127.286 73.4743V75.6818H129.286ZM108 83.25C108 85.9 109.462 88.1338 111.497 89.6331C113.532 91.1329 116.248 92 119.161 92V88C117.014 88 115.15 87.3561 113.87 86.4129C112.589 85.4691 112 84.3279 112 83.25H108ZM108 55.8948V83.25H112V55.8948H108ZM110.956 38.04C109.317 39.8649 108.64 42.2788 108.318 45.0996C107.997 47.9184 108 51.5011 108 55.8948H112C112 51.4082 112.003 48.0926 112.293 45.5527C112.582 43.0147 113.127 41.6094 113.932 40.7124L110.956 38.04ZM137.483 34C129.925 34 124.294 33.9972 120.183 34.4332C116.115 34.8647 112.998 35.7658 110.956 38.04L113.932 40.7124C114.922 39.6104 116.716 38.8234 120.605 38.4109C124.453 38.0028 129.825 38 137.483 38V34ZM156.286 34.0001L137.483 34L137.483 38L156.286 38.0001L156.286 34.0001ZM166 43.1053C166 42.2056 166.004 41.1468 165.859 40.1386C165.711 39.1066 165.392 37.9817 164.647 36.9693C163.098 34.8653 160.321 34 156.286 34.0001L156.286 38.0001C159.965 38 161.045 38.8234 161.425 39.3401C161.644 39.638 161.807 40.0565 161.9 40.7062C161.996 41.3798 162 42.1411 162 43.1053H166ZM156.286 51.5C160.196 51.5 162.969 50.8647 164.559 48.9971C165.36 48.0557 165.701 46.9798 165.856 45.9849C166.005 45.0278 166 43.9968 166 43.1053H162C162 44.0778 161.995 44.7781 161.903 45.3695C161.817 45.9231 161.676 46.2129 161.513 46.4042C161.174 46.8019 160.09 47.5 156.286 47.5V51.5ZM137.482 51.5H156.286V47.5H137.482V51.5ZM131.286 56.25C131.286 53.8947 133.239 51.5 137.482 51.5V47.5C131.607 47.5 127.286 51.1496 127.286 56.25H131.286ZM131.286 61.6867V56.25H127.286V61.6867H131.286ZM129.482 63.677C130.126 63.6134 130.837 63.579 131.621 63.579V59.579C130.721 59.579 129.878 59.6184 129.089 59.6964L129.482 63.677ZM131.621 63.579H155.068V59.579H131.621V63.579ZM155.068 63.579C158.788 63.579 160.343 64.3518 161.033 65.058C161.711 65.7516 162 66.8273 162 68.6842H166C166 66.6169 165.729 64.1401 163.894 62.2621C162.07 60.3967 159.16 59.579 155.068 59.579V63.579ZM162 68.6842C162 68.8147 161.988 68.9264 161.967 69.0237L165.879 69.8579C165.961 69.4723 166 69.0803 166 68.6842H162ZM161.946 69.7474C161.98 69.9652 162 70.2081 162 70.4792H166C166 70.018 165.967 69.5693 165.899 69.1342L161.946 69.7474ZM162 70.4792V84.6149H166V70.4792H162ZM162 84.6149C162 85.4786 161.806 85.9947 161.582 86.3269C161.356 86.6634 160.99 86.9734 160.379 87.2388C159.056 87.813 157.03 88 154.357 88V92C157.009 92 159.804 91.849 161.972 90.9079C163.105 90.4157 164.152 89.6738 164.901 88.5591C165.654 87.4401 166 86.1058 166 84.6149H162ZM154.357 88C151.683 88 149.657 87.813 148.335 87.2388C147.723 86.9734 147.358 86.6634 147.131 86.3269C146.908 85.9947 146.714 85.4786 146.714 84.6149H142.714C142.714 86.1058 143.06 87.4401 143.812 88.5591C144.562 89.6738 145.608 90.4157 146.742 90.9079C148.909 91.849 151.705 92 154.357 92V88ZM146.714 84.6149V75.7895H142.714V84.6149H146.714ZM144.714 73.7895H137V77.7895H144.714V73.7895ZM137 73.7895H131.621V77.7895H137V73.7895ZM131.621 73.7895C130.837 73.7895 130.126 73.7551 129.482 73.6915L129.089 77.6721C129.878 77.7501 130.721 77.7895 131.621 77.7895V73.7895ZM131.286 83.25V75.6818H127.286V83.25H131.286ZM119.161 92C122.059 92 124.968 91.1423 127.202 89.705C129.39 88.2978 131.286 86.0739 131.286 83.25H127.286C127.286 84.154 126.649 85.3051 125.038 86.3409C123.475 87.3467 121.322 88 119.161 88V92Z" fill="#5D69F5" mask="url(#path-5-inside-3_59_968)"/>
<mask id="path-7-inside-4_59_968" fill="white">
<path fill-rule="evenodd" clip-rule="evenodd" d="M44.4216 164C39.7705 164 36 159.971 36 155V119C36 119 36 119 36 119C36 114.029 39.7705 110 44.4216 110H80.95C80.9552 110 80.9603 110 80.9655 110L81 110C81.0917 110 81.1831 110.001 81.2742 110.004C85.8036 110.119 90 112.645 90 117.5C90 117.889 90 118.282 89.9943 118.676C89.9981 118.783 90 118.891 90 119V155C90 159.971 85.9707 164 81 164C76.0293 164 72 159.971 72 155V132.5C72 130.015 69.9849 128 67.5 128H67.2626V134C67.2626 137.314 65.354 140 62.9995 140C60.6449 140 58.7363 137.314 58.7363 134V128H57.0461C54.7242 128.005 52.8432 130.018 52.8432 132.5V143.755V155C52.8432 159.971 49.0727 164 44.4216 164Z"/>
</mask>
<path fill-rule="evenodd" clip-rule="evenodd" d="M44.4216 164C39.7705 164 36 159.971 36 155V119C36 119 36 119 36 119C36 114.029 39.7705 110 44.4216 110H80.95C80.9552 110 80.9603 110 80.9655 110L81 110C81.0917 110 81.1831 110.001 81.2742 110.004C85.8036 110.119 90 112.645 90 117.5C90 117.889 90 118.282 89.9943 118.676C89.9981 118.783 90 118.891 90 119V155C90 159.971 85.9707 164 81 164C76.0293 164 72 159.971 72 155V132.5C72 130.015 69.9849 128 67.5 128H67.2626V134C67.2626 137.314 65.354 140 62.9995 140C60.6449 140 58.7363 137.314 58.7363 134V128H57.0461C54.7242 128.005 52.8432 130.018 52.8432 132.5V143.755V155C52.8432 159.971 49.0727 164 44.4216 164Z" fill="url(#paint4_linear_59_968)"/>
<path d="M80.9655 110L80.963 112H80.9655L80.9655 110ZM81 110L81 108L81 110ZM81.2742 110.004L81.2144 112.003L81.2235 112.003L81.2742 110.004ZM89.9943 118.676L87.9945 118.647L87.9938 118.697L87.9955 118.747L89.9943 118.676ZM67.2626 128V126H65.2626V128H67.2626ZM58.7363 128H60.7363V126H58.7363V128ZM57.0461 128L57.0461 126L57.0422 126L57.0461 128ZM34 155C34 160.948 38.5429 166 44.4216 166V162C40.9981 162 38 158.993 38 155H34ZM34 119V155H38V119H34ZM38 119C38 119 38 119 38 119C38 119 38 119 38 119C38 119 38 119 38 119C38 119 38 119 38 119C38 119 38 119 38 119C38 119 38 119 38 119C38 119 38 119 38 119C38 119 38 119 38 119C38 119 38 119 38 119C38 119 38 119 38 119C38 119 38 119 38 119C38 119 38 119 38 119C38 119 38 119 38 119C38 119 38 119 38 119C38 119 38 119 38 119C38 119 38 119 38 119C38 119 38 119 38 119C38 119 38 119 38 119C38 119 38 119 38 119C38 119 38 119 38 119C38 119 38 119 38 119C38 119 38 119 38 119C38 119 38 119 38 119C38 119 38 119 38 119C38 119 38 119 38 119C38 119 38 119 38 119C38 119 38 119 38 119C38 119 38 119 38 119C38 119 38 119 38 119C38 119 38 119 38 119C38 119 38 119 38 119C38 119 38 119 38 119C38 119 38 119 38 119C38 119 38 119 38 119C38 119 38 119 38 119C38 119 38 119 38 119C38 119 38 119 38 119C38 119 38 119 38 119C38 119 38 119 38 119C38 119 38 119 38 119C38 119 38 119 38 119C38 119 38 119 38 119C38 119 38 119 38 119C38 119 38 119 38 119C38 119 38 119 38 119C38 119 38 119 38 119C38 119 38 119 38 119C38 119 38 119 38 119C38 119 38 119 38 119C38 119 38 119 38 119C38 119 38 119 38 119C38 119 38 119 38 119C38 119 38 119 38 119C38 119 38 119 38 119C38 119 38 119 38 119C38 119 38 119 38 119C38 119 38 119 38 119C38 119 38 119 38 119C38 119 38 119 38 119C38 119 38 119 38 119C38 119 38 119 38 119C38 119 38 119 38 119C38 119 38 119 38 119C38 119 38 119 38 119C38 119 38 119 38 119C38 119 38 119 38 119C38 119 38 119 38 119C38 119 38 119 38 119C38 119 38 119 38 119C38 119 38 119 38 119C38 119 38 119 38 119C38 119 38 119 38 119C38 119 38 119 38 119C38 119 38 119 38 119C38 119 38 119 38 119C38 119 38 119 38 119C38 119 38 119 38 119C38 119 38 119 38 119C38 119 38 119 38 119C38 119 38 119 38 119C38 119 38 119 38 119C38 119 38 119 38 119C38 119 38 119 38 119C38 119 38 119 38 119C38 119 38 119 38 119C38 119 38 119 38 119C38 119 38 119 38 119C38 119 38 119 38 119C38 119 38 119 38 119C38 119 38 119 38 119C38 119 38 119 38 119C38 119 38 119 38 119C38 119 38 119 38 119C38 119 38 119 38 119C38 119 38 119 38 119C38 119 38 119 38 119C38 119 38 119 38 119C38 119 38 119 38 119C38 119 38 119 38 119C38 119 38 119 38 119C38 119 38 119 38 119C38 119 38 119 38 119C38 119 38 119 38 119C38 119 38 119 38 119C38 119 38 119 38 119C38 119 38 119 38 119C38 119 38 119 38 119C38 119 38 119 38 119C38 119 38 119 38 119C38 119 38 119 38 119C38 119 38 119 38 119C38 119 38 119 38 119C38 119 38 119 38 119C38 119 38 119 38 119C38 119 38 119 38 119C38 119 38 119 38 119C38 119 38 119 38 119C38 119 38 119 38 119C38 119 38 119 38 119C38 119 38 119 38 119C38 119 38 119 38 119C38 119 38 119 38 119C38 119 38 119 38 119C38 119 38 119 38 119C38 119 38 119 38 119C38 119 38 119 38 119C38 119 38 119 38 119C38 119 38 119 38 119C38 119 38 119 38 119C38 119 38 119 38 119C38 119 38 119 38 119C38 119 38 119 38 119C38 119 38 119 38 119C38 119 38 119 38 119C38 119 38 119 38 119C38 119 38 119 38 119C38 119 38 119 38 119C38 119 38 119 38 119C38 119 38 119 38 119C38 119 38 119 38 119C38 119 38 119 38 119C38 119 38 119 38 119C38 119 38 119 38 119C38 119 38 119 38 119C38 119 38 119 38 119C38 119 38 119 38 119C38 119 38 119 38 119C38 119 38 119 38 119C38 119 38 119 38 119C38 119 38 119 38 119C38 119 38 119 38 119C38 119 38 119 38 119C38 119 38 119 38 119C38 119 38 119 38 119C38 119 38 119 38 119C38 119 38 119 38 119C38 119 38 119 38 119C38 119 38 119 38 119C38 119 38 119 38 119C38 119 38 119 38 119C38 119 38 119 38 119C38 119 38 119 38 119C38 119 38 119 38 119C38 119 38 119 38 119C38 119 38 119 38 119C38 119 38 119 38 119C38 119 38 119 38 119C38 119 38 119 38 119C38 119 38 119 38 119C38 119 38 119 38 119C38 119 38 119 38 119C38 119 38 119 38 119C38 119 38 119 38 119C38 119 38 119 38 119C38 119 38 119 38 119C38 119 38 119 38 119C38 119 38 119 38 119C38 119 38 119 38 119C38 119 38 119 38 119C38 119 38 119 38 119C38 119 38 119 38 119C38 119 38 119 38 119C38 119 38 119 38 119C38 119 38 119 38 119C38 119 38 119 38 119C38 119 38 119 38 119C38 119 38 119 38 119C38 119 38 119 38 119C38 119 38 119 38 119C38 119 38 119 38 119C38 119 38 119 38 119C38 119 38 119 38 119C38 119 38 119 38 119C38 119 38 119 38 119C38 119 38 119 38 119C38 119 38 119 38 119C38 119 38 119 38 119C38 119 38 119 38 119C38 119 38 119 38 119C38 119 38 119 38 119C38 119 38 119 38 119C38 119 38 119 38 119C38 119 38 119 38 119C38 119 38 119 38 119C38 119 38 119 38 119C38 119 38 119 38 119C38 119 38 119 38 119C38 119 38 119 38 119C38 119 38 119 38 119C38 119 38 119 38 119C38 119 38 119 38 119C38 119 38 119 38 119C38 119 38 119 38 119C38 119 38 119 38 119C38 119 38 119 38 119C38 119 38 119 38 119C38 119 38 119 38 119C38 119 38 119 38 119C38 119 38 119 38 119C38 119 38 119 38 119C38 119 38 119 38 119C38 119 38 119 38 119C38 119 38 119 38 119C38 119 38 119 38 119C38 119 38 119 38 119C38 119 38 119 38 119C38 119 38 119 38 119C38 119 38 119 38 119C38 119 38 119 38 119C38 119 38 119 38 119C38 119 38 119 38 119C38 119 38 119 38 119C38 119 38 119 38 119C38 119 38 119 38 119C38 119 38 119 38 119C38 119 38 119 38 119C38 119 38 119 38 119C38 119 38 119 38 119C38 119 38 119 38 119C38 119 38 119 38 119C38 119 38 119 38 119C38 119 38 119 38 119C38 119 38 119 38 119C38 119 38 119 38 119C38 119 38 119 38 119C38 119 38 119 38 119C38 119 38 119 38 119C38 119 38 119 38 119C38 119 38 119 38 119C38 119 38 119 38 119C38 119 38 119 38 119C38 119 38 119 38 119C38 119 38 119 38 119C38 119 38 119 38 119C38 119 38 119 38 119C38 119 38 119 38 119C38 119 38 119 38 119C38 119 38 119 38 119C38 119 38 119 38 119C38 119 38 119 38 119C38 119 38 119 38 119C38 119 38 119 38 119C38 119 38 119 38 119C38 119 38 119 38 119C38 119 38 119 38 119C38 119 38 119 38 119C38 119 38 119 38 119C38 119 38 119 38 119C38 119 38 119 38 119C38 119 38 119 38 119C38 119 38 119 38 119C38 119 38 119 38 119C38 119 38 119 38 119C38 119 38 119 38 119C38 119 38 119 38 119C38 119 38 119 38 119C38 119 38 119 38 119C38 119 38 119 38 119C38 119 38 119 38 119C38 119 38 119 38 119C38 119 38 119 38 119C38 119 38 119 38 119C38 119 38 119 38 119C38 119 38 119 38 119C38 119 38 119 38 119C38 119 38 119 38 119C38 119 38 119 38 119C38 119 38 119 38 119C38 119 38 119 38 119C38 119 38 119 38 119C38 119 38 119 38 119C38 119 38 119 38 119C38 119 38 119 38 119C38 119 38 119 38 119C38 119 38 119 38 119C38 119 38 119 38 119C38 119 38 119 38 119C38 119 38 119 38 119C38 119 38 119 38 119C38 119 38 119 38 119C38 119 38 119 38 119C38 119 38 119 38 119C38 119 38 119 38 119C38 119 38 119 38 119C38 119 38 119 38 119C38 119 38 119 38 119C38 119 38 119 38 119C38 119 38 119 38 119C38 119 38 119 38 119C38 119 38 119 38 119C38 119 38 119 38 119C38 119 38 119 38 119C38 119 38 119 38 119C38 119 38 119 38 119C38 119 38 119 38 119C38 119 38 119 38 119C38 119 38 119 38 119C38 119 38 119 38 119C38 119 38 119 38 119C38 119 38 119 38 119C38 119 38 119 38 119C38 119 38 119 38 119C38 119 38 119 38 119C38 119 38 119 38 119C38 119 38 119 38 119C38 119 38 119 38 119C38 119 38 119 38 119C38 119 38 119 38 119C38 119 38 119 38 119C38 119 38 119 38 119C38 119 38 119 38 119C38 119 38 119 38 119C38 119 38 119 38 119C38 119 38 119 38 119C38 119 38 119 38 119C38 119 38 119 38 119C38 119 38 119 38 119C38 119 38 119 38 119C38 119 38 119 38 119C38 119 38 119 38 119C38 119 38 119 38 119C38 119 38 119 38 119C38 119 38 119 38 119C38 119 38 119 38 119C38 119 38 119 38 119C38 119 38 119 38 119C38 119 38 119 38 119C38 119 38 119 38 119C38 119 38 119 38 119C38 119 38 119 38 119C38 119 38 119 38 119C38 119 38 119 38 119C38 119 38 119 38 119C38 119 38 119 38 119C38 119 38 119 38 119C38 119 38 119 38 119C38 119 38 119 38 119C38 119 38 119 38 119C38 119 38 119 38 119C38 119 38 119 38 119C38 119 38 119 38 119C38 119 38 119 38 119C38 119 38 119 38 119C38 119 38 119 38 119C38 119 38 119 38 119C38 119 38 119 38 119C38 119 38 119 38 119C38 119 38 119 38 119C38 119 38 119 38 119C38 119 38 119 38 119C38 119 38 119 38 119C38 119 38 119 38 119C38 119 38 119 38 119C38 119 38 119 38 119C38 119 38 119 38 119C38 119 38 119 38 119C38 119 38 119 38 119C38 119 38 119 38 119C38 119 38 119 38 119C38 119 38 119 38 119C38 119 38 119 38 119C38 119 38 119 38 119C38 119 38 119 38 119C38 119 38 119 38 119C38 119 38 119 38 119C38 119 38 119 38 119C38 119 38 119 38 119C38 119 38 119 38 119C38 119 38 119 38 119C38 119 38 119 38 119C38 119 38 119 38 119C38 119 38 119 38 119C38 119 38 119 38 119C38 119 38 119 38 119C38 119 38 119 38 119C38 119 38 119 38 119C38 119 38 119 38 119C38 119 38 119 38 119C38 119 38 119 38 119C38 119 38 119 38 119C38 119 38 119 38 119C38 119 38 119 38 119C38 119 38 119 38 119C38 119 38 119 38 119C38 119 38 119 38 119C38 119 38 119 38 119C38 119 38 119 38 119C38 119 38 119 38 119C38 119 38 119 38 119C38 119 38 119 38 119C38 119 38 119 38 119C38 119 38 119 38 119C38 119 38 119 38 119C38 119 38 119 38 119C38 119 38 119 38 119C38 119 38 119 38 119C38 119 38 119 38 119C38 119 38 119 38 119C38 119 38 119 38 119C38 119 38 119 38 119C38 119 38 119 38 119C38 119 38 119 38 119C38 119 38 119 38 119C38 119 38 119 38 119C38 119 38 119 38 119C38 119 38 119 38 119C38 119 38 119 38 119C38 119 38 119 38 119C38 119 38 119 38 119C38 119 38 119 38 119C38 119 38 119 38 119C38 119 38 119 38 119C38 119 38 119 38 119C38 119 38 119 38 119C38 119 38 119 38 119C38 119 38 119 38 119C38 119 38 119 38 119C38 119 38 119 38 119C38 119 38 119 38 119C38 119 38 119 38 119C38 119 38 119 38 119C38 119 38 119 38 119C38 119 38 119 38 119C38 119 38 119 38 119C38 119 38 119 38 119C38 119 38 119 38 119C38 119 38 119 38 119C38 119 38 119 38 119C38 119 38 119 38 119C38 119 38 119 38 119C38 119 38 119 38 119C38 119 38 119 38 119C38 119 38 119 38 119C38 119 38 119 38 119C38 119 38 119 38 119C38 119 38 119 38 119C38 119 38 119 38 119C38 119 38 119 38 119C38 119 38 119 38 119C38 119 38 119 38 119C38 119 38 119 38 119C38 119 38 119 38 119C38 119 38 119 38 119C38 119 38 119 38 119C38 119 38 119 38 119C38 119 38 119 38 119C38 119 38 119 38 119C38 119 38 119 38 119C38 119 38 119 38 119C38 119 38 119 38 119C38 119 38 119 38 119C38 119 38 119 38 119C38 119 38 119 38 119C38 119 38 119 38 119C38 119 38 119 38 119C38 119 38 119 38 119C38 119 38 119 38 119C38 119 38 119 38 119C38 119 38 119 38 119C38 119 38 119 38 119C38 119 38 119 38 119C38 119 38 119 38 119C38 119 38 119 38 119C38 119 38 119 38 119C38 119 38 119 38 119C38 119 38 119 38 119C38 119 38 119 38 119C38 119 38 119 38 119C38 119 38 119 38 119C38 119 38 119 38 119C38 119 38 119 38 119C38 119 38 119 38 119C38 119 38 119 38 119C38 119 38 119 38 119C38 119 38 119 38 119C38 119 38 119 38 119C38 119 38 119 38 119C38 119 38 119 38 119C38 119 38 119 38 119C38 119 38 119 38 119C38 119 38 119 38 119C38 119 38 119 38 119C38 119 38 119 38 119C38 119 38 119 38 119C38 119 38 119 38 119C38 119 38 119 38 119C38 119 38 119 38 119C38 119 38 119 38 119C38 119 38 119 38 119C38 119 38 119 38 119C38 119 38 119 38 119C38 119 38 119 38 119H34C34 119 34 119 34 119C34 119 34 119 34 119C34 119 34 119 34 119C34 119 34 119 34 119C34 119 34 119 34 119C34 119 34 119 34 119C34 119 34 119 34 119C34 119 34 119 34 119C34 119 34 119 34 119C34 119 34 119 34 119C34 119 34 119 34 119C34 119 34 119 34 119C34 119 34 119 34 119C34 119 34 119 34 119C34 119 34 119 34 119C34 119 34 119 34 119C34 119 34 119 34 119C34 119 34 119 34 119C34 119 34 119 34 119C34 119 34 119 34 119C34 119 34 119 34 119C34 119 34 119 34 119C34 119 34 119 34 119C34 119 34 119 34 119C34 119 34 119 34 119C34 119 34 119 34 119C34 119 34 119 34 119C34 119 34 119 34 119C34 119 34 119 34 119C34 119 34 119 34 119C34 119 34 119 34 119C34 119 34 119 34 119C34 119 34 119 34 119C34 119 34 119 34 119C34 119 34 119 34 119C34 119 34 119 34 119C34 119 34 119 34 119C34 119 34 119 34 119C34 119 34 119 34 119C34 119 34 119 34 119C34 119 34 119 34 119C34 119 34 119 34 119C34 119 34 119 34 119C34 119 34 119 34 119C34 119 34 119 34 119C34 119 34 119 34 119C34 119 34 119 34 119C34 119 34 119 34 119C34 119 34 119 34 119C34 119 34 119 34 119C34 119 34 119 34 119C34 119 34 119 34 119C34 119 34 119 34 119C34 119 34 119 34 119C34 119 34 119 34 119C34 119 34 119 34 119C34 119 34 119 34 119C34 119 34 119 34 119C34 119 34 119 34 119C34 119 34 119 34 119C34 119 34 119 34 119C34 119 34 119 34 119C34 119 34 119 34 119C34 119 34 119 34 119C34 119 34 119 34 119C34 119 34 119 34 119C34 119 34 119 34 119C34 119 34 119 34 119C34 119 34 119 34 119C34 119 34 119 34 119C34 119 34 119 34 119C34 119 34 119 34 119C34 119 34 119 34 119C34 119 34 119 34 119C34 119 34 119 34 119C34 119 34 119 34 119C34 119 34 119 34 119C34 119 34 119 34 119C34 119 34 119 34 119C34 119 34 119 34 119C34 119 34 119 34 119C34 119 34 119 34 119C34 119 34 119 34 119C34 119 34 119 34 119C34 119 34 119 34 119C34 119 34 119 34 119C34 119 34 119 34 119C34 119 34 119 34 119C34 119 34 119 34 119C34 119 34 119 34 119C34 119 34 119 34 119C34 119 34 119 34 119C34 119 34 119 34 119C34 119 34 119 34 119C34 119 34 119 34 119C34 119 34 119 34 119C34 119 34 119 34 119C34 119 34 119 34 119C34 119 34 119 34 119C34 119 34 119 34 119C34 119 34 119 34 119C34 119 34 119 34 119C34 119 34 119 34 119C34 119 34 119 34 119C34 119 34 119 34 119C34 119 34 119 34 119C34 119 34 119 34 119C34 119 34 119 34 119C34 119 34 119 34 119C34 119 34 119 34 119C34 119 34 119 34 119C34 119 34 119 34 119C34 119 34 119 34 119C34 119 34 119 34 119C34 119 34 119 34 119C34 119 34 119 34 119C34 119 34 119 34 119C34 119 34 119 34 119C34 119 34 119 34 119C34 119 34 119 34 119C34 119 34 119 34 119C34 119 34 119 34 119C34 119 34 119 34 119C34 119 34 119 34 119C34 119 34 119 34 119C34 119 34 119 34 119C34 119 34 119 34 119C34 119 34 119 34 119C34 119 34 119 34 119C34 119 34 119 34 119C34 119 34 119 34 119C34 119 34 119 34 119C34 119 34 119 34 119C34 119 34 119 34 119C34 119 34 119 34 119C34 119 34 119 34 119C34 119 34 119 34 119C34 119 34 119 34 119C34 119 34 119 34 119C34 119 34 119 34 119C34 119 34 119 34 119C34 119 34 119 34 119C34 119 34 119 34 119C34 119 34 119 34 119C34 119 34 119 34 119C34 119 34 119 34 119C34 119 34 119 34 119C34 119 34 119 34 119C34 119 34 119 34 119C34 119 34 119 34 119C34 119 34 119 34 119C34 119 34 119 34 119C34 119 34 119 34 119C34 119 34 119 34 119C34 119 34 119 34 119C34 119 34 119 34 119C34 119 34 119 34 119C34 119 34 119 34 119C34 119 34 119 34 119C34 119 34 119 34 119C34 119 34 119 34 119C34 119 34 119 34 119C34 119 34 119 34 119C34 119 34 119 34 119C34 119 34 119 34 119C34 119 34 119 34 119C34 119 34 119 34 119C34 119 34 119 34 119C34 119 34 119 34 119C34 119 34 119 34 119C34 119 34 119 34 119C34 119 34 119 34 119C34 119 34 119 34 119C34 119 34 119 34 119C34 119 34 119 34 119C34 119 34 119 34 119C34 119 34 119 34 119C34 119 34 119 34 119C34 119 34 119 34 119C34 119 34 119 34 119C34 119 34 119 34 119C34 119 34 119 34 119C34 119 34 119 34 119C34 119 34 119 34 119C34 119 34 119 34 119C34 119 34 119 34 119C34 119 34 119 34 119C34 119 34 119 34 119C34 119 34 119 34 119C34 119 34 119 34 119C34 119 34 119 34 119C34 119 34 119 34 119C34 119 34 119 34 119C34 119 34 119 34 119C34 119 34 119 34 119C34 119 34 119 34 119C34 119 34 119 34 119C34 119 34 119 34 119C34 119 34 119 34 119C34 119 34 119 34 119C34 119 34 119 34 119C34 119 34 119 34 119C34 119 34 119 34 119C34 119 34 119 34 119C34 119 34 119 34 119C34 119 34 119 34 119C34 119 34 119 34 119C34 119 34 119 34 119C34 119 34 119 34 119C34 119 34 119 34 119C34 119 34 119 34 119C34 119 34 119 34 119C34 119 34 119 34 119C34 119 34 119 34 119C34 119 34 119 34 119C34 119 34 119 34 119C34 119 34 119 34 119C34 119 34 119 34 119C34 119 34 119 34 119C34 119 34 119 34 119C34 119 34 119 34 119C34 119 34 119 34 119C34 119 34 119 34 119C34 119 34 119 34 119C34 119 34 119 34 119C34 119 34 119 34 119C34 119 34 119 34 119C34 119 34 119 34 119C34 119 34 119 34 119C34 119 34 119 34 119C34 119 34 119 34 119C34 119 34 119 34 119C34 119 34 119 34 119C34 119 34 119 34 119C34 119 34 119 34 119C34 119 34 119 34 119C34 119 34 119 34 119C34 119 34 119 34 119C34 119 34 119 34 119C34 119 34 119 34 119C34 119 34 119 34 119C34 119 34 119 34 119C34 119 34 119 34 119C34 119 34 119 34 119C34 119 34 119 34 119C34 119 34 119 34 119C34 119 34 119 34 119C34 119 34 119 34 119C34 119 34 119 34 119C34 119 34 119 34 119C34 119 34 119 34 119C34 119 34 119 34 119C34 119 34 119 34 119C34 119 34 119 34 119C34 119 34 119 34 119C34 119 34 119 34 119C34 119 34 119 34 119C34 119 34 119 34 119C34 119 34 119 34 119C34 119 34 119 34 119C34 119 34 119 34 119C34 119 34 119 34 119C34 119 34 119 34 119C34 119 34 119 34 119C34 119 34 119 34 119C34 119 34 119 34 119C34 119 34 119 34 119C34 119 34 119 34 119C34 119 34 119 34 119C34 119 34 119 34 119C34 119 34 119 34 119C34 119 34 119 34 119C34 119 34 119 34 119C34 119 34 119 34 119C34 119 34 119 34 119C34 119 34 119 34 119C34 119 34 119 34 119C34 119 34 119 34 119C34 119 34 119 34 119C34 119 34 119 34 119C34 119 34 119 34 119C34 119 34 119 34 119C34 119 34 119 34 119C34 119 34 119 34 119C34 119 34 119 34 119C34 119 34 119 34 119C34 119 34 119 34 119C34 119 34 119 34 119C34 119 34 119 34 119C34 119 34 119 34 119C34 119 34 119 34 119C34 119 34 119 34 119C34 119 34 119 34 119C34 119 34 119 34 119C34 119 34 119 34 119C34 119 34 119 34 119C34 119 34 119 34 119C34 119 34 119 34 119C34 119 34 119 34 119C34 119 34 119 34 119C34 119 34 119 34 119C34 119 34 119 34 119C34 119 34 119 34 119C34 119 34 119 34 119C34 119 34 119 34 119C34 119 34 119 34 119C34 119 34 119 34 119C34 119 34 119 34 119C34 119 34 119 34 119C34 119 34 119 34 119C34 119 34 119 34 119C34 119 34 119 34 119C34 119 34 119 34 119C34 119 34 119 34 119C34 119 34 119 34 119C34 119 34 119 34 119C34 119 34 119 34 119C34 119 34 119 34 119C34 119 34 119 34 119C34 119 34 119 34 119C34 119 34 119 34 119C34 119 34 119 34 119C34 119 34 119 34 119C34 119 34 119 34 119C34 119 34 119 34 119C34 119 34 119 34 119C34 119 34 119 34 119C34 119 34 119 34 119C34 119 34 119 34 119C34 119 34 119 34 119C34 119 34 119 34 119C34 119 34 119 34 119C34 119 34 119 34 119C34 119 34 119 34 119C34 119 34 119 34 119C34 119 34 119 34 119C34 119 34 119 34 119C34 119 34 119 34 119C34 119 34 119 34 119C34 119 34 119 34 119C34 119 34 119 34 119C34 119 34 119 34 119C34 119 34 119 34 119C34 119 34 119 34 119C34 119 34 119 34 119C34 119 34 119 34 119C34 119 34 119 34 119C34 119 34 119 34 119C34 119 34 119 34 119C34 119 34 119 34 119C34 119 34 119 34 119C34 119 34 119 34 119C34 119 34 119 34 119C34 119 34 119 34 119C34 119 34 119 34 119C34 119 34 119 34 119C34 119 34 119 34 119C34 119 34 119 34 119C34 119 34 119 34 119C34 119 34 119 34 119C34 119 34 119 34 119C34 119 34 119 34 119C34 119 34 119 34 119C34 119 34 119 34 119C34 119 34 119 34 119C34 119 34 119 34 119C34 119 34 119 34 119C34 119 34 119 34 119C34 119 34 119 34 119C34 119 34 119 34 119C34 119 34 119 34 119C34 119 34 119 34 119C34 119 34 119 34 119C34 119 34 119 34 119C34 119 34 119 34 119C34 119 34 119 34 119C34 119 34 119 34 119C34 119 34 119 34 119C34 119 34 119 34 119C34 119 34 119 34 119C34 119 34 119 34 119C34 119 34 119 34 119C34 119 34 119 34 119C34 119 34 119 34 119C34 119 34 119 34 119C34 119 34 119 34 119C34 119 34 119 34 119C34 119 34 119 34 119C34 119 34 119 34 119C34 119 34 119 34 119C34 119 34 119 34 119C34 119 34 119 34 119C34 119 34 119 34 119C34 119 34 119 34 119C34 119 34 119 34 119C34 119 34 119 34 119C34 119 34 119 34 119C34 119 34 119 34 119C34 119 34 119 34 119C34 119 34 119 34 119C34 119 34 119 34 119C34 119 34 119 34 119C34 119 34 119 34 119C34 119 34 119 34 119C34 119 34 119 34 119C34 119 34 119 34 119C34 119 34 119 34 119C34 119 34 119 34 119C34 119 34 119 34 119C34 119 34 119 34 119C34 119 34 119 34 119C34 119 34 119 34 119C34 119 34 119 34 119C34 119 34 119 34 119C34 119 34 119 34 119C34 119 34 119 34 119C34 119 34 119 34 119C34 119 34 119 34 119C34 119 34 119 34 119C34 119 34 119 34 119C34 119 34 119 34 119C34 119 34 119 34 119C34 119 34 119 34 119C34 119 34 119 34 119C34 119 34 119 34 119C34 119 34 119 34 119C34 119 34 119 34 119C34 119 34 119 34 119C34 119 34 119 34 119C34 119 34 119 34 119C34 119 34 119 34 119C34 119 34 119 34 119C34 119 34 119 34 119C34 119 34 119 34 119C34 119 34 119 34 119C34 119 34 119 34 119C34 119 34 119 34 119C34 119 34 119 34 119C34 119 34 119 34 119C34 119 34 119 34 119C34 119 34 119 34 119C34 119 34 119 34 119C34 119 34 119 34 119C34 119 34 119 34 119C34 119 34 119 34 119C34 119 34 119 34 119C34 119 34 119 34 119C34 119 34 119 34 119C34 119 34 119 34 119C34 119 34 119 34 119C34 119 34 119 34 119C34 119 34 119 34 119C34 119 34 119 34 119C34 119 34 119 34 119C34 119 34 119 34 119C34 119 34 119 34 119C34 119 34 119 34 119C34 119 34 119 34 119C34 119 34 119 34 119C34 119 34 119 34 119C34 119 34 119 34 119C34 119 34 119 34 119C34 119 34 119 34 119C34 119 34 119 34 119C34 119 34 119 34 119C34 119 34 119 34 119C34 119 34 119 34 119C34 119 34 119 34 119C34 119 34 119 34 119C34 119 34 119 34 119C34 119 34 119 34 119C34 119 34 119 34 119C34 119 34 119 34 119C34 119 34 119 34 119C34 119 34 119 34 119C34 119 34 119 34 119C34 119 34 119 34 119C34 119 34 119 34 119C34 119 34 119 34 119C34 119 34 119 34 119C34 119 34 119 34 119C34 119 34 119 34 119C34 119 34 119 34 119C34 119 34 119 34 119C34 119 34 119 34 119C34 119 34 119 34 119C34 119 34 119 34 119C34 119 34 119 34 119C34 119 34 119 34 119C34 119 34 119 34 119C34 119 34 119 34 119C34 119 34 119 34 119C34 119 34 119 34 119C34 119 34 119 34 119C34 119 34 119 34 119C34 119 34 119 34 119C34 119 34 119 34 119C34 119 34 119 34 119C34 119 34 119 34 119C34 119 34 119 34 119C34 119 34 119 34 119C34 119 34 119 34 119C34 119 34 119 34 119C34 119 34 119 34 119C34 119 34 119 34 119C34 119 34 119 34 119C34 119 34 119 34 119C34 119 34 119 34 119C34 119 34 119 34 119C34 119 34 119 34 119C34 119 34 119 34 119C34 119 34 119 34 119H38ZM44.4216 108C38.5429 108 34 113.052 34 119H38C38 115.007 40.9981 112 44.4216 112V108ZM80.95 108H44.4216V112H80.95V108ZM80.9679 108C80.9619 108 80.956 108 80.95 108V112C80.9544 112 80.9587 112 80.963 112L80.9679 108ZM80.9655 112L81 112L81 108L80.9655 108L80.9655 112ZM81 112C81.0718 112 81.1433 112.001 81.2144 112.003L81.334 108.005C81.223 108.002 81.1117 108 81 108V112ZM92 117.5C92 114.422 90.6386 112.005 88.5613 110.394C86.5384 108.825 83.9169 108.071 81.3249 108.005L81.2235 112.003C83.1609 112.053 84.9023 112.618 86.1099 113.555C87.2631 114.449 88 115.723 88 117.5H92ZM91.9941 118.705C92 118.295 92 117.887 92 117.5H88C88 117.892 88 118.27 87.9945 118.647L91.9941 118.705ZM87.9955 118.747C87.9985 118.831 88 118.915 88 119H92C92 118.868 91.9977 118.736 91.993 118.605L87.9955 118.747ZM88 119V155H92V119H88ZM88 155C88 158.866 84.8661 162 81 162V166C87.0753 166 92 161.075 92 155H88ZM81 162C77.1339 162 74 158.866 74 155H70C70 161.075 74.9247 166 81 166V162ZM74 155V132.5H70V155H74ZM74 132.5C74 128.91 71.0894 126 67.5 126V130C68.8804 130 70 131.119 70 132.5H74ZM67.5 126H67.2626V130H67.5V126ZM65.2626 128V134H69.2626V128H65.2626ZM65.2626 134C65.2626 135.29 64.8879 136.374 64.3837 137.084C63.8762 137.798 63.3585 138 62.9995 138V142C64.995 142 66.6089 140.858 67.6444 139.401C68.683 137.939 69.2626 136.023 69.2626 134H65.2626ZM62.9995 138C62.6405 138 62.1227 137.798 61.6153 137.084C61.111 136.374 60.7363 135.29 60.7363 134H56.7363C56.7363 136.023 57.3159 137.939 58.3546 139.401C59.3901 140.858 61.004 142 62.9995 142V138ZM60.7363 134V128H56.7363V134H60.7363ZM58.7363 126H57.0461V130H58.7363V126ZM54.8432 132.5C54.8432 130.994 55.9537 130.002 57.05 130L57.0422 126C53.4946 126.007 50.8432 129.042 50.8432 132.5H54.8432ZM54.8432 143.755V132.5H50.8432V143.755H54.8432ZM54.8432 155V143.755H50.8432V155H54.8432ZM44.4216 166C50.3004 166 54.8432 160.948 54.8432 155H50.8432C50.8432 158.993 47.8451 162 44.4216 162V166Z" fill="#5D69F5" mask="url(#path-7-inside-4_59_968)"/>
<path d="M81 37C85.4184 37 89 40.5818 89 45V81C89 85.4184 85.4184 89 81 89H45C40.5818 89 37 85.4184 37 81V45C37 40.5818 40.5818 37 45 37H81ZM73 58.5C73 55.4625 70.5375 53 67.5 53H58.5C55.4625 53 53 55.4625 53 58.5V67.5C53 70.5375 55.4625 73 58.5 73H67.5C70.5375 73 73 70.5375 73 67.5V58.5Z" fill="url(#paint5_linear_59_968)" stroke="#5D69F5" stroke-width="2"/>
<path d="M183.714 27.375C183.714 24.5082 182.279 21.9685 180.217 20.1691C178.157 18.3719 175.406 17.25 172.625 17.25L136.125 17.25C131.638 17.25 128 13.6124 128 9.125C128 4.63756 131.638 1 136.125 1L172.625 1C187.191 1 199 12.8081 199 27.375V63.875C199 68.3624 195.362 72 190.875 72C188.648 72 186.885 71.1069 185.665 69.678C184.432 68.2344 183.714 66.1943 183.714 63.875V44.944V27.375Z" fill="url(#paint6_linear_59_968)" stroke="#5D69F5" stroke-width="2"/>
<path d="M190.875 128C195.362 128 199 131.638 199 136.125V172.625C199 187.192 187.192 199 172.625 199H136.125C131.638 199 128 195.362 128 190.875C128 186.224 131.46 181.933 135.797 181.933H172.451C175.172 181.933 177.951 181.054 180.071 179.47C182.202 177.877 183.714 175.526 183.714 172.625V153.966V136.125C183.714 133.806 184.432 131.766 185.665 130.322C186.885 128.893 188.648 128 190.875 128Z" fill="url(#paint7_linear_59_968)" stroke="#5D69F5" stroke-width="2"/>
<path d="M16.5938 172.625C16.5938 178.417 22.0066 181.933 27.375 181.933H63.875C68.2558 181.933 72 186.275 72 190.875C72 195.362 68.3623 199 63.875 199H27.375C12.8085 199 1 187.192 1 172.625V136.125C1 131.638 4.63772 128 9.125 128C13.5164 128 16.5938 131.537 16.5938 136.125V172.625Z" fill="url(#paint8_linear_59_968)" stroke="#5D69F5" stroke-width="2"/>
<path d="M9.25 72C4.68064 72 1 68.3497 1 63.875V27.375C1 12.8209 12.9631 1 27.75 1H64.75C69.3194 1 73 4.65033 73 9.125C73 13.4564 68.6351 16.9776 63.9084 16.9776L28.2387 16.9776C25.4118 16.9776 22.5828 18.1761 20.4621 20.0343C18.3417 21.8921 16.835 24.4972 16.835 27.375L16.835 63.875C16.835 68.45 13.7228 72 9.25 72Z" fill="url(#paint9_linear_59_968)" stroke="#5D69F5" stroke-width="2"/>
<defs>
<linearGradient id="paint0_linear_59_968" x1="288.707" y1="198.737" x2="406.839" y2="38.3628" gradientUnits="userSpaceOnUse">
<stop stop-color="#AF17F6"/>
<stop offset="0.449681" stop-color="#784EF5"/>
<stop offset="0.529502" stop-color="#6F58F5"/>
<stop offset="0.59524" stop-color="#6561F5"/>
<stop offset="0.677137" stop-color="#5D69F5"/>
<stop offset="0.875" stop-color="#5077F4"/>
</linearGradient>
<linearGradient id="paint1_linear_59_968" x1="39.707" y1="179.737" x2="157.839" y2="19.3627" gradientUnits="userSpaceOnUse">
<stop stop-color="#AF17F6"/>
<stop offset="0.449681" stop-color="#784EF5"/>
<stop offset="0.529502" stop-color="#6F58F5"/>
<stop offset="0.59524" stop-color="#6561F5"/>
<stop offset="0.677137" stop-color="#5D69F5"/>
<stop offset="0.875" stop-color="#5077F4"/>
</linearGradient>
<linearGradient id="paint2_linear_59_968" x1="111" y1="164.5" x2="163.5" y2="111.5" gradientUnits="userSpaceOnUse">
<stop offset="0.226669" stop-color="#AF17F6"/>
<stop offset="0.334215" stop-color="#9531F6"/>
<stop offset="0.451693" stop-color="#784EF5"/>
<stop offset="0.539801" stop-color="#6F58F5"/>
<stop offset="0.643896" stop-color="#6561F5"/>
<stop offset="0.76967" stop-color="#5D69F5"/>
<stop offset="0.875" stop-color="#5077F4"/>
</linearGradient>
<linearGradient id="paint3_linear_59_968" x1="110" y1="90" x2="164" y2="35.9997" gradientUnits="userSpaceOnUse">
<stop offset="0.226669" stop-color="#AF17F6"/>
<stop offset="0.334215" stop-color="#9531F6"/>
<stop offset="0.451693" stop-color="#784EF5"/>
<stop offset="0.539801" stop-color="#6F58F5"/>
<stop offset="0.643896" stop-color="#6561F5"/>
<stop offset="0.76967" stop-color="#5D69F5"/>
<stop offset="0.875" stop-color="#5077F4"/>
</linearGradient>
<linearGradient id="paint4_linear_59_968" x1="36" y1="164" x2="86.3687" y2="106.802" gradientUnits="userSpaceOnUse">
<stop offset="0.22" stop-color="#AF17F6"/>
<stop offset="0.449681" stop-color="#784EF5"/>
<stop offset="0.529502" stop-color="#6F58F5"/>
<stop offset="0.59524" stop-color="#6561F5"/>
<stop offset="0.677137" stop-color="#5D69F5"/>
<stop offset="0.875" stop-color="#5077F4"/>
</linearGradient>
<linearGradient id="paint5_linear_59_968" x1="36.5" y1="89.5" x2="90" y2="37" gradientUnits="userSpaceOnUse">
<stop offset="0.226669" stop-color="#AF17F6"/>
<stop offset="0.334215" stop-color="#9531F6"/>
<stop offset="0.451693" stop-color="#784EF5"/>
<stop offset="0.539801" stop-color="#6F58F5"/>
<stop offset="0.643896" stop-color="#6561F5"/>
<stop offset="0.76967" stop-color="#5D69F5"/>
<stop offset="0.875" stop-color="#5077F4"/>
</linearGradient>
<linearGradient id="paint6_linear_59_968" x1="127" y1="73" x2="200.07" y2="0.0705717" gradientUnits="userSpaceOnUse">
<stop stop-color="#AF17F6"/>
<stop offset="0.449681" stop-color="#784EF5"/>
<stop offset="0.529502" stop-color="#6F58F5"/>
<stop offset="0.59524" stop-color="#6561F5"/>
<stop offset="0.677137" stop-color="#5D69F5"/>
<stop offset="0.875" stop-color="#5077F4"/>
</linearGradient>
<linearGradient id="paint7_linear_59_968" x1="127" y1="200" x2="196.799" y2="124.058" gradientUnits="userSpaceOnUse">
<stop stop-color="#AF17F6"/>
<stop offset="0.449681" stop-color="#784EF5"/>
<stop offset="0.529502" stop-color="#6F58F5"/>
<stop offset="0.59524" stop-color="#6561F5"/>
<stop offset="0.677137" stop-color="#5D69F5"/>
<stop offset="0.875" stop-color="#5077F4"/>
</linearGradient>
<linearGradient id="paint8_linear_59_968" x1="-1.50786e-06" y1="198.91" x2="73.3771" y2="127.071" gradientUnits="userSpaceOnUse">
<stop stop-color="#AF17F6"/>
<stop offset="0.449681" stop-color="#784EF5"/>
<stop offset="0.529502" stop-color="#6F58F5"/>
<stop offset="0.59524" stop-color="#6561F5"/>
<stop offset="0.677137" stop-color="#5D69F5"/>
<stop offset="0.875" stop-color="#5077F4"/>
</linearGradient>
<linearGradient id="paint9_linear_59_968" x1="2.25312e-06" y1="73" x2="71.856" y2="-2.05271" gradientUnits="userSpaceOnUse">
<stop stop-color="#AF17F6"/>
<stop offset="0.449681" stop-color="#784EF5"/>
<stop offset="0.529502" stop-color="#6F58F5"/>
<stop offset="0.59524" stop-color="#6561F5"/>
<stop offset="0.677137" stop-color="#5D69F5"/>
<stop offset="0.875" stop-color="#5077F4"/>
</linearGradient>
</defs>
</svg>
