<svg width="200" height="201" viewBox="0 0 200 201" fill="none" xmlns="http://www.w3.org/2000/svg">
<path d="M79.2007 196.25H78.6757C76.609 196.25 75.5757 195.15 75.5757 192.95V186.85C75.5757 184.65 76.609 183.55 78.6757 183.55H79.2007C80.4007 183.55 81.259 183.933 81.7757 184.7V183.8H84.6007V199.975H81.2507V195.65C80.734 196.05 80.0507 196.25 79.2007 196.25ZM81.2507 193.35V186.45C81.2507 186.317 81.2007 186.2 81.1007 186.1C81.0174 186 80.909 185.95 80.7757 185.95H79.4007C79.2674 185.95 79.1507 186 79.0507 186.1C78.9674 186.2 78.9257 186.317 78.9257 186.45V193.35C78.9257 193.483 78.9674 193.6 79.0507 193.7C79.1507 193.8 79.2674 193.85 79.4007 193.85H80.7757C80.909 193.85 81.0174 193.8 81.1007 193.7C81.2007 193.6 81.2507 193.483 81.2507 193.35ZM92.0794 183.55H92.7294V186.8H91.0794C90.5127 186.8 90.2294 187.092 90.2294 187.675V196H86.8794V183.8H89.9294V184.975C90.4127 184.025 91.1294 183.55 92.0794 183.55ZM110.282 183.55C112.348 183.55 113.382 184.65 113.382 186.85V196H110.032V186.45C110.032 186.317 109.982 186.2 109.882 186.1C109.798 186 109.69 185.95 109.557 185.95H108.482C108.348 185.95 108.232 186 108.132 186.1C108.048 186.2 108.007 186.317 108.007 186.45V196H104.657V186.45C104.657 186.317 104.607 186.2 104.507 186.1C104.423 186 104.315 185.95 104.182 185.95H103.107C102.973 185.95 102.857 186 102.757 186.1C102.673 186.2 102.632 186.317 102.632 186.45V196H99.2817V183.8H102.332V184.425C102.848 183.842 103.632 183.55 104.682 183.55H104.907C106.14 183.55 106.998 183.933 107.482 184.7C107.998 183.933 108.857 183.55 110.057 183.55H110.282ZM121.735 183.55C123.802 183.55 124.835 184.65 124.835 186.85V190.8H119.16V193.35C119.16 193.483 119.202 193.6 119.285 193.7C119.385 193.8 119.502 193.85 119.635 193.85H121.01C121.143 193.85 121.252 193.8 121.335 193.7C121.435 193.6 121.485 193.483 121.485 193.35V192H124.835V192.95C124.835 195.15 123.802 196.25 121.735 196.25H118.91C116.843 196.25 115.81 195.15 115.81 192.95V186.85C115.81 184.65 116.843 183.55 118.91 183.55H121.735ZM119.16 188.6H121.485V186.35C121.485 186.217 121.435 186.1 121.335 186C121.252 185.9 121.143 185.85 121.01 185.85H119.635C119.502 185.85 119.385 185.9 119.285 186C119.202 186.1 119.16 186.217 119.16 186.35V188.6Z" fill="url(#paint0_linear_87_328)"/>
<path d="M79.2007 196.25H78.6757C76.609 196.25 75.5757 195.15 75.5757 192.95V186.85C75.5757 184.65 76.609 183.55 78.6757 183.55H79.2007C80.4007 183.55 81.259 183.933 81.7757 184.7V183.8H84.6007V199.975H81.2507V195.65C80.734 196.05 80.0507 196.25 79.2007 196.25ZM81.2507 193.35V186.45C81.2507 186.317 81.2007 186.2 81.1007 186.1C81.0174 186 80.909 185.95 80.7757 185.95H79.4007C79.2674 185.95 79.1507 186 79.0507 186.1C78.9674 186.2 78.9257 186.317 78.9257 186.45V193.35C78.9257 193.483 78.9674 193.6 79.0507 193.7C79.1507 193.8 79.2674 193.85 79.4007 193.85H80.7757C80.909 193.85 81.0174 193.8 81.1007 193.7C81.2007 193.6 81.2507 193.483 81.2507 193.35ZM92.0794 183.55H92.7294V186.8H91.0794C90.5127 186.8 90.2294 187.092 90.2294 187.675V196H86.8794V183.8H89.9294V184.975C90.4127 184.025 91.1294 183.55 92.0794 183.55ZM110.282 183.55C112.348 183.55 113.382 184.65 113.382 186.85V196H110.032V186.45C110.032 186.317 109.982 186.2 109.882 186.1C109.798 186 109.69 185.95 109.557 185.95H108.482C108.348 185.95 108.232 186 108.132 186.1C108.048 186.2 108.007 186.317 108.007 186.45V196H104.657V186.45C104.657 186.317 104.607 186.2 104.507 186.1C104.423 186 104.315 185.95 104.182 185.95H103.107C102.973 185.95 102.857 186 102.757 186.1C102.673 186.2 102.632 186.317 102.632 186.45V196H99.2817V183.8H102.332V184.425C102.848 183.842 103.632 183.55 104.682 183.55H104.907C106.14 183.55 106.998 183.933 107.482 184.7C107.998 183.933 108.857 183.55 110.057 183.55H110.282ZM121.735 183.55C123.802 183.55 124.835 184.65 124.835 186.85V190.8H119.16V193.35C119.16 193.483 119.202 193.6 119.285 193.7C119.385 193.8 119.502 193.85 119.635 193.85H121.01C121.143 193.85 121.252 193.8 121.335 193.7C121.435 193.6 121.485 193.483 121.485 193.35V192H124.835V192.95C124.835 195.15 123.802 196.25 121.735 196.25H118.91C116.843 196.25 115.81 195.15 115.81 192.95V186.85C115.81 184.65 116.843 183.55 118.91 183.55H121.735ZM119.16 188.6H121.485V186.35C121.485 186.217 121.435 186.1 121.335 186C121.252 185.9 121.143 185.85 121.01 185.85H119.635C119.502 185.85 119.385 185.9 119.285 186C119.202 186.1 119.16 186.217 119.16 186.35V188.6Z" fill="url(#paint1_linear_87_328)"/>
<path d="M186.75 79.2007V78.6757C186.75 76.609 187.85 75.5757 190.05 75.5757H196.15C198.35 75.5757 199.45 76.609 199.45 78.6757V79.2007C199.45 80.4007 199.067 81.259 198.3 81.7757H199.2V84.6007H183.025V81.2507H187.35C186.95 80.734 186.75 80.0507 186.75 79.2007ZM189.65 81.2507H196.55C196.683 81.2507 196.8 81.2007 196.9 81.1007C197 81.0174 197.05 80.909 197.05 80.7757V79.4007C197.05 79.2674 197 79.1507 196.9 79.0507C196.8 78.9674 196.683 78.9257 196.55 78.9257H189.65C189.517 78.9257 189.4 78.9674 189.3 79.0507C189.2 79.1507 189.15 79.2674 189.15 79.4007V80.7757C189.15 80.909 189.2 81.0174 189.3 81.1007C189.4 81.2007 189.517 81.2507 189.65 81.2507ZM199.45 92.0794V92.7294H196.2V91.0794C196.2 90.5127 195.908 90.2294 195.325 90.2294H187V86.8794H199.2V89.9294H198.025C198.975 90.4127 199.45 91.1294 199.45 92.0794ZM199.45 110.282C199.45 112.348 198.35 113.382 196.15 113.382H187V110.032H196.55C196.683 110.032 196.8 109.982 196.9 109.882C197 109.798 197.05 109.69 197.05 109.557V108.482C197.05 108.348 197 108.232 196.9 108.132C196.8 108.048 196.683 108.007 196.55 108.007H187V104.657H196.55C196.683 104.657 196.8 104.607 196.9 104.507C197 104.423 197.05 104.315 197.05 104.182V103.107C197.05 102.973 197 102.857 196.9 102.757C196.8 102.673 196.683 102.632 196.55 102.632H187V99.2817H199.2V102.332H198.575C199.158 102.848 199.45 103.632 199.45 104.682V104.907C199.45 106.14 199.067 106.998 198.3 107.482C199.067 107.998 199.45 108.857 199.45 110.057V110.282ZM199.45 121.735C199.45 123.802 198.35 124.835 196.15 124.835H192.2V119.16H189.65C189.517 119.16 189.4 119.202 189.3 119.285C189.2 119.385 189.15 119.502 189.15 119.635V121.01C189.15 121.143 189.2 121.252 189.3 121.335C189.4 121.435 189.517 121.485 189.65 121.485H191V124.835H190.05C187.85 124.835 186.75 123.802 186.75 121.735V118.91C186.75 116.843 187.85 115.81 190.05 115.81H196.15C198.35 115.81 199.45 116.843 199.45 118.91V121.735ZM194.4 119.16V121.485H196.65C196.783 121.485 196.9 121.435 197 121.335C197.1 121.252 197.15 121.143 197.15 121.01V119.635C197.15 119.502 197.1 119.385 197 119.285C196.9 119.202 196.783 119.16 196.65 119.16H194.4Z" fill="url(#paint2_linear_87_328)"/>
<path d="M186.75 79.2007V78.6757C186.75 76.609 187.85 75.5757 190.05 75.5757H196.15C198.35 75.5757 199.45 76.609 199.45 78.6757V79.2007C199.45 80.4007 199.067 81.259 198.3 81.7757H199.2V84.6007H183.025V81.2507H187.35C186.95 80.734 186.75 80.0507 186.75 79.2007ZM189.65 81.2507H196.55C196.683 81.2507 196.8 81.2007 196.9 81.1007C197 81.0174 197.05 80.909 197.05 80.7757V79.4007C197.05 79.2674 197 79.1507 196.9 79.0507C196.8 78.9674 196.683 78.9257 196.55 78.9257H189.65C189.517 78.9257 189.4 78.9674 189.3 79.0507C189.2 79.1507 189.15 79.2674 189.15 79.4007V80.7757C189.15 80.909 189.2 81.0174 189.3 81.1007C189.4 81.2007 189.517 81.2507 189.65 81.2507ZM199.45 92.0794V92.7294H196.2V91.0794C196.2 90.5127 195.908 90.2294 195.325 90.2294H187V86.8794H199.2V89.9294H198.025C198.975 90.4127 199.45 91.1294 199.45 92.0794ZM199.45 110.282C199.45 112.348 198.35 113.382 196.15 113.382H187V110.032H196.55C196.683 110.032 196.8 109.982 196.9 109.882C197 109.798 197.05 109.69 197.05 109.557V108.482C197.05 108.348 197 108.232 196.9 108.132C196.8 108.048 196.683 108.007 196.55 108.007H187V104.657H196.55C196.683 104.657 196.8 104.607 196.9 104.507C197 104.423 197.05 104.315 197.05 104.182V103.107C197.05 102.973 197 102.857 196.9 102.757C196.8 102.673 196.683 102.632 196.55 102.632H187V99.2817H199.2V102.332H198.575C199.158 102.848 199.45 103.632 199.45 104.682V104.907C199.45 106.14 199.067 106.998 198.3 107.482C199.067 107.998 199.45 108.857 199.45 110.057V110.282ZM199.45 121.735C199.45 123.802 198.35 124.835 196.15 124.835H192.2V119.16H189.65C189.517 119.16 189.4 119.202 189.3 119.285C189.2 119.385 189.15 119.502 189.15 119.635V121.01C189.15 121.143 189.2 121.252 189.3 121.335C189.4 121.435 189.517 121.485 189.65 121.485H191V124.835H190.05C187.85 124.835 186.75 123.802 186.75 121.735V118.91C186.75 116.843 187.85 115.81 190.05 115.81H196.15C198.35 115.81 199.45 116.843 199.45 118.91V121.735ZM194.4 119.16V121.485H196.65C196.783 121.485 196.9 121.435 197 121.335C197.1 121.252 197.15 121.143 197.15 121.01V119.635C197.15 119.502 197.1 119.385 197 119.285C196.9 119.202 196.783 119.16 196.65 119.16H194.4Z" fill="url(#paint3_linear_87_328)"/>
<path d="M13.25 121.799V122.324C13.25 124.391 12.15 125.424 9.95 125.424H3.85C1.65 125.424 0.549999 124.391 0.549999 122.324L0.549999 121.799C0.549999 120.599 0.933333 119.741 1.7 119.224H0.799999L0.799999 116.399H16.975V119.749H12.65C13.05 120.266 13.25 120.949 13.25 121.799ZM10.35 119.749H3.45C3.31667 119.749 3.2 119.799 3.1 119.899C3 119.983 2.95 120.091 2.95 120.224V121.599C2.95 121.733 3 121.849 3.1 121.949C3.2 122.033 3.31667 122.074 3.45 122.074H10.35C10.4833 122.074 10.6 122.033 10.7 121.949C10.8 121.849 10.85 121.733 10.85 121.599V120.224C10.85 120.091 10.8 119.983 10.7 119.899C10.6 119.799 10.4833 119.749 10.35 119.749ZM0.549999 108.921V108.271H3.8V109.921C3.8 110.487 4.09167 110.771 4.675 110.771H13V114.121H0.799999L0.799999 111.071H1.975C1.025 110.587 0.549999 109.871 0.549999 108.921ZM0.549999 90.7183C0.549999 88.6516 1.65 87.6183 3.85 87.6183H13V90.9683H3.45C3.31667 90.9683 3.2 91.0183 3.1 91.1183C3 91.2016 2.95 91.3099 2.95 91.4433V92.5183C2.95 92.6516 3 92.7683 3.1 92.8683C3.2 92.9516 3.31667 92.9933 3.45 92.9933H13V96.3433H3.45C3.31667 96.3433 3.2 96.3933 3.1 96.4933C3 96.5766 2.95 96.6849 2.95 96.8183V97.8933C2.95 98.0266 3 98.1433 3.1 98.2433C3.2 98.3266 3.31667 98.3683 3.45 98.3683H13L13 101.718H0.799999L0.799999 98.6683H1.425C0.841666 98.1516 0.549999 97.3683 0.549999 96.3183V96.0933C0.549999 94.8599 0.933333 94.0016 1.7 93.5183C0.933333 93.0016 0.549999 92.1433 0.549999 90.9433V90.7183ZM0.549999 79.2649C0.549999 77.1983 1.65 76.1649 3.85 76.1649H7.8L7.8 81.8399H10.35C10.4833 81.8399 10.6 81.7983 10.7 81.7149C10.8 81.6149 10.85 81.4983 10.85 81.3649V79.9899C10.85 79.8566 10.8 79.7483 10.7 79.6649C10.6 79.5649 10.4833 79.5149 10.35 79.5149H9V76.1649H9.95C12.15 76.1649 13.25 77.1983 13.25 79.2649V82.0899C13.25 84.1566 12.15 85.1899 9.95 85.1899H3.85C1.65 85.1899 0.549999 84.1566 0.549999 82.0899L0.549999 79.2649ZM5.6 81.8399V79.5149H3.35C3.21667 79.5149 3.1 79.5649 3 79.6649C2.9 79.7483 2.85 79.8566 2.85 79.9899L2.85 81.3649C2.85 81.4983 2.9 81.6149 3 81.7149C3.1 81.7983 3.21667 81.8399 3.35 81.8399H5.6Z" fill="url(#paint4_linear_87_328)"/>
<path d="M13.25 121.799V122.324C13.25 124.391 12.15 125.424 9.95 125.424H3.85C1.65 125.424 0.549999 124.391 0.549999 122.324L0.549999 121.799C0.549999 120.599 0.933333 119.741 1.7 119.224H0.799999L0.799999 116.399H16.975V119.749H12.65C13.05 120.266 13.25 120.949 13.25 121.799ZM10.35 119.749H3.45C3.31667 119.749 3.2 119.799 3.1 119.899C3 119.983 2.95 120.091 2.95 120.224V121.599C2.95 121.733 3 121.849 3.1 121.949C3.2 122.033 3.31667 122.074 3.45 122.074H10.35C10.4833 122.074 10.6 122.033 10.7 121.949C10.8 121.849 10.85 121.733 10.85 121.599V120.224C10.85 120.091 10.8 119.983 10.7 119.899C10.6 119.799 10.4833 119.749 10.35 119.749ZM0.549999 108.921V108.271H3.8V109.921C3.8 110.487 4.09167 110.771 4.675 110.771H13V114.121H0.799999L0.799999 111.071H1.975C1.025 110.587 0.549999 109.871 0.549999 108.921ZM0.549999 90.7183C0.549999 88.6516 1.65 87.6183 3.85 87.6183H13V90.9683H3.45C3.31667 90.9683 3.2 91.0183 3.1 91.1183C3 91.2016 2.95 91.3099 2.95 91.4433V92.5183C2.95 92.6516 3 92.7683 3.1 92.8683C3.2 92.9516 3.31667 92.9933 3.45 92.9933H13V96.3433H3.45C3.31667 96.3433 3.2 96.3933 3.1 96.4933C3 96.5766 2.95 96.6849 2.95 96.8183V97.8933C2.95 98.0266 3 98.1433 3.1 98.2433C3.2 98.3266 3.31667 98.3683 3.45 98.3683H13L13 101.718H0.799999L0.799999 98.6683H1.425C0.841666 98.1516 0.549999 97.3683 0.549999 96.3183V96.0933C0.549999 94.8599 0.933333 94.0016 1.7 93.5183C0.933333 93.0016 0.549999 92.1433 0.549999 90.9433V90.7183ZM0.549999 79.2649C0.549999 77.1983 1.65 76.1649 3.85 76.1649H7.8L7.8 81.8399H10.35C10.4833 81.8399 10.6 81.7983 10.7 81.7149C10.8 81.6149 10.85 81.4983 10.85 81.3649V79.9899C10.85 79.8566 10.8 79.7483 10.7 79.6649C10.6 79.5649 10.4833 79.5149 10.35 79.5149H9V76.1649H9.95C12.15 76.1649 13.25 77.1983 13.25 79.2649V82.0899C13.25 84.1566 12.15 85.1899 9.95 85.1899H3.85C1.65 85.1899 0.549999 84.1566 0.549999 82.0899L0.549999 79.2649ZM5.6 81.8399V79.5149H3.35C3.21667 79.5149 3.1 79.5649 3 79.6649C2.9 79.7483 2.85 79.8566 2.85 79.9899L2.85 81.3649C2.85 81.4983 2.9 81.6149 3 81.7149C3.1 81.7983 3.21667 81.8399 3.35 81.8399H5.6Z" fill="url(#paint5_linear_87_328)"/>
<path d="M79.2007 14.25H78.6757C76.609 14.25 75.5757 13.15 75.5757 10.95V4.85C75.5757 2.65 76.609 1.55 78.6757 1.55H79.2007C80.4007 1.55 81.259 1.93333 81.7757 2.7V1.8H84.6007V17.975H81.2507V13.65C80.734 14.05 80.0507 14.25 79.2007 14.25ZM81.2507 11.35V4.45C81.2507 4.31667 81.2007 4.2 81.1007 4.1C81.0174 4 80.909 3.95 80.7757 3.95H79.4007C79.2674 3.95 79.1507 4 79.0507 4.1C78.9674 4.2 78.9257 4.31667 78.9257 4.45V11.35C78.9257 11.4833 78.9674 11.6 79.0507 11.7C79.1507 11.8 79.2674 11.85 79.4007 11.85H80.7757C80.909 11.85 81.0174 11.8 81.1007 11.7C81.2007 11.6 81.2507 11.4833 81.2507 11.35ZM92.0794 1.55H92.7294V4.8H91.0794C90.5127 4.8 90.2294 5.09167 90.2294 5.675V14H86.8794V1.8H89.9294V2.975C90.4127 2.025 91.1294 1.55 92.0794 1.55ZM110.282 1.55C112.348 1.55 113.382 2.65 113.382 4.85V14H110.032V4.45C110.032 4.31667 109.982 4.2 109.882 4.1C109.798 4 109.69 3.95 109.557 3.95H108.482C108.348 3.95 108.232 4 108.132 4.1C108.048 4.2 108.007 4.31667 108.007 4.45V14H104.657V4.45C104.657 4.31667 104.607 4.2 104.507 4.1C104.423 4 104.315 3.95 104.182 3.95H103.107C102.973 3.95 102.857 4 102.757 4.1C102.673 4.2 102.632 4.31667 102.632 4.45V14H99.2817V1.8H102.332V2.425C102.848 1.84167 103.632 1.55 104.682 1.55H104.907C106.14 1.55 106.998 1.93333 107.482 2.7C107.998 1.93333 108.857 1.55 110.057 1.55H110.282ZM121.735 1.55C123.802 1.55 124.835 2.65 124.835 4.85V8.8H119.16V11.35C119.16 11.4833 119.202 11.6 119.285 11.7C119.385 11.8 119.502 11.85 119.635 11.85H121.01C121.143 11.85 121.252 11.8 121.335 11.7C121.435 11.6 121.485 11.4833 121.485 11.35V10H124.835V10.95C124.835 13.15 123.802 14.25 121.735 14.25H118.91C116.843 14.25 115.81 13.15 115.81 10.95V4.85C115.81 2.65 116.843 1.55 118.91 1.55H121.735ZM119.16 6.6H121.485V4.35C121.485 4.21667 121.435 4.1 121.335 4C121.252 3.9 121.143 3.85 121.01 3.85H119.635C119.502 3.85 119.385 3.9 119.285 4C119.202 4.1 119.16 4.21667 119.16 4.35V6.6Z" fill="url(#paint6_linear_87_328)"/>
<path d="M79.2007 14.25H78.6757C76.609 14.25 75.5757 13.15 75.5757 10.95V4.85C75.5757 2.65 76.609 1.55 78.6757 1.55H79.2007C80.4007 1.55 81.259 1.93333 81.7757 2.7V1.8H84.6007V17.975H81.2507V13.65C80.734 14.05 80.0507 14.25 79.2007 14.25ZM81.2507 11.35V4.45C81.2507 4.31667 81.2007 4.2 81.1007 4.1C81.0174 4 80.909 3.95 80.7757 3.95H79.4007C79.2674 3.95 79.1507 4 79.0507 4.1C78.9674 4.2 78.9257 4.31667 78.9257 4.45V11.35C78.9257 11.4833 78.9674 11.6 79.0507 11.7C79.1507 11.8 79.2674 11.85 79.4007 11.85H80.7757C80.909 11.85 81.0174 11.8 81.1007 11.7C81.2007 11.6 81.2507 11.4833 81.2507 11.35ZM92.0794 1.55H92.7294V4.8H91.0794C90.5127 4.8 90.2294 5.09167 90.2294 5.675V14H86.8794V1.8H89.9294V2.975C90.4127 2.025 91.1294 1.55 92.0794 1.55ZM110.282 1.55C112.348 1.55 113.382 2.65 113.382 4.85V14H110.032V4.45C110.032 4.31667 109.982 4.2 109.882 4.1C109.798 4 109.69 3.95 109.557 3.95H108.482C108.348 3.95 108.232 4 108.132 4.1C108.048 4.2 108.007 4.31667 108.007 4.45V14H104.657V4.45C104.657 4.31667 104.607 4.2 104.507 4.1C104.423 4 104.315 3.95 104.182 3.95H103.107C102.973 3.95 102.857 4 102.757 4.1C102.673 4.2 102.632 4.31667 102.632 4.45V14H99.2817V1.8H102.332V2.425C102.848 1.84167 103.632 1.55 104.682 1.55H104.907C106.14 1.55 106.998 1.93333 107.482 2.7C107.998 1.93333 108.857 1.55 110.057 1.55H110.282ZM121.735 1.55C123.802 1.55 124.835 2.65 124.835 4.85V8.8H119.16V11.35C119.16 11.4833 119.202 11.6 119.285 11.7C119.385 11.8 119.502 11.85 119.635 11.85H121.01C121.143 11.85 121.252 11.8 121.335 11.7C121.435 11.6 121.485 11.4833 121.485 11.35V10H124.835V10.95C124.835 13.15 123.802 14.25 121.735 14.25H118.91C116.843 14.25 115.81 13.15 115.81 10.95V4.85C115.81 2.65 116.843 1.55 118.91 1.55H121.735ZM119.16 6.6H121.485V4.35C121.485 4.21667 121.435 4.1 121.335 4C121.252 3.9 121.143 3.85 121.01 3.85H119.635C119.502 3.85 119.385 3.9 119.285 4C119.202 4.1 119.16 4.21667 119.16 4.35V6.6Z" fill="url(#paint7_linear_87_328)"/>
<path fill-rule="evenodd" clip-rule="evenodd" d="M172.625 19.25C177.665 19.25 182.714 23.3353 182.714 28.375V45.944V64.875C182.714 69.9147 185.835 74 190.875 74C195.915 74 200 69.9147 200 64.875V28.375C200 13.2558 187.744 1 172.625 1H136.125C131.085 1 127 5.08526 127 10.125C127 15.1647 131.085 19.25 136.125 19.25H172.625ZM27.375 181.933C22.3354 181.933 17.5938 178.665 17.5938 173.625V137.125C17.5938 132.085 14.1646 128 9.125 128C4.08544 128 0 132.085 0 137.125V173.625C0 188.744 12.2562 201 27.375 201H63.875C68.9146 201 73 196.915 73 191.875C73 186.835 68.9146 181.933 63.875 181.933H27.375ZM110 84.25C110 87.9779 114.101 91 119.161 91C124.22 91 129.286 87.9779 129.286 84.25V76.6818C130.002 76.7526 130.779 76.7895 131.621 76.7895H137H144.714V85.6149C144.714 90.324 149.031 91 154.357 91C159.682 91 164 90.324 164 85.6149V71.4792C164 71.1131 163.973 70.7673 163.923 70.4408C163.974 70.1994 164 69.9475 164 69.6842C164 65.76 162.879 62.579 155.068 62.579H131.621C130.779 62.579 130.002 62.6159 129.286 62.6867V57.25C129.286 53.5222 132.423 50.5 137.482 50.5H156.286C164 50.5 164 47.8332 164 44.1053C164 40.3774 164 37 156.286 37.0001L137.483 37C122.267 37 115.476 37 112.444 40.3762C110 43.0981 110 48.0146 110 56.8948V84.25ZM44.4216 165C39.7705 165 36 160.971 36 156V120C36 115.029 39.7705 111 44.4216 111H80.95L80.9655 111H81C81.0917 111 81.1831 111.001 81.2742 111.004C85.8036 111.119 90 113.645 90 118.5C90 118.889 90 119.282 89.9943 119.676C89.9981 119.783 90 119.891 90 120V156C90 160.971 85.9707 165 81 165C76.0293 165 72 160.971 72 156V133.5C72 131.015 69.9849 129 67.5 129H67.2626V135C67.2626 138.314 65.354 141 62.9995 141C60.6449 141 58.7363 138.314 58.7363 135V129H57.0461C54.7242 129.005 52.8432 131.018 52.8432 133.5V144.755V156C52.8432 160.971 49.0727 165 44.4216 165ZM115 165C112.643 165 111.464 165 110.732 164.268C110 163.536 110 162.357 110 160V116C110 113.643 110 112.464 110.732 111.732C111.464 111 112.643 111 115 111H124.4H159C161.761 111 164 113.239 164 116V121C164 123.761 161.761 126 159 126H124.4V132H159C161.761 132 164 134.239 164 137V139C164 141.761 161.761 144 159 144H124.4V150H161.5C162.881 150 164 151.119 164 152.5V162.5C164 163.881 162.881 165 161.5 165H124.4H115ZM200 137.125C200 132.085 195.915 128 190.875 128C185.835 128 182.714 132.085 182.714 137.125V154.966V173.625C182.714 178.665 177.49 181.933 172.451 181.933H135.797C130.757 181.933 127 186.835 127 191.875C127 196.915 131.085 201 136.125 201H172.625C187.744 201 200 188.744 200 173.625V137.125ZM9.25 74C4.14123 74 0 69.9147 0 64.875V28.375C0 13.2558 12.4237 1 27.75 1H64.75C69.8588 1 74 5.08526 74 10.125C74 15.1647 69.0172 18.9777 63.9084 18.9777H28.2387C23.1299 18.9777 17.835 23.3353 17.835 28.375V64.875C17.835 69.9147 14.3588 74 9.25 74Z" fill="url(#paint8_linear_87_328)"/>
<path fill-rule="evenodd" clip-rule="evenodd" d="M172.625 19.25C177.665 19.25 182.714 23.3353 182.714 28.375V45.944V64.875C182.714 69.9147 185.835 74 190.875 74C195.915 74 200 69.9147 200 64.875V28.375C200 13.2558 187.744 1 172.625 1H136.125C131.085 1 127 5.08526 127 10.125C127 15.1647 131.085 19.25 136.125 19.25H172.625ZM27.375 181.933C22.3354 181.933 17.5938 178.665 17.5938 173.625V137.125C17.5938 132.085 14.1646 128 9.125 128C4.08544 128 0 132.085 0 137.125V173.625C0 188.744 12.2562 201 27.375 201H63.875C68.9146 201 73 196.915 73 191.875C73 186.835 68.9146 181.933 63.875 181.933H27.375ZM110 84.25C110 87.9779 114.101 91 119.161 91C124.22 91 129.286 87.9779 129.286 84.25V76.6818C130.002 76.7526 130.779 76.7895 131.621 76.7895H137H144.714V85.6149C144.714 90.324 149.031 91 154.357 91C159.682 91 164 90.324 164 85.6149V71.4792C164 71.1131 163.973 70.7673 163.923 70.4408C163.974 70.1994 164 69.9475 164 69.6842C164 65.76 162.879 62.579 155.068 62.579H131.621C130.779 62.579 130.002 62.6159 129.286 62.6867V57.25C129.286 53.5222 132.423 50.5 137.482 50.5H156.286C164 50.5 164 47.8332 164 44.1053C164 40.3774 164 37 156.286 37.0001L137.483 37C122.267 37 115.476 37 112.444 40.3762C110 43.0981 110 48.0146 110 56.8948V84.25ZM44.4216 165C39.7705 165 36 160.971 36 156V120C36 115.029 39.7705 111 44.4216 111H80.95L80.9655 111H81C81.0917 111 81.1831 111.001 81.2742 111.004C85.8036 111.119 90 113.645 90 118.5C90 118.889 90 119.282 89.9943 119.676C89.9981 119.783 90 119.891 90 120V156C90 160.971 85.9707 165 81 165C76.0293 165 72 160.971 72 156V133.5C72 131.015 69.9849 129 67.5 129H67.2626V135C67.2626 138.314 65.354 141 62.9995 141C60.6449 141 58.7363 138.314 58.7363 135V129H57.0461C54.7242 129.005 52.8432 131.018 52.8432 133.5V144.755V156C52.8432 160.971 49.0727 165 44.4216 165ZM115 165C112.643 165 111.464 165 110.732 164.268C110 163.536 110 162.357 110 160V116C110 113.643 110 112.464 110.732 111.732C111.464 111 112.643 111 115 111H124.4H159C161.761 111 164 113.239 164 116V121C164 123.761 161.761 126 159 126H124.4V132H159C161.761 132 164 134.239 164 137V139C164 141.761 161.761 144 159 144H124.4V150H161.5C162.881 150 164 151.119 164 152.5V162.5C164 163.881 162.881 165 161.5 165H124.4H115ZM200 137.125C200 132.085 195.915 128 190.875 128C185.835 128 182.714 132.085 182.714 137.125V154.966V173.625C182.714 178.665 177.49 181.933 172.451 181.933H135.797C130.757 181.933 127 186.835 127 191.875C127 196.915 131.085 201 136.125 201H172.625C187.744 201 200 188.744 200 173.625V137.125ZM9.25 74C4.14123 74 0 69.9147 0 64.875V28.375C0 13.2558 12.4237 1 27.75 1H64.75C69.8588 1 74 5.08526 74 10.125C74 15.1647 69.0172 18.9777 63.9084 18.9777H28.2387C23.1299 18.9777 17.835 23.3353 17.835 28.375V64.875C17.835 69.9147 14.3588 74 9.25 74Z" fill="url(#paint9_linear_87_328)"/>
<path fill-rule="evenodd" clip-rule="evenodd" d="M110.732 164.268C111.464 165 112.643 165 115 165H124.4H161.5C162.881 165 164 163.881 164 162.5V152.5C164 151.119 162.881 150 161.5 150H124.4V144H159C161.761 144 164 141.761 164 139V137C164 134.239 161.761 132 159 132H124.4V126H159C161.761 126 164 123.761 164 121V116C164 113.239 161.761 111 159 111H124.4H115C112.643 111 111.464 111 110.732 111.732C110 112.464 110 113.643 110 116V160C110 162.357 110 163.536 110.732 164.268Z" fill="url(#paint10_linear_87_328)"/>
<path fill-rule="evenodd" clip-rule="evenodd" d="M119.161 91C114.101 91 110 87.9779 110 84.25V56.8948C110 48.0146 110 43.0981 112.444 40.3762C115.476 37 122.267 37 137.483 37L156.286 37.0001C164 37 164 40.3774 164 44.1053C164 47.8332 164 50.5 156.286 50.5H137.482C132.423 50.5 129.286 53.5222 129.286 57.25V62.6867C130.002 62.6159 130.779 62.579 131.621 62.579H155.068C162.879 62.579 164 65.76 164 69.6842C164 69.9475 163.974 70.1994 163.923 70.4408C163.973 70.7673 164 71.1131 164 71.4792V85.6149C164 90.324 159.682 91 154.357 91C149.031 91 144.714 90.324 144.714 85.6149V76.7895H137H131.621C130.779 76.7895 130.002 76.7526 129.286 76.6818V84.25C129.286 87.9779 124.22 91 119.161 91Z" fill="url(#paint11_linear_87_328)"/>
<path fill-rule="evenodd" clip-rule="evenodd" d="M44.4216 165C39.7705 165 36 160.971 36 156V120C36 120 36 120 36 120C36 115.029 39.7705 111 44.4216 111H80.95C80.9552 111 80.9603 111 80.9655 111L81 111C81.0917 111 81.1831 111.001 81.2742 111.004C85.8036 111.119 90 113.645 90 118.5C90 118.889 90 119.282 89.9943 119.676C89.9981 119.783 90 119.891 90 120V156C90 160.971 85.9707 165 81 165C76.0293 165 72 160.971 72 156V133.5C72 131.015 69.9849 129 67.5 129H67.2626V135C67.2626 138.314 65.354 141 62.9995 141C60.6449 141 58.7363 138.314 58.7363 135V129H57.0461C54.7242 129.005 52.8432 131.018 52.8432 133.5V144.755V156C52.8432 160.971 49.0727 165 44.4216 165Z" fill="url(#paint12_linear_87_328)"/>
<path d="M172.625 19.25C177.665 19.25 182.714 23.3353 182.714 28.375V45.944V64.875C182.714 69.9147 185.835 74 190.875 74C195.915 74 200 69.9147 200 64.875V28.375C200 13.2558 187.744 1 172.625 1L136.125 1C131.085 1 127 5.08526 127 10.125C127 15.1647 131.085 19.25 136.125 19.25L172.625 19.25Z" fill="url(#paint13_linear_87_328)"/>
<path d="M200 137.125C200 132.085 195.915 128 190.875 128C185.835 128 182.714 132.085 182.714 137.125V154.966V173.625C182.714 178.665 177.49 181.933 172.451 181.933H135.797C130.757 181.933 127 186.835 127 191.875C127 196.915 131.085 201 136.125 201H172.625C187.744 201 200 188.744 200 173.625V137.125Z" fill="url(#paint14_linear_87_328)"/>
<path d="M27.375 181.933C22.3354 181.933 17.5938 178.665 17.5938 173.625V137.125C17.5938 132.085 14.1646 128 9.125 128C4.08545 128 0 132.085 0 137.125V173.625C0 188.744 12.2562 201 27.375 201H63.875C68.9146 201 73 196.915 73 191.875C73 186.835 68.9146 181.933 63.875 181.933H27.375Z" fill="url(#paint15_linear_87_328)"/>
<path d="M-4.94539e-07 64.875C-4.94539e-07 69.9147 4.14123 74 9.25 74C14.3588 74 17.835 69.9147 17.835 64.875L17.835 28.375C17.835 23.3353 23.1299 18.9777 28.2387 18.9777L63.9084 18.9777C69.0172 18.9777 74 15.1647 74 10.125C74 5.08526 69.8588 1 64.75 1H27.75C12.4237 1 -4.94539e-07 13.2558 -4.94539e-07 28.375V64.875Z" fill="url(#paint16_linear_87_328)"/>
<path fill-rule="evenodd" clip-rule="evenodd" d="M88 46C88 41.0295 83.9707 37 79 37H43C38.0295 37 34 41.0295 34 46V82C34 86.9707 38.0295 91 43 91H79C89 91 88 91.5 88 82V46ZM70 59.5C70 57.0147 67.9853 55 65.5 55H56.5C54.0147 55 52 57.0147 52 59.5V68.5C52 70.9853 54.0147 73 56.5 73H65.5C67.9853 73 70 70.9853 70 68.5V59.5Z" fill="url(#paint17_linear_87_328)"/>
<path fill-rule="evenodd" clip-rule="evenodd" d="M94 87.6667C94 86.7462 93.2538 86 92.3333 86H85.6667C84.7462 86 84 86.7462 84 87.6667V94.3333C84 95.2538 84.7462 96 85.6667 96H92.3333C93.2538 96 94 95.2538 94 94.3333V87.6667ZM90.6667 90.1667C90.6667 89.7064 90.2936 89.3333 89.8333 89.3333H88.1667C87.7064 89.3333 87.3333 89.7064 87.3333 90.1667V91.8333C87.3333 92.2936 87.7064 92.6667 88.1667 92.6667H89.8333C90.2936 92.6667 90.6667 92.2936 90.6667 91.8333V90.1667Z" fill="url(#paint18_linear_87_328)"/>
<defs>
<linearGradient id="paint0_linear_87_328" x1="0" y1="192" x2="200" y2="192" gradientUnits="userSpaceOnUse">
<stop stop-color="white"/>
<stop offset="1" stop-color="#999999"/>
</linearGradient>
<linearGradient id="paint1_linear_87_328" x1="39.707" y1="199.176" x2="41.1766" y2="177.009" gradientUnits="userSpaceOnUse">
<stop stop-color="#AF17F6"/>
<stop offset="0.449681" stop-color="#784EF5"/>
<stop offset="0.529502" stop-color="#6F58F5"/>
<stop offset="0.59524" stop-color="#6561F5"/>
<stop offset="0.677137" stop-color="#5D69F5"/>
<stop offset="0.875" stop-color="#5077F4"/>
</linearGradient>
<linearGradient id="paint2_linear_87_328" x1="191" y1="0" x2="191" y2="200" gradientUnits="userSpaceOnUse">
<stop stop-color="white"/>
<stop offset="1" stop-color="#999999"/>
</linearGradient>
<linearGradient id="paint3_linear_87_328" x1="183.824" y1="39.707" x2="205.991" y2="41.1766" gradientUnits="userSpaceOnUse">
<stop stop-color="#AF17F6"/>
<stop offset="0.449681" stop-color="#784EF5"/>
<stop offset="0.529502" stop-color="#6F58F5"/>
<stop offset="0.59524" stop-color="#6561F5"/>
<stop offset="0.677137" stop-color="#5D69F5"/>
<stop offset="0.875" stop-color="#5077F4"/>
</linearGradient>
<linearGradient id="paint4_linear_87_328" x1="9" y1="201" x2="9" y2="1" gradientUnits="userSpaceOnUse">
<stop stop-color="white"/>
<stop offset="1" stop-color="#999999"/>
</linearGradient>
<linearGradient id="paint5_linear_87_328" x1="16.1763" y1="161.293" x2="-5.99145" y2="159.823" gradientUnits="userSpaceOnUse">
<stop stop-color="#AF17F6"/>
<stop offset="0.449681" stop-color="#784EF5"/>
<stop offset="0.529502" stop-color="#6F58F5"/>
<stop offset="0.59524" stop-color="#6561F5"/>
<stop offset="0.677137" stop-color="#5D69F5"/>
<stop offset="0.875" stop-color="#5077F4"/>
</linearGradient>
<linearGradient id="paint6_linear_87_328" x1="0" y1="10" x2="200" y2="10" gradientUnits="userSpaceOnUse">
<stop stop-color="white"/>
<stop offset="1" stop-color="#999999"/>
</linearGradient>
<linearGradient id="paint7_linear_87_328" x1="39.707" y1="17.1763" x2="41.1766" y2="-4.99145" gradientUnits="userSpaceOnUse">
<stop stop-color="#AF17F6"/>
<stop offset="0.449681" stop-color="#784EF5"/>
<stop offset="0.529502" stop-color="#6F58F5"/>
<stop offset="0.59524" stop-color="#6561F5"/>
<stop offset="0.677137" stop-color="#5D69F5"/>
<stop offset="0.875" stop-color="#5077F4"/>
</linearGradient>
<linearGradient id="paint8_linear_87_328" x1="288.707" y1="199.737" x2="406.839" y2="39.3628" gradientUnits="userSpaceOnUse">
<stop stop-color="#AF17F6"/>
<stop offset="0.449681" stop-color="#784EF5"/>
<stop offset="0.529502" stop-color="#6F58F5"/>
<stop offset="0.59524" stop-color="#6561F5"/>
<stop offset="0.677137" stop-color="#5D69F5"/>
<stop offset="0.875" stop-color="#5077F4"/>
</linearGradient>
<linearGradient id="paint9_linear_87_328" x1="39.707" y1="180.737" x2="157.839" y2="20.3627" gradientUnits="userSpaceOnUse">
<stop stop-color="#AF17F6"/>
<stop offset="0.449681" stop-color="#784EF5"/>
<stop offset="0.529502" stop-color="#6F58F5"/>
<stop offset="0.59524" stop-color="#6561F5"/>
<stop offset="0.677137" stop-color="#5D69F5"/>
<stop offset="0.875" stop-color="#5077F4"/>
</linearGradient>
<linearGradient id="paint10_linear_87_328" x1="111" y1="165.5" x2="163.5" y2="112.5" gradientUnits="userSpaceOnUse">
<stop offset="0.226669" stop-color="#AF17F6"/>
<stop offset="0.334215" stop-color="#9531F6"/>
<stop offset="0.451693" stop-color="#784EF5"/>
<stop offset="0.539801" stop-color="#6F58F5"/>
<stop offset="0.643896" stop-color="#6561F5"/>
<stop offset="0.76967" stop-color="#5D69F5"/>
<stop offset="0.875" stop-color="#5077F4"/>
</linearGradient>
<linearGradient id="paint11_linear_87_328" x1="110" y1="91" x2="164" y2="36.9997" gradientUnits="userSpaceOnUse">
<stop offset="0.226669" stop-color="#AF17F6"/>
<stop offset="0.334215" stop-color="#9531F6"/>
<stop offset="0.451693" stop-color="#784EF5"/>
<stop offset="0.539801" stop-color="#6F58F5"/>
<stop offset="0.643896" stop-color="#6561F5"/>
<stop offset="0.76967" stop-color="#5D69F5"/>
<stop offset="0.875" stop-color="#5077F4"/>
</linearGradient>
<linearGradient id="paint12_linear_87_328" x1="36" y1="165" x2="86.3687" y2="107.802" gradientUnits="userSpaceOnUse">
<stop offset="0.22" stop-color="#AF17F6"/>
<stop offset="0.449681" stop-color="#784EF5"/>
<stop offset="0.529502" stop-color="#6F58F5"/>
<stop offset="0.59524" stop-color="#6561F5"/>
<stop offset="0.677137" stop-color="#5D69F5"/>
<stop offset="0.875" stop-color="#5077F4"/>
</linearGradient>
<linearGradient id="paint13_linear_87_328" x1="127" y1="74" x2="200.07" y2="1.07057" gradientUnits="userSpaceOnUse">
<stop stop-color="#AF17F6"/>
<stop offset="0.449681" stop-color="#784EF5"/>
<stop offset="0.529502" stop-color="#6F58F5"/>
<stop offset="0.59524" stop-color="#6561F5"/>
<stop offset="0.677137" stop-color="#5D69F5"/>
<stop offset="0.875" stop-color="#5077F4"/>
</linearGradient>
<linearGradient id="paint14_linear_87_328" x1="127" y1="201" x2="196.799" y2="125.058" gradientUnits="userSpaceOnUse">
<stop stop-color="#AF17F6"/>
<stop offset="0.449681" stop-color="#784EF5"/>
<stop offset="0.529502" stop-color="#6F58F5"/>
<stop offset="0.59524" stop-color="#6561F5"/>
<stop offset="0.677137" stop-color="#5D69F5"/>
<stop offset="0.875" stop-color="#5077F4"/>
</linearGradient>
<linearGradient id="paint15_linear_87_328" x1="-1.50786e-06" y1="199.91" x2="73.3771" y2="128.071" gradientUnits="userSpaceOnUse">
<stop stop-color="#AF17F6"/>
<stop offset="0.449681" stop-color="#784EF5"/>
<stop offset="0.529502" stop-color="#6F58F5"/>
<stop offset="0.59524" stop-color="#6561F5"/>
<stop offset="0.677137" stop-color="#5D69F5"/>
<stop offset="0.875" stop-color="#5077F4"/>
</linearGradient>
<linearGradient id="paint16_linear_87_328" x1="2.25312e-06" y1="74" x2="71.856" y2="-1.05271" gradientUnits="userSpaceOnUse">
<stop stop-color="#AF17F6"/>
<stop offset="0.449681" stop-color="#784EF5"/>
<stop offset="0.529502" stop-color="#6F58F5"/>
<stop offset="0.59524" stop-color="#6561F5"/>
<stop offset="0.677137" stop-color="#5D69F5"/>
<stop offset="0.875" stop-color="#5077F4"/>
</linearGradient>
<linearGradient id="paint17_linear_87_328" x1="34.5" y1="83" x2="88" y2="30.5" gradientUnits="userSpaceOnUse">
<stop offset="0.226669" stop-color="#AF17F6"/>
<stop offset="0.334215" stop-color="#9531F6"/>
<stop offset="0.451693" stop-color="#784EF5"/>
<stop offset="0.539801" stop-color="#6F58F5"/>
<stop offset="0.643896" stop-color="#6561F5"/>
<stop offset="0.76967" stop-color="#5D69F5"/>
<stop offset="0.875" stop-color="#5077F4"/>
</linearGradient>
<linearGradient id="paint18_linear_87_328" x1="84.0926" y1="95.9074" x2="94" y2="86.1852" gradientUnits="userSpaceOnUse">
<stop offset="0.226669" stop-color="#AF17F6"/>
<stop offset="0.334215" stop-color="#9531F6"/>
<stop offset="0.451693" stop-color="#784EF5"/>
<stop offset="0.539801" stop-color="#6F58F5"/>
<stop offset="0.643896" stop-color="#6561F5"/>
<stop offset="0.76967" stop-color="#5D69F5"/>
<stop offset="0.875" stop-color="#5077F4"/>
</linearGradient>
</defs>
</svg>
