<svg width="200" height="201" viewBox="0 0 200 201" fill="none" xmlns="http://www.w3.org/2000/svg">
<path fill-rule="evenodd" clip-rule="evenodd" d="M172.625 19.25C177.665 19.25 182.714 23.3353 182.714 28.375V45.944V64.875C182.714 69.9147 185.835 74 190.875 74C195.915 74 200 69.9147 200 64.875V28.375C200 13.2558 187.744 1 172.625 1H136.125C131.085 1 127 5.08526 127 10.125C127 15.1647 131.085 19.25 136.125 19.25H172.625ZM27.375 181.933C22.3354 181.933 17.5938 178.665 17.5938 173.625V137.125C17.5938 132.085 14.1646 128 9.125 128C4.08544 128 0 132.085 0 137.125V173.625C0 188.744 12.2562 201 27.375 201H63.875C68.9146 201 73 196.915 73 191.875C73 186.835 68.9146 181.933 63.875 181.933H27.375ZM110 84.25C110 87.9779 114.101 91 119.161 91C124.22 91 129.286 87.9779 129.286 84.25V76.6818C130.002 76.7526 130.779 76.7895 131.621 76.7895H137H144.714V85.6149C144.714 90.324 149.031 91 154.357 91C159.682 91 164 90.324 164 85.6149V71.4792C164 71.1131 163.973 70.7673 163.923 70.4408C163.974 70.1994 164 69.9475 164 69.6842C164 65.76 162.879 62.579 155.068 62.579H131.621C130.779 62.579 130.002 62.6159 129.286 62.6867V57.25C129.286 53.5222 132.423 50.5 137.482 50.5H156.286C164 50.5 164 47.8332 164 44.1053C164 40.3774 164 37 156.286 37.0001L137.483 37C122.267 37 115.476 37 112.444 40.3762C110 43.0981 110 48.0146 110 56.8948V84.25ZM44.4216 165C39.7705 165 36 160.971 36 156V120C36 115.029 39.7705 111 44.4216 111H80.95L80.9655 111H81C81.0917 111 81.1831 111.001 81.2742 111.004C85.8036 111.119 90 113.645 90 118.5C90 118.889 90 119.282 89.9943 119.676C89.9981 119.783 90 119.891 90 120V156C90 160.971 85.9707 165 81 165C76.0293 165 72 160.971 72 156V133.5C72 131.015 69.9849 129 67.5 129H67.2626V135C67.2626 138.314 65.354 141 62.9995 141C60.6449 141 58.7363 138.314 58.7363 135V129H57.0461C54.7242 129.005 52.8432 131.018 52.8432 133.5V144.755V156C52.8432 160.971 49.0727 165 44.4216 165ZM115 165C112.643 165 111.464 165 110.732 164.268C110 163.536 110 162.357 110 160V116C110 113.643 110 112.464 110.732 111.732C111.464 111 112.643 111 115 111H124.4H159C161.761 111 164 113.239 164 116V121C164 123.761 161.761 126 159 126H124.4V132H159C161.761 132 164 134.239 164 137V139C164 141.761 161.761 144 159 144H124.4V150H161.5C162.881 150 164 151.119 164 152.5V162.5C164 163.881 162.881 165 161.5 165H124.4H115ZM200 137.125C200 132.085 195.915 128 190.875 128C185.835 128 182.714 132.085 182.714 137.125V154.966V173.625C182.714 178.665 177.49 181.933 172.451 181.933H135.797C130.757 181.933 127 186.835 127 191.875C127 196.915 131.085 201 136.125 201H172.625C187.744 201 200 188.744 200 173.625V137.125ZM9.25 74C4.14123 74 0 69.9147 0 64.875V28.375C0 13.2558 12.4237 1 27.75 1H64.75C69.8588 1 74 5.08526 74 10.125C74 15.1647 69.0172 18.9777 63.9084 18.9777H28.2387C23.1299 18.9777 17.835 23.3353 17.835 28.375V64.875C17.835 69.9147 14.3588 74 9.25 74Z" fill="url(#paint0_linear_87_303)"/>
<path fill-rule="evenodd" clip-rule="evenodd" d="M172.625 19.25C177.665 19.25 182.714 23.3353 182.714 28.375V45.944V64.875C182.714 69.9147 185.835 74 190.875 74C195.915 74 200 69.9147 200 64.875V28.375C200 13.2558 187.744 1 172.625 1H136.125C131.085 1 127 5.08526 127 10.125C127 15.1647 131.085 19.25 136.125 19.25H172.625ZM27.375 181.933C22.3354 181.933 17.5938 178.665 17.5938 173.625V137.125C17.5938 132.085 14.1646 128 9.125 128C4.08544 128 0 132.085 0 137.125V173.625C0 188.744 12.2562 201 27.375 201H63.875C68.9146 201 73 196.915 73 191.875C73 186.835 68.9146 181.933 63.875 181.933H27.375ZM110 84.25C110 87.9779 114.101 91 119.161 91C124.22 91 129.286 87.9779 129.286 84.25V76.6818C130.002 76.7526 130.779 76.7895 131.621 76.7895H137H144.714V85.6149C144.714 90.324 149.031 91 154.357 91C159.682 91 164 90.324 164 85.6149V71.4792C164 71.1131 163.973 70.7673 163.923 70.4408C163.974 70.1994 164 69.9475 164 69.6842C164 65.76 162.879 62.579 155.068 62.579H131.621C130.779 62.579 130.002 62.6159 129.286 62.6867V57.25C129.286 53.5222 132.423 50.5 137.482 50.5H156.286C164 50.5 164 47.8332 164 44.1053C164 40.3774 164 37 156.286 37.0001L137.483 37C122.267 37 115.476 37 112.444 40.3762C110 43.0981 110 48.0146 110 56.8948V84.25ZM44.4216 165C39.7705 165 36 160.971 36 156V120C36 115.029 39.7705 111 44.4216 111H80.95L80.9655 111H81C81.0917 111 81.1831 111.001 81.2742 111.004C85.8036 111.119 90 113.645 90 118.5C90 118.889 90 119.282 89.9943 119.676C89.9981 119.783 90 119.891 90 120V156C90 160.971 85.9707 165 81 165C76.0293 165 72 160.971 72 156V133.5C72 131.015 69.9849 129 67.5 129H67.2626V135C67.2626 138.314 65.354 141 62.9995 141C60.6449 141 58.7363 138.314 58.7363 135V129H57.0461C54.7242 129.005 52.8432 131.018 52.8432 133.5V144.755V156C52.8432 160.971 49.0727 165 44.4216 165ZM115 165C112.643 165 111.464 165 110.732 164.268C110 163.536 110 162.357 110 160V116C110 113.643 110 112.464 110.732 111.732C111.464 111 112.643 111 115 111H124.4H159C161.761 111 164 113.239 164 116V121C164 123.761 161.761 126 159 126H124.4V132H159C161.761 132 164 134.239 164 137V139C164 141.761 161.761 144 159 144H124.4V150H161.5C162.881 150 164 151.119 164 152.5V162.5C164 163.881 162.881 165 161.5 165H124.4H115ZM200 137.125C200 132.085 195.915 128 190.875 128C185.835 128 182.714 132.085 182.714 137.125V154.966V173.625C182.714 178.665 177.49 181.933 172.451 181.933H135.797C130.757 181.933 127 186.835 127 191.875C127 196.915 131.085 201 136.125 201H172.625C187.744 201 200 188.744 200 173.625V137.125ZM9.25 74C4.14123 74 0 69.9147 0 64.875V28.375C0 13.2558 12.4237 1 27.75 1H64.75C69.8588 1 74 5.08526 74 10.125C74 15.1647 69.0172 18.9777 63.9084 18.9777H28.2387C23.1299 18.9777 17.835 23.3353 17.835 28.375V64.875C17.835 69.9147 14.3588 74 9.25 74Z" fill="url(#paint1_linear_87_303)"/>
<path fill-rule="evenodd" clip-rule="evenodd" d="M110.732 164.268C111.464 165 112.643 165 115 165H124.4H161.5C162.881 165 164 163.881 164 162.5V152.5C164 151.119 162.881 150 161.5 150H124.4V144H159C161.761 144 164 141.761 164 139V137C164 134.239 161.761 132 159 132H124.4V126H159C161.761 126 164 123.761 164 121V116C164 113.239 161.761 111 159 111H124.4H115C112.643 111 111.464 111 110.732 111.732C110 112.464 110 113.643 110 116V160C110 162.357 110 163.536 110.732 164.268Z" fill="url(#paint2_linear_87_303)"/>
<path fill-rule="evenodd" clip-rule="evenodd" d="M119.161 91C114.101 91 110 87.9779 110 84.25V56.8948C110 48.0146 110 43.0981 112.444 40.3762C115.476 37 122.267 37 137.483 37L156.286 37.0001C164 37 164 40.3774 164 44.1053C164 47.8332 164 50.5 156.286 50.5H137.482C132.423 50.5 129.286 53.5222 129.286 57.25V62.6867C130.002 62.6159 130.779 62.579 131.621 62.579H155.068C162.879 62.579 164 65.76 164 69.6842C164 69.9475 163.974 70.1994 163.923 70.4408C163.973 70.7673 164 71.1131 164 71.4792V85.6149C164 90.324 159.682 91 154.357 91C149.031 91 144.714 90.324 144.714 85.6149V76.7895H137H131.621C130.779 76.7895 130.002 76.7526 129.286 76.6818V84.25C129.286 87.9779 124.22 91 119.161 91Z" fill="url(#paint3_linear_87_303)"/>
<path fill-rule="evenodd" clip-rule="evenodd" d="M44.4216 165C39.7705 165 36 160.971 36 156V120C36 120 36 120 36 120C36 115.029 39.7705 111 44.4216 111H80.95C80.9552 111 80.9603 111 80.9655 111L81 111C81.0917 111 81.1831 111.001 81.2742 111.004C85.8036 111.119 90 113.645 90 118.5C90 118.889 90 119.282 89.9943 119.676C89.9981 119.783 90 119.891 90 120V156C90 160.971 85.9707 165 81 165C76.0293 165 72 160.971 72 156V133.5C72 131.015 69.9849 129 67.5 129H67.2626V135C67.2626 138.314 65.354 141 62.9995 141C60.6449 141 58.7363 138.314 58.7363 135V129H57.0461C54.7242 129.005 52.8432 131.018 52.8432 133.5V144.755V156C52.8432 160.971 49.0727 165 44.4216 165Z" fill="url(#paint4_linear_87_303)"/>
<path d="M172.625 19.25C177.665 19.25 182.714 23.3353 182.714 28.375V45.944V64.875C182.714 69.9147 185.835 74 190.875 74C195.915 74 200 69.9147 200 64.875V28.375C200 13.2558 187.744 1 172.625 1L136.125 1C131.085 1 127 5.08526 127 10.125C127 15.1647 131.085 19.25 136.125 19.25L172.625 19.25Z" fill="url(#paint5_linear_87_303)"/>
<path d="M200 137.125C200 132.085 195.915 128 190.875 128C185.835 128 182.714 132.085 182.714 137.125V154.966V173.625C182.714 178.665 177.49 181.933 172.451 181.933H135.797C130.757 181.933 127 186.835 127 191.875C127 196.915 131.085 201 136.125 201H172.625C187.744 201 200 188.744 200 173.625V137.125Z" fill="url(#paint6_linear_87_303)"/>
<path d="M27.375 181.933C22.3354 181.933 17.5938 178.665 17.5938 173.625V137.125C17.5938 132.085 14.1646 128 9.125 128C4.08545 128 0 132.085 0 137.125V173.625C0 188.744 12.2562 201 27.375 201H63.875C68.9146 201 73 196.915 73 191.875C73 186.835 68.9146 181.933 63.875 181.933H27.375Z" fill="url(#paint7_linear_87_303)"/>
<path d="M-4.94539e-07 64.875C-4.94539e-07 69.9147 4.14123 74 9.25 74C14.3588 74 17.835 69.9147 17.835 64.875L17.835 28.375C17.835 23.3353 23.1299 18.9777 28.2387 18.9777L63.9084 18.9777C69.0172 18.9777 74 15.1647 74 10.125C74 5.08526 69.8588 1 64.75 1H27.75C12.4237 1 -4.94539e-07 13.2558 -4.94539e-07 28.375V64.875Z" fill="url(#paint8_linear_87_303)"/>
<path fill-rule="evenodd" clip-rule="evenodd" d="M79 39C83.9707 39 88 43.0295 88 48V84C88 85.5961 88 86.9135 87.9285 88H91.3333C92.2538 88 93 88.7462 93 89.6667V96.3333C93 97.2538 92.2538 98 91.3333 98H84.6667C83.7462 98 83 97.2538 83 96.3333V92.8712C81.9178 92.9683 80.6014 93 79 93H43C38.0295 93 34 88.9707 34 84V48C34 43.0295 38.0295 39 43 39H79ZM86.3622 91.9486C86.3434 92.0181 86.3333 92.0912 86.3333 92.1667V93.8333C86.3333 94.2936 86.7064 94.6667 87.1667 94.6667H88.8333C89.2936 94.6667 89.6667 94.2936 89.6667 93.8333V92.1667C89.6667 91.7064 89.2936 91.3333 88.8333 91.3333H87.1667C87.11 91.3333 87.0546 91.339 87.001 91.3498C86.8221 91.5786 86.611 91.7769 86.3622 91.9486ZM65.5 57C67.9853 57 70 59.0147 70 61.5V70.5C70 72.9853 67.9853 75 65.5 75H56.5C54.0147 75 52 72.9853 52 70.5V61.5C52 59.0147 54.0147 57 56.5 57H65.5Z" fill="url(#paint9_linear_87_303)"/>
<defs>
<linearGradient id="paint0_linear_87_303" x1="288.707" y1="199.737" x2="406.839" y2="39.3628" gradientUnits="userSpaceOnUse">
<stop stop-color="#AF17F6"/>
<stop offset="0.449681" stop-color="#784EF5"/>
<stop offset="0.529502" stop-color="#6F58F5"/>
<stop offset="0.59524" stop-color="#6561F5"/>
<stop offset="0.677137" stop-color="#5D69F5"/>
<stop offset="0.875" stop-color="#5077F4"/>
</linearGradient>
<linearGradient id="paint1_linear_87_303" x1="39.707" y1="180.737" x2="157.839" y2="20.3627" gradientUnits="userSpaceOnUse">
<stop stop-color="#AF17F6"/>
<stop offset="0.449681" stop-color="#784EF5"/>
<stop offset="0.529502" stop-color="#6F58F5"/>
<stop offset="0.59524" stop-color="#6561F5"/>
<stop offset="0.677137" stop-color="#5D69F5"/>
<stop offset="0.875" stop-color="#5077F4"/>
</linearGradient>
<linearGradient id="paint2_linear_87_303" x1="111" y1="165.5" x2="163.5" y2="112.5" gradientUnits="userSpaceOnUse">
<stop offset="0.226669" stop-color="#AF17F6"/>
<stop offset="0.334215" stop-color="#9531F6"/>
<stop offset="0.451693" stop-color="#784EF5"/>
<stop offset="0.539801" stop-color="#6F58F5"/>
<stop offset="0.643896" stop-color="#6561F5"/>
<stop offset="0.76967" stop-color="#5D69F5"/>
<stop offset="0.875" stop-color="#5077F4"/>
</linearGradient>
<linearGradient id="paint3_linear_87_303" x1="110" y1="91" x2="164" y2="36.9997" gradientUnits="userSpaceOnUse">
<stop offset="0.226669" stop-color="#AF17F6"/>
<stop offset="0.334215" stop-color="#9531F6"/>
<stop offset="0.451693" stop-color="#784EF5"/>
<stop offset="0.539801" stop-color="#6F58F5"/>
<stop offset="0.643896" stop-color="#6561F5"/>
<stop offset="0.76967" stop-color="#5D69F5"/>
<stop offset="0.875" stop-color="#5077F4"/>
</linearGradient>
<linearGradient id="paint4_linear_87_303" x1="36" y1="165" x2="86.3687" y2="107.802" gradientUnits="userSpaceOnUse">
<stop offset="0.22" stop-color="#AF17F6"/>
<stop offset="0.449681" stop-color="#784EF5"/>
<stop offset="0.529502" stop-color="#6F58F5"/>
<stop offset="0.59524" stop-color="#6561F5"/>
<stop offset="0.677137" stop-color="#5D69F5"/>
<stop offset="0.875" stop-color="#5077F4"/>
</linearGradient>
<linearGradient id="paint5_linear_87_303" x1="127" y1="74" x2="200.07" y2="1.07057" gradientUnits="userSpaceOnUse">
<stop stop-color="#AF17F6"/>
<stop offset="0.449681" stop-color="#784EF5"/>
<stop offset="0.529502" stop-color="#6F58F5"/>
<stop offset="0.59524" stop-color="#6561F5"/>
<stop offset="0.677137" stop-color="#5D69F5"/>
<stop offset="0.875" stop-color="#5077F4"/>
</linearGradient>
<linearGradient id="paint6_linear_87_303" x1="127" y1="201" x2="196.799" y2="125.058" gradientUnits="userSpaceOnUse">
<stop stop-color="#AF17F6"/>
<stop offset="0.449681" stop-color="#784EF5"/>
<stop offset="0.529502" stop-color="#6F58F5"/>
<stop offset="0.59524" stop-color="#6561F5"/>
<stop offset="0.677137" stop-color="#5D69F5"/>
<stop offset="0.875" stop-color="#5077F4"/>
</linearGradient>
<linearGradient id="paint7_linear_87_303" x1="-1.50786e-06" y1="199.91" x2="73.3771" y2="128.071" gradientUnits="userSpaceOnUse">
<stop stop-color="#AF17F6"/>
<stop offset="0.449681" stop-color="#784EF5"/>
<stop offset="0.529502" stop-color="#6F58F5"/>
<stop offset="0.59524" stop-color="#6561F5"/>
<stop offset="0.677137" stop-color="#5D69F5"/>
<stop offset="0.875" stop-color="#5077F4"/>
</linearGradient>
<linearGradient id="paint8_linear_87_303" x1="2.25312e-06" y1="74" x2="71.856" y2="-1.05271" gradientUnits="userSpaceOnUse">
<stop stop-color="#AF17F6"/>
<stop offset="0.449681" stop-color="#784EF5"/>
<stop offset="0.529502" stop-color="#6F58F5"/>
<stop offset="0.59524" stop-color="#6561F5"/>
<stop offset="0.677137" stop-color="#5D69F5"/>
<stop offset="0.875" stop-color="#5077F4"/>
</linearGradient>
<linearGradient id="paint9_linear_87_303" x1="80.1852" y1="104.815" x2="100" y2="85.3704" gradientUnits="userSpaceOnUse">
<stop offset="0.226669" stop-color="#AF17F6"/>
<stop offset="0.334215" stop-color="#9531F6"/>
<stop offset="0.451693" stop-color="#784EF5"/>
<stop offset="0.539801" stop-color="#6F58F5"/>
<stop offset="0.643896" stop-color="#6561F5"/>
<stop offset="0.76967" stop-color="#5D69F5"/>
<stop offset="0.875" stop-color="#5077F4"/>
</linearGradient>
</defs>
</svg>
